<?xml version="1.0" standalone="no"?>
<!DOCTYPE svg PUBLIC "-//W3C//DTD SVG 1.1//EN" "http://www.w3.org/Graphics/SVG/1.1/DTD/svg11.dtd" >
<svg xmlns="http://www.w3.org/2000/svg" xmlns:xlink="http://www.w3.org/1999/xlink" version="1.1">
<metadata>
Created by FontForge 20170731 at Sun Jul  1 20:34:49 2012
 By Aleksey,,,
Copyright(c) 2012 Abelardo Gonzalez (abbie@abbiecod.es), with Reserved Font Name "Eulexia-Italic
</metadata>
<defs>
<font id="Eulexia-Italic" horiz-adv-x="1598" >
  <font-face 
    font-family="Eulexia Italic"
    font-weight="400"
    font-style="italic"
    font-stretch="normal"
    units-per-em="2048"
    panose-1="0 0 5 0 0 0 0 0 0 0"
    ascent="1638"
    descent="-410"
    x-height="1060"
    cap-height="1396"
    bbox="-50 -477 2186 1874"
    underline-thickness="50"
    underline-position="-317"
    slope="-12"
    unicode-range="U+000D-2260"
  />
<missing-glyph horiz-adv-x="2048" 
 />
    <glyph glyph-name=".notdef" horiz-adv-x="2048" 
 />
    <glyph glyph-name=".null" horiz-adv-x="0" 
 />
    <glyph glyph-name="uni000D" unicode="&#xd;" horiz-adv-x="569" 
 />
    <glyph glyph-name="space" unicode=" " horiz-adv-x="713" 
 />
    <glyph glyph-name="exclam" unicode="!" horiz-adv-x="416" 
d="M88 419l10 116q13 145 39 431q19 214 33 429q68 -21 158 -23q-3 -62 -14 -256q-5 -89 -16 -257q-2 -37 -6.5 -113.5t-7.5 -115.5q-5 -80 -13 -229l-1 -12q-24 3 -59 18q-35 13 -61 13h-31q-20 0 -31 -1zM74 211h31q72 0 144 -12l-1 -7q0 -14 -1.5 -43.5t-2.5 -44.5
q-2 -29 -4 -89q-76 22 -172 22h-5q1 42 6 87q1 14 3 44q0 15 2 43zM63 29l-9 8h9v-8z" />
    <glyph glyph-name="quotedbl" unicode="&#x22;" horiz-adv-x="890" 
d="M325 965l4 29q34 249 48 417q-127 0 -210 8q10 -81 10 -172q0 -145 -22 -286q40 1 85 3q54 0 85 1zM522 964h31q94 0 137 -21q-2 46 -2 66q0 151 35 309q9 45 22 98q-101 -4 -216 -6v-34l-2 -35q-9 -149 -9 -250q0 -70 4 -127z" />
    <glyph glyph-name="numbersign" unicode="#" horiz-adv-x="1280" 
d="M972 861l11 9q85 0 168 3q24 2 44 2l15 124q-43 -1 -101 -3q-53 -2 -99 -3l21 61q38 114 56 169q17 54 58 170q-5 -1 -13 -3q-5 -1 -13 -3h-116q-29 -83 -88 -275l-37 -122q-25 -1 -79 -1h-79h-80q-54 0 -79 1q4 15 14 49.5t15 54.5q4 16 28 104q5 18 14 49.5t12 43.5
t12 43.5t14 49.5q-91 0 -142 3q-78 -316 -100 -395q-22 1 -64.5 2.5t-63.5 1.5q-64 2 -129 6q-2 -37 -3 -62q-2 -45 -4 -65q152 -6 232 -6q-50 -186 -96 -340h-40q-15 -1 -40 -1q-36 0 -132 -2q-4 -56 -14 -125q9 1 29 2t29 1q19 0 57 2h74q-67 -228 -128 -399q6 1 20 3
q3 0 9.5 1t10.5 2h101q55 167 119 396q120 2 183 2h67q24 -1 67 -1q-19 -70 -105 -394h16q5 -1 14 -1q29 -2 55 0q15 0 55 -2q65 272 99 395q90 -2 134 -3q43 -1 133 -5l7 127q-105 4 -241 4l25 92q6 23 18 63.5t16 55.5q27 95 34 119zM528 858l12 9h151q102 0 151 1
l-95 -336h-78q-28 -1 -79 -1h-157q50 164 95 327z" />
    <glyph glyph-name="dollar" unicode="$" horiz-adv-x="1240" 
d="M517 38l-5 -66q-5 -52 -6 -92h76q21 0 77 -2l6 158q204 6 331 97q94 80 118 195q6 29 8 68q1 5 1 17v16q0 137 -70 218q-29 33 -109 80q-83 36 -229 71l32 408q80 -4 141 -65q54 -57 67 -134q31 6 176 37l19 4q-27 164 -122 237q-93 69 -271 78l4 52q1 8 2.5 21t1.5 18
q1 15 3 38q-37 0 -109 2q-12 0 -21 1h-25l-6 -129q-89 -2 -160 -18q-88 -22 -149 -65q-80 -57 -107 -174q-7 -39 -8 -66q-1 -5 -1 -16v-16q0 -127 62 -196q38 -45 99 -83q61 -32 179 -64l40 -11l-13 -185q-1 -14 -4.5 -62t-5.5 -75q-9 -106 -11 -137q-122 7 -184 61
q-61 50 -82 176l-193 -46q6 -158 134 -257q120 -94 294 -94h20zM583 946l-8 -117q-83 14 -142 60q-65 50 -65 125v10q0 7 1 10q0 12 3 29q0 1 1 2v1q16 75 87 116q46 22 140 28q-6 -123 -17 -264zM703 622l39 -10q75 -21 114 -44q42 -25 61 -65q19 -37 19 -82v-9
q-1 -3 -1 -9q0 -18 -4 -34q-15 -72 -75 -117q-70 -52 -182 -54q6 117 21 317z" />
    <glyph glyph-name="percent" unicode="%" horiz-adv-x="1835" 
d="M424 520h-7h-9q-3 -1 -10 -1q-138 0 -206 122q-56 98 -56 258q0 26 1 39q1 6 1.5 18.5t0.5 18.5q6 135 21 203q1 8 8 32q2 5 5.5 16t4.5 17q24 83 97 131q64 42 141 42q15 0 36 -3h10q146 0 230 -117q75 -104 75 -261q0 -33 -5 -73q-5 -80 -19 -134q-26 -117 -81 -195
q-39 -55 -108 -86q-60 -27 -130 -27zM1342 1392h66q11 0 31.5 1t30.5 2q19 0 61 2q-184 -226 -533 -710l-37 -52q-305 -425 -456 -619q-30 -1 -91 -1q-33 -1 -97 -3q144 178 277 361q44 60 132 182q24 34 70 97.5t63 87.5q307 430 483 652zM304 1009l-3 -42q-3 -33 -3 -66
q0 -66 12 -132q12 -56 38 -86q31 -36 77 -36h8q42 0 78 34q34 33 48 74q11 34 19 73q12 58 18 137l1 15q2 46 2 67q0 99 -29 161q-13 33 -42 55t-67 24h-4q-37 0 -68 -21q-36 -24 -49 -55q-12 -23 -22 -69q-7 -36 -14 -133zM1425 888h17q77 0 139 -37q61 -38 85 -105
q40 -112 40 -265v-23q-1 -8 -1 -24q-6 -120 -20 -186q-18 -83 -56 -150q-30 -52 -90 -79q-54 -25 -116 -25h-13q-9 0 -14 1h-9q-149 0 -234 117q-77 104 -77 260q0 34 5 74q6 90 18 142q12 54 35 111q35 88 118 142q74 48 157 48h8q3 -1 8 -1zM1540 442v90q0 102 -18 155
q-12 33 -38.5 54.5t-61.5 21.5h-8q-35 0 -68 -21t-50 -55q-21 -43 -33 -96q-7 -31 -9 -63q-1 -30 -6 -62l-3 -25v-18q0 -116 22 -183q33 -101 118 -118h6q41 0 76 35q34 32 45 72q4 9 5 19q1 4 2.5 11t1.5 8q17 73 19 175z" />
    <glyph glyph-name="ampersand" unicode="&#x26;" horiz-adv-x="1435" 
d="M500 -2h18q123 2 210 35q105 38 165 88q108 -120 293 -131q5 -1 17 -1h16q69 0 114 14q-4 61 -6 161q-55 -15 -110 -15h-16q-93 0 -179 93q138 193 225 460l-56 18q-23 7 -46 15q-8 2 -46 14q-33 -106 -75 -191q-54 -109 -123 -184q-126 156 -222 360q158 61 252 130
q131 96 157 213q5 22 5 37q2 12 2 18v17q0 110 -76 172q-91 78 -248 78h-16q-147 0 -248 -72q-70 -59 -90 -158q-9 -43 -9 -75q0 -58 16 -154q26 -103 42 -141q-130 -50 -225 -149q-100 -105 -125 -222q-6 -32 -7 -52q-6 -36 -6 -73q0 -138 81 -213q56 -51 144 -73
q75 -19 172 -19zM760 1262h13q60 0 103 -35q45 -38 45 -94v-9q0 -6 -1 -9q-10 -86 -101 -152q-50 -36 -172 -87l-24 -10q-43 95 -43 199v19q0 16 5 41q12 55 48 94q48 43 127 43zM769 253l-3 -14q-53 -48 -110 -52l-39 -3q-33 -3 -65 -3h-21q-124 0 -181 61q-56 56 -56 119
v9q0 6 1 9q2 23 6 41q17 78 79 144q60 64 144 95q100 -218 245 -406z" />
    <glyph glyph-name="quotesingle" unicode="'" horiz-adv-x="530" 
d="M308 1429q64 0 117 4q-51 -283 -60 -495q-77 8 -149 8h-33q-23 0 -34 -1q15 227 15 399v47q0 32 -1 47q62 -9 145 -9zM377 936l-13 -12q0 9 1 14q2 0 6 -1t6 -1z" />
    <glyph glyph-name="parenleft" unicode="(" horiz-adv-x="791" 
d="M101 542v-5q-7 -78 -7 -166q0 -189 36 -340q28 -115 92 -231q49 -88 137 -203q109 -11 196 -32q-80 124 -132 227q-67 133 -95 249q-39 163 -39 339q0 61 7 150q8 84 25 165q36 168 107 320q101 206 329 434q-14 -1 -42 -1h-42q-52 0 -124 5q-204 -183 -312 -404
q-68 -145 -105 -313q-19 -81 -31 -194z" />
    <glyph glyph-name="parenright" unicode=")" horiz-adv-x="789" 
d="M253 1470l-15 25q79 -22 194 -34q81 -106 133 -205q63 -119 91 -231q39 -155 39 -355q0 -77 -6 -149q0 -5 1 -6l-1 2q-23 -195 -73 -348q-68 -211 -198 -375q-78 -99 -175 -188q-43 4 -133 4h-38q-26 0 -39 -1q226 219 327 432q67 140 106 316q19 90 26 169q7 73 7 154
q0 185 -38 337q-27 108 -89 236q-39 79 -119 217z" />
    <glyph glyph-name="asterisk" unicode="*" horiz-adv-x="855" 
d="M499 1128l35 266l2 9h-98h-33q-23 0 -36 1q0 -10 1 -15v-16q0 -28 1 -43v-46q0 -110 -3 -158l-21 9q-156 65 -220 96q-13 -40 -43 -118l-13 -34q146 -46 227 -64l27 -6l-29 -34q-55 -64 -87 -103q-51 -63 -87 -103q28 -18 42 -26t42 -26q12 -7 23 -14t23 -14
q79 109 166 238q73 -153 130 -244q27 15 67 40q21 13 67 39q-61 89 -162 247q17 4 63 16t71 18q45 11 133 35l-13 58q-2 8 -5.5 23.5t-5.5 22.5q-9 38 -10 45q-72 -30 -254 -99z" />
    <glyph glyph-name="plus" unicode="+" horiz-adv-x="1023" 
d="M391 190h87h43q29 0 45 -1q5 219 20 401q123 9 263 9h67q45 0 68 -1q5 92 14 166q-134 -2 -200 -2q-33 0 -99.5 -0.5t-99.5 -1.5q4 68 12 142q8 100 11 141l10 128h-88h-43q-30 0 -45 1q-7 -195 -22 -412h-132q-175 0 -263 3q-5 -90 -14 -165q41 0 62 1h61q43 0 67 1
q23 0 71 0.5t71 0.5h65q-3 -36 -8.5 -104t-7.5 -101q-3 -35 -8 -103.5t-7 -102.5z" />
    <glyph glyph-name="comma" unicode="," horiz-adv-x="470" 
d="M365 182l6 52q-31 -15 -98 -15q-65 0 -126 9q-1 -107 -13 -238h83q-2 -14 -2 -21q-1 -11 -3 -18q-18 -87 -115 -215q48 2 78 2q53 0 80 -3q40 63 64 136q9 26 16 59q11 53 16 119q2 31 14 133z" />
    <glyph glyph-name="hyphen" unicode="-" horiz-adv-x="847" 
d="M688 581q-7 -37 -7 -63q0 -29 8 -63q-96 3 -272 3q-123 0 -248 -3q10 32 14 49q7 32 7 68t-7 61q96 -3 272 -3q164 0 248 3q-8 -20 -15 -52zM164 443l-8 12h13q-1 -2 -2.5 -6t-2.5 -6z" />
    <glyph glyph-name="period" unicode="." horiz-adv-x="576" 
d="M413 21v19q-2 18 -2 27q0 110 24 249q-60 -3 -117 -3q-92 0 -152 5q1 -9 1 -25v-25q0 -105 -26 -264q43 12 127 12h23q12 -1 40 -1h43q14 -1 32 -1h4q3 0 3 7z" />
    <glyph glyph-name="slash" unicode="/" horiz-adv-x="754" 
d="M20 -42l31 21q34 9 74 17q20 3 63 3h34l171 504q95 277 168 493q86 253 175 493q-82 -24 -193 -26q-31 -87 -89 -261q-29 -87 -89 -261q-240 -703 -345 -983z" />
    <glyph glyph-name="zero" unicode="0" horiz-adv-x="1185" 
d="M148 762l-6 -57q-5 -47 -5 -142q0 -113 16 -201q18 -106 59 -186q47 -75 142 -118q88 -42 193 -42h11q4 -1 11 -1q96 0 183 42q98 47 155 132q69 123 99 265q21 91 34 250q1 27 5 86q2 56 2 86q0 220 -71 358q-46 74 -141 118q-87 40 -194 40h-19q-100 0 -188 -37
q-104 -44 -162 -130q-62 -108 -91 -244q-19 -89 -33 -219zM622 1298h20q75 0 131 -26q63 -29 90 -85q43 -85 43 -235q0 -52 -5 -117q-8 -84 -23 -155q-13 -67 -35 -121q-25 -81 -103 -138q-75 -55 -159 -55q-6 0 -8 1h-8h-15q-46 0 -87 15q-81 29 -124 106q-41 73 -41 227
q0 19 2 59q2 41 11 152q5 54 14 94q20 93 66 170q38 56 106 84q56 24 125 24z" />
    <glyph glyph-name="one" unicode="1" horiz-adv-x="1057" 
d="M556 1375h64q30 -2 43 -2h23q8 -1 24 -1q-5 -86 -17 -240t-17 -240q-29 -382 -42 -608q232 -7 325 -13v-91q-2 -30 -2 -39q0 -37 2 -123v-6q-207 25 -479 25q-182 0 -381 -14q9 60 34 251q137 8 347 10l4 54q49 626 61 899q-8 -6 -30 -21.5t-36 -24.5q-27 -18 -68 -45
q-78 -52 -176 -118q0 21 1 28q3 36 4 74q1 15 1 46z" />
    <glyph glyph-name="two" unicode="2" horiz-adv-x="1213" 
d="M641 1392h24q170 -5 264 -58q66 -37 98.5 -102t32.5 -144q0 -29 -4 -54q0 -3 -1 -8t-1 -8q-2 -12 -3 -17q-18 -87 -93 -184q-59 -78 -159 -191q-70 -78 -105 -115l-47 -37q-80 -63 -112 -93q-41 -38 -145 -97q25 0 40 1q16 0 47 0.5t46 0.5h40q238 0 459 -13v-9v-58
q-1 -19 -1 -56q0 -66 3 -138q-220 25 -510 25q-183 0 -399 -13q8 53 19 139l12 94l9 11q44 48 66 73q81 91 133 133q42 35 156 115q124 89 159 116q77 60 128 117q62 69 79 110q11 27 17 52q4 18 6 41q3 20 3 38q0 89 -67 148q-65 57 -160 57h-22q-105 0 -175 -53
q-84 -63 -104 -170q-29 3 -55 8q-24 5 -54 9l-42 7q0 2 0.5 6t1.5 6q2 5 3 13q31 145 130 217q110 81 283 81z" />
    <glyph glyph-name="three" unicode="3" horiz-adv-x="1166" 
d="M106 359v-16q0 -153 126 -244q114 -84 282 -84h15q10 0 15 1q95 0 161 13q95 19 167 64q96 72 124 203q8 36 10 93q1 5 1 16v14q0 116 -86 196q-83 77 -208 83l4 23q108 13 194 95q83 80 105 179q9 58 9 100q0 138 -84 206q-104 86 -315 91h-18q-180 0 -290 -79
q-50 -35 -85 -96q-30 -53 -43 -116q-2 -6 -3 -15t-3 -16q106 -16 146 -33q17 116 103 179q70 51 186 53h7q99 0 169 -56q74 -61 74 -149q0 -21 -4 -38q-1 -3 -1 -9t-1 -9q-2 -12 -3 -19q-20 -90 -92 -149q-85 -70 -229 -70h-82q-2 -22 -2 -31q-1 -5 -1.5 -16t-0.5 -16
l-4 -66h87q7 0 11 1h10q114 0 190 -49q89 -58 89 -156v-10q0 -8 -1 -12q-2 -35 -23.5 -67.5t-54.5 -51.5q-47 -29 -100 -37q-48 -7 -102 -7h-9q-92 0 -156 32q-78 39 -94 113z" />
    <glyph glyph-name="four" unicode="4" horiz-adv-x="1098" 
d="M843 327l13 12q5 -1 16.5 -1t17.5 -1q5 -1 17 -2t17 -1q22 -2 28 -2q4 -1 13.5 -1.5t14.5 -0.5q0 77 4 157h-144q11 442 39 887q-38 -2 -54 -2h-52h-70q-137 -180 -233 -313q-39 -52 -115.5 -157.5t-114.5 -158.5q-49 -69 -207 -286q-1 -7 -2 -20.5t-2 -19.5
q-4 -25 -5 -40l-5 -46q215 12 474 12h92q-36 -221 -49 -307q223 -6 329 -17q-17 150 -22 308zM717 1218l-6 -45q-57 -387 -99 -684h-86q-202 0 -358 -4l5 18l16 10l4 5q159 217 433 586q22 32 30 46l21 34l2 3q2 3 5.5 8t4.5 7q6 8 10 17z" />
    <glyph glyph-name="five" unicode="5" horiz-adv-x="1137" 
d="M534 17h17q99 0 176 21q97 26 163 87q87 78 117 222q10 47 15 113q1 5 1 17v16q0 175 -94 273q-97 114 -289 114h-5q-166 0 -290 -97q3 21 8 62t6 52q16 136 26 241l5.5 60.5t4.5 52.5q200 -9 342 -9q165 0 281 6l13 129q-147 -6 -290 -6q-271 0 -483 27
q-15 -334 -72 -737h150q110 98 252 98h11q134 0 204 -80q56 -62 56 -156q0 -28 -6 -58q-10 -55 -25 -91q-22 -52 -67 -80q-63 -32 -202 -48q-98 10 -148 31q-81 34 -98 99l-56 -18q-39 -12 -72 -21q-54 -17 -73 -23q4 -146 125 -225q109 -73 267 -73h15q10 0 15 1z" />
    <glyph glyph-name="six" unicode="6" horiz-adv-x="1129" 
d="M544 16h18q33 0 78 5q85 11 156 52q87 49 137 154q46 99 53 234q2 32 2 48q0 172 -84 271q-94 112 -268 112h-19q-89 0 -176 -45q-89 -46 -137 -131l-17 2q8 107 26 193q21 87 39 139q31 88 109 153q80 67 167 67h13q75 0 138 -47q62 -46 78 -116q6 1 17.5 4t16.5 4
q8 1 34 6.5t40 7.5q19 3 41 9q-16 118 -112 188q-92 66 -221 66h-12q-5 -1 -14 -1q-4 1 -12 1h-14q-92 0 -183 -43q-95 -47 -149 -130q-81 -123 -116 -291q-20 -89 -36 -255q-7 -82 -7 -146q0 -224 83 -357q48 -76 140 -116q87 -38 191 -38zM603 816h15q102 0 173 -60
q72 -62 72 -158q0 -17 -3 -35q-2 -24 -6 -49q-19 -89 -88 -151q-76 -59 -190 -59h-14q-117 0 -190 79q-62 65 -62 175q0 12 2 36q0 2 1 7t1 8q0 5 2 15q19 84 87 134q81 56 200 58z" />
    <glyph glyph-name="seven" unicode="7" horiz-adv-x="1032" 
d="M992 1397l-6 -39q-9 -58 -14 -94q-154 -261 -289 -515q-130 -236 -179 -470q-29 -128 -30 -247q-90 5 -204 5h-71q9 75 20 129q42 197 153 404q164 310 457 683q-208 -10 -329 -10q-233 0 -416 20q0 47 1 68v67q206 -27 445 -27q223 0 462 26z" />
    <glyph glyph-name="eight" unicode="8" horiz-adv-x="1180" 
d="M553 19h23q40 0 82 3q91 5 164 38q103 46 148 134q45 89 47 199q0 9 1 14v13q0 120 -55 198q-58 85 -192 110l4 22q118 22 180 106q58 71 77 161l6 39q2 22 2 34q0 65 -22.5 121.5t-65.5 90.5q-59 47 -145 70q-69 18 -169 20h-12q-38 0 -75 -3q-81 -6 -154 -37
q-101 -43 -143 -121q-44 -83 -44 -163v-12q-1 -4 -1 -12q0 -106 49 -185q54 -86 165 -112l-3 -22q-118 -17 -200 -107q-60 -69 -86 -175q-5 -23 -6 -47q-4 -27 -4 -59q0 -151 90 -226q65 -53 156 -73q86 -19 183 -19zM360 1082v5q0 30 7 57q16 80 81 137q31 23 90 36
q41 9 97 9q6 0 9 1h9q96 0 163 -53q71 -56 71 -145q0 -16 -5 -44q-1 -18 -8 -50q-20 -90 -78 -144q-73 -56 -193 -58h-9q-3 -1 -10 -1q-97 0 -162 65q-64 64 -64 158q0 9 2 27zM598 703h20q116 0 200 -54q94 -60 94 -164q0 -4 -2 -26q0 -7 -1 -8q-2 -3 -3 -10
q-20 -88 -85 -121q-62 -27 -129 -33q-50 -6 -123 -6h-25q-20 -3 -40 -3q-97 0 -178 65q-34 27 -54 57t-20 53q0 3 1 8t1 7q0 6 2 16q22 101 111 161q80 52 231 58z" />
    <glyph glyph-name="nine" unicode="9" horiz-adv-x="1146" 
d="M998 705l3 26q6 98 6 151q0 223 -75 360q-47 72 -137 112q-87 38 -186 38h-7q-91 0 -168 -22q-94 -28 -156 -86q-83 -78 -111 -209q-8 -36 -15 -120q5 -74 29 -145q26 -77 68 -122q96 -77 261 -86q11 0 17 1q5 1 15 1q147 10 215 35q58 27 100 70l-27 -126
q-30 -143 -82 -218q-44 -51 -113 -72q-45 -14 -124 -20q-12 -2 -19 -2h-20q-112 0 -149 71q-9 -3 -40 -13q-6 -2 -20 -6t-20 -6l-120 -39q12 -122 109 -193q90 -69 221 -69h17q12 0 17 1q5 -1 17 -1h17q108 0 196 37q105 45 153 133q59 111 91 255q19 88 37 264zM835 948
q-7 -58 -49 -91q-39 -28 -105 -60q-63 -31 -144 -31q-125 0 -192 63q-64 61 -64 145q0 5 1 8v8q1 28 10 76q19 87 73 143q84 78 216 78q62 0 114.5 -25t84.5 -70q57 -76 57 -201q0 -13 -2 -43z" />
    <glyph glyph-name="colon" unicode=":" horiz-adv-x="557" 
d="M252 771h73h50q31 0 50 1q7 70 12 140t12 139q-12 -1 -35 -1h-36q-119 0 -196 18q-5 -162 -14 -300q27 3 84 3zM108 19q17 11 67 11q114 0 202 -17q7 235 11 292q-73 4 -165 4h-45q-28 0 -45 -1q-1 -17 -5 -56q-4 -28 -6 -56q-11 -132 -14 -177z" />
    <glyph glyph-name="semicolon" unicode=";" horiz-adv-x="532" 
d="M438 761l12 93q8 68 11 93q7 64 11 93q-9 -1 -26 -1h-26q-126 0 -214 33q-12 -173 -33 -294q93 -18 202 -18h32q18 0 31 1zM387 298l-82 2q-95 5 -171 6l-32 -279h16h55q21 0 55 -2q-5 -43 -10 -65q-32 -152 -159 -310q93 0 161 -12q65 93 93 176q14 41 27 98
q6 31 23 161l13 116q4 38 5 55q1 26 6 54z" />
    <glyph glyph-name="less" unicode="&#x3c;" horiz-adv-x="1191" 
d="M63 818l210 62q530 158 793 255q-6 -14 -7 -22q-18 -66 -36 -145q-185 -68 -576 -194l-248 -80l233 -133q312 -178 474 -279v-44q-8 -103 -9 -159q-85 53 -251 147q-58 33 -257 141q-222 121 -361 202q24 151 35 249z" />
    <glyph glyph-name="equal" unicode="=" horiz-adv-x="1330" 
d="M215 834q228 -6 456 -6q233 0 481 6q7 49 15 79q5 26 9 40q4 20 9 40q-224 -10 -460 -10q-291 0 -514 14q8 -58 8 -105q0 -33 -4 -58zM153 346q234 9 469 9q280 0 515 -12q-11 71 -13 161q-253 5 -446 5q-207 0 -482 -5q-16 -84 -21 -105q-8 -41 -22 -53z" />
    <glyph glyph-name="greater" unicode="&#x3e;" horiz-adv-x="1195" 
d="M145 207l-26 -47q213 75 439 145q145 45 439 135l140 43q25 193 35 248q-56 33 -168 95l-171 93q-351 188 -530 303q-1 -27 -5 -83l-6 -84q153 -99 441 -259q8 -4 58 -32t78 -44q12 -6 35 -19t35 -20t34 -20t31 -18l-269 -88q-319 -105 -551 -187l-5 -23
q-14 -58 -34 -138z" />
    <glyph glyph-name="question" unicode="?" horiz-adv-x="1071" 
d="M695 623l75 54q40 28 71 54q65 53 100 112q45 74 58 140q6 25 7 46q4 25 4 57q0 141 -91 214q-61 49 -155 70q-83 19 -181 19q-97 0 -168 -16q-96 -21 -173 -78q-55 -40 -92 -109q-31 -58 -46 -130l-3 -15q-1 -4 -3 -14q34 -6 53 -7q37 -4 53 -7l36 -5q25 120 111 190
q93 74 238 74q61 0 106 -11q56 -15 83 -53q51 -68 56 -173q-1 -3 -1.5 -8.5t-0.5 -8.5q-1 -6 -3 -20q-22 -104 -100 -170q-69 -58 -158 -118q-61 -42 -131 -99l-32 -26q-67 -55 -86 -152q-5 -19 -6 -37q21 1 63 1h63h62q39 0 62 -1q0 10 3 20q11 49 41 94q41 61 85 113z
M245 -72q15 1 47 1h46q51 0 187 -2q7 216 11 271l-168 3h-46q-29 0 -46 -1q-10 -104 -13 -156q-6 -82 -18 -116z" />
    <glyph glyph-name="at" unicode="@" horiz-adv-x="1908" 
d="M1308 128h13q3 -1 11 -1h11q57 0 112 26q107 50 181 161q73 109 111 297q16 67 22 143q7 61 7 106q0 256 -151 408q-88 88 -229 133q-124 38 -282 38h-20q-270 0 -483 -114q-104 -56 -188.5 -142t-141.5 -191q-80 -147 -118 -327q-18 -84 -26 -173q-5 -47 -5 -85
q0 -175 47 -310q33 -80 94 -145.5t139 -105.5q165 -86 408 -86q167 0 319 34q172 37 313 116q-17 33 -44 83q-15 25 -44 83q-110 -82 -253 -101q-125 -15 -282 -15q-201 2 -321 45q-126 44 -204 169q-61 100 -61 252q0 32 3 64q6 71 23 155q34 158 106 292q115 205 295 301
q176 93 428 98h8q178 0 310 -63q149 -71 206 -209q42 -103 42 -238q0 -38 -3 -74q-7 -71 -19 -130q-20 -85 -40 -137q-22 -58 -43 -91q-31 -50 -71 -76q-65 -43 -141 -43h-11q-34 0 -55 26t-21 62v7q0 4 1 6q0 5 1.5 17t2.5 18q1 18 6 36q18 71 40 128q59 204 150 477
q-45 0 -64 -1q-20 -1 -65 -1l-24 -70q-8 -20 -15 -42q-10 -30 -13 -43h-20q-25 81 -94 127q-70 46 -158 46h-18q-62 0 -122 -19q-128 -39 -219 -150q-76 -92 -116 -209q-32 -93 -42 -198q-2 -34 -2 -51q0 -136 57 -216q65 -92 210 -92h20q99 0 201 69q97 66 150 167h22
l-7 -77q-2 -14 -2 -22q0 -66 51 -104q49 -38 117 -38zM808 396l-24 2q-56 6 -83 13q-45 11 -72 37q-40 36 -40 112v12q0 7 1 11q3 31 9 59q12 60 48 133q46 91 132 152q82 57 180 77q99 -7 160 -27q59 -24 70 -87q-6 -48 -15 -90l-21 -93q-36 -112 -132 -202
q-96 -91 -213 -109z" />
    <glyph glyph-name="A" unicode="A" horiz-adv-x="1462" 
d="M1116 23h31q109 0 223 -11q-49 125 -99.5 281t-79.5 256.5t-82 293.5l-17 64q-66 244 -134 465q-134 0 -203 3q-78 -160 -112 -232q-196 -408 -279 -568q-167 -325 -316 -563q39 3 138 10q95 4 138 7q41 97 101 256q148 4 336 4q104 0 298 -2q36 -186 57 -264zM852 1251
l21 -78q17 -66 20 -78q6 -31 19 -73l124 -491h-132h-139q-101 0 -271 -2l160 325l80 166q27 64 54 119q29 60 47 118z" />
    <glyph glyph-name="B" unicode="B" horiz-adv-x="1320" 
d="M573 37h138q100 0 172 13q101 19 177 66q90 64 116 191q8 33 10 90q2 30 2 37q0 123 -79 207q-80 85 -206 91l2 18q76 23 131 100q43 62 62 148q4 17 5 29q1 4 2 13.5t1 14.5q3 22 3 44q0 73 -32 133t-97 94q-93 47 -244 47q-255 0 -492 25q2 -98 2 -149
q0 -524 -102 -1223q199 11 429 11zM710 1274h13q101 0 173 -41q83 -50 83 -137q0 -16 -3 -36q-1 -5 -3 -17q-1 -4 -2 -10t-1 -10q-20 -92 -91 -148q-76 -51 -200 -51h-145q-99 0 -146 1q14 235 19 457q192 -8 303 -8zM1029 479l-4 -36q-8 -33 -25 -63q-31 -51 -103 -76
q-51 -17 -106 -19q-9 0 -26.5 -0.5t-26.5 -1.5h-15q-5 -1 -15 -1q-16 1 -48 1h-50q-151 0 -267 -4q22 210 35 393q57 1 174 1h173h17q119 0 192 -34q96 -45 96 -144v-7q-1 -3 -1 -9z" />
    <glyph glyph-name="C" unicode="C" horiz-adv-x="1383" 
d="M804 1260h8q104 -2 190 -26q99 -29 228 -92l20 149q-71 56 -175 81q-80 20 -194 20h-31q-10 -1 -31 -1q-137 0 -255 -37q-143 -45 -234 -136q-126 -126 -170 -336q-17 -78 -25 -171q-4 -37 -4 -84q0 -122 31 -233q34 -123 100 -206q79 -85 210 -130q120 -41 260 -43h28
h31q9 -1 30 -1q95 0 168 16t163 88v33q-2 70 -2 96q0 117 7 242q-72 -90 -177 -143q-104 -53 -209 -53q-8 0 -12 1h-12q-99 7 -171 25q-91 23 -153 68q-66 48 -94 140q-20 65 -29 177q6 101 14 138q35 162 132 270q64 73 169 113q92 35 189 35z" />
    <glyph glyph-name="D" unicode="D" horiz-adv-x="1478" 
d="M617 37h75q127 0 242 41q131 47 226 143q121 140 164 342q16 73 22 156q5 58 5 102q0 121 -28 213q-33 105 -103 173q-91 88 -239 129q-119 33 -288 38q-248 5 -445 25q4 -87 4 -195q0 -528 -105 -1179q212 12 470 12zM669 350h-6q-176 0 -309 -4q52 506 56 907
q86 -4 138 -5q25 -1 71.5 -2.5t66.5 -1.5q119 -2 217 -24q111 -27 190 -93q105 -88 105 -261q0 -28 -3 -56q-7 -52 -11 -73q-34 -164 -166 -280q-74 -57 -171 -83q-85 -24 -178 -24z" />
    <glyph glyph-name="E" unicode="E" horiz-adv-x="1233" 
d="M1116 1248l9 66q1 6 2.5 16.5t1.5 15.5q2 23 4 34q-137 -8 -361 -8q-295 0 -530 26q2 -88 2 -134q0 -565 -111 -1238q240 12 416 12q276 0 529 -25q-4 79 -4 177q0 99 4 180q-201 9 -469 9q-92 0 -260 -2l17 188q0 6 1.5 22t2.5 25t2.5 25.5t1.5 21.5q77 1 234 1h233h140
l12 128q-71 -1 -211 -1h-212h-187q17 236 22 463q211 -9 365 -9q178 0 346 7z" />
    <glyph glyph-name="F" unicode="F" horiz-adv-x="1181" 
d="M484 1233l12 11q95 -4 211 -4q243 0 444 21l7 43q5 24 6 46q1 11 7 46q-239 -25 -455 -25q-231 0 -434 27q-22 -590 -152 -1373q32 3 74 19q42 14 79 14h19q88 0 133 -22l-25 549q38 1 120 1h120h133q40 0 132 -2q2 36 4 55q6 72 10 101q2 30 3 47q-134 -2 -198 -2h-197
h-110q35 249 57 448z" />
    <glyph glyph-name="G" unicode="G" horiz-adv-x="1467" 
d="M835 1391h-7q-140 0 -257 -34q-144 -42 -237 -135q-123 -122 -168 -330q-18 -82 -26 -181q-5 -58 -5 -105q0 -122 30 -223q33 -113 107 -193q80 -89 216 -134q119 -40 267 -40h24q176 0 320 48q61 20 114 59q58 43 81 97v27q0 198 20 458q-41 -1 -121 -1h-121h-240
q-5 -45 -6 -91q-4 -59 -7 -92h142q95 0 141 -1q-1 -5 -1.5 -15t-0.5 -15q-2 -16 -3 -30q-2 -34 -2 -53q-66 -66 -149 -103t-163 -37h-16q-11 0 -16 1q-106 14 -180 43q-96 37 -145 99q-93 116 -98 296q7 80 21 146q32 155 112 273q57 84 160 130q95 42 193 42h37
q128 0 226 -51q109 -57 148 -158q99 96 103 100q-56 103 -157 151q-58 29 -161 43q-57 7 -175 9z" />
    <glyph glyph-name="H" unicode="H" horiz-adv-x="1484" 
d="M276 1399l24 -3q79 -9 188 -14q-7 -288 -44 -632h319q216 0 319 1q9 215 39 623q102 1 209 7q-59 -565 -59 -938q0 -222 19 -431q-60 7 -131 10q-90 5 -125 7q4 243 34 519q-52 1 -159 1h-159h-160q-109 0 -161 -1q-30 -452 -34 -514q-189 -6 -265 -12q146 719 146 1342
v35z" />
    <glyph glyph-name="I" unicode="I" horiz-adv-x="507" 
d="M92 268l-37 -234q37 3 75 3q102 0 192 -23q7 300 44 854q14 208 29 504q-119 2 -184 24q-29 -378 -119 -1128z" />
    <glyph glyph-name="J" unicode="J" horiz-adv-x="986" 
d="M182 -475h60q7 0 12 1h11q160 15 262 87q56 40 89 110q26 56 42 134l7 32q106 768 244 1476q-52 -4 -116 -4q-73 0 -113 4l-145 -997q-12 -54 -21 -116v-2q-1 -1 -1 -3q-2 -9 -5 -28.5t-4 -29.5q-7 -42 -10 -58q-33 -147 -100 -238q-71 -51 -147 -53q-5 -1 -15 -1h-16
q-40 0 -69 10q-44 15 -87 53q-1 -17 -4.5 -50t-5.5 -49q-1 -17 -4.5 -50t-5.5 -49l-17 -164q13 -6 26 -9q24 -6 50 -6h30q9 0 17 -1q7 -1 21 -1q9 0 10 1q1 0 2 1h3z" />
    <glyph glyph-name="K" unicode="K" horiz-adv-x="1412" 
d="M277 1376v23q4 0 12 -0.5t11 -1.5t10.5 -1.5t11.5 -0.5q38 -4 106 -10q-9 -290 -54 -688q392 383 713 676q21 1 58 2.5t53 1.5q72 2 109 4q-210 -193 -727 -704q153 -151 687 -664q-82 8 -228 16q-18 1 -56 2t-56 2q-48 1 -113 3q-154 219 -355 540l-68 -26
q-12 -227 -34 -517q-175 -7 -226 -11q146 758 146 1354z" />
    <glyph glyph-name="L" unicode="L" horiz-adv-x="1051" 
d="M1017 12q-217 25 -503 25q-192 0 -385 -12q135 797 144 1373q98 -13 181 -17q-18 -404 -102 -1100q68 3 210 3q261 0 454 -14q-2 -74 -2 -109q0 -73 3 -149z" />
    <glyph glyph-name="M" unicode="M" horiz-adv-x="1870" 
d="M935 441l96 187q264 516 402 746q79 2 116 5q56 3 116 3q17 0 25 1q7 1 24 1q-75 -530 -75 -908q0 -243 29 -465q-113 9 -291 16q5 475 123 1148l-18 3q-213 -442 -457 -1057q-38 1 -110 1h-110q-51 173 -110 392l-8 30q-122 443 -190 639l-20 -6q4 -97 4 -219
q0 -405 -52 -927q-104 -4 -146 -5q-100 -4 -145 -7q10 42 18 78q3 12 8 37.5t8 39.5q118 560 118 1065q0 79 -3 158q115 -10 298 -17q107 -240 280 -739z" />
    <glyph glyph-name="N" unicode="N" horiz-adv-x="1563" 
d="M1146 380l18 7q24 499 90 990q15 1 43 2.5t41 1.5t41 1.5t42 2.5q-105 -656 -105 -1131q0 -102 7 -242q-48 5 -145 11q-97 4 -145 7q-7 0 -11 1h-7q-133 245 -314 651q-129 286 -231 495l-19 -7q3 -110 3 -220q0 -356 -31 -916q-202 -6 -292 -13q156 754 156 1377
q91 -10 234 -17q174 -254 468 -742z" />
    <glyph glyph-name="O" unicode="O" horiz-adv-x="1573" 
d="M732 17h10h16q5 -1 15 -1q126 0 245 42q129 46 228 146q118 140 161 342q18 88 23 163q5 52 5 95q0 119 -31 225q-33 112 -105 194q-72 83 -201 129q-116 39 -255 39h-23q-140 0 -253 -35q-140 -43 -231 -137q-124 -126 -169 -335q-10 -48 -14 -87q-14 -103 -14 -167
q0 -124 31 -236q32 -121 99 -207q79 -86 206 -129q117 -41 257 -41zM820 1260h13q108 0 195 -29q97 -34 154 -101q94 -106 94 -290q0 -42 -4 -75q-5 -63 -15 -110q-34 -154 -136 -229q-79 -51 -181 -71q-78 -15 -184 -15q-225 0 -350 91q-55 40 -81 118q-22 65 -22 152
q0 30 3 62q5 64 16 116q32 155 131 252q70 70 176 103q86 26 191 26z" />
    <glyph glyph-name="P" unicode="P" horiz-adv-x="1294" 
d="M740 540h5q96 0 177 26q97 31 164 91q114 102 150 265q6 32 9 58q4 28 4 63q0 164 -96 243q-64 53 -165 79q-83 20 -195 20q-274 2 -477 30q-31 -641 -194 -1416q10 1 139 9q72 4 137 6l17 116q4 34 29 205q8 56 28 204q47 1 134 1h134zM768 783h-264q18 143 48 457
q84 -4 240 -4q150 0 231 -46q72 -53 72 -146q0 -10 -2 -28q-2 -19 -6 -38q-16 -79 -73 -129q-56 -40 -124 -54q-56 -12 -122 -12z" />
    <glyph glyph-name="Q" unicode="Q" horiz-adv-x="1540" 
d="M1387 672l5 34q6 54 6 107q0 118 -30 217q-33 108 -107 188q-78 85 -211 129q-115 38 -263 38h-7q-139 0 -257 -33q-145 -42 -234 -135q-124 -125 -166 -324q-11 -47 -15 -91q-11 -84 -11 -172q0 -168 51 -297q57 -148 172 -223q65 -43 166 -68q87 -21 190 -23
q75 -172 171 -262q93 -83 243 -91q7 -1 22 -1h22q69 0 119 9q16 34 30 58q5 10 15 29t15 29l37 71q-17 -3 -56 -3h-19q-14 0 -19 1q-99 5 -167 21q-47 20 -74 73q-17 32 -36 100l-9 30q95 18 176 61q91 50 131 123q54 96 82 228q11 53 28 177zM777 1253h6q106 0 200 -32
q97 -33 158 -104q94 -111 94 -298q0 -41 -4 -77q-1 -31 -9 -64q-19 -92 -71 -164q-61 -83 -142 -117q-22 -7 -73.5 -24t-73.5 -25l-28 194q-24 -5 -66.5 -13.5l-57.5 -11.5q-19 -4 -61 -12t-64 -13q1 -6 2.5 -17t1.5 -14q2 -20 3 -31q8 -68 18 -110h-4q-139 0 -250 85
q-51 45 -76 129q-21 66 -21 159v23q0 16 1 23q5 73 17 131q34 153 130 250q66 70 177 106q86 27 193 27z" />
    <glyph glyph-name="R" unicode="R" horiz-adv-x="1417" 
d="M422 201v-166q-222 -7 -283 -11q105 643 105 1157q0 97 -5 217q254 -23 567 -25q5 1 14 1h13q129 0 210 -89q78 -87 78 -215q0 -33 -8 -76q-2 -16 -3 -23q-1 -4 -2.5 -12t-1.5 -11q-22 -94 -79 -184q-40 -59 -65 -85q-45 -47 -97 -64q319 -424 467 -602q-187 13 -207 14
q-17 1 -51 2t-51 2q-32 1 -102 3q-96 145 -256 431l-59 106h-189q5 -202 5 -370zM569 771h146q80 0 159 72q37 34 60 76t24 83q0 16 1 21t1 14q0 97 -61 152q-72 65 -156 65q-146 1 -308 8q-1 -225 -20 -490h77q27 -1 77 -1z" />
    <glyph glyph-name="S" unicode="S" horiz-adv-x="1360" 
d="M1206 379v10q1 5 1 15v14q0 86 -37 157t-109 115q-82 51 -261 91q-50 12 -61 14l-56 14q-126 31 -185 58q-68 37 -93 72q-29 39 -29 99v12q0 21 4 38q19 97 113 141q88 42 224 42h40q121 0 203 -45q96 -53 111 -155l161 32q-28 160 -137 221q-72 39 -169 54
q-78 10 -187 12h-25q-188 0 -311 -49q-35 -13 -64 -36q-55 -43 -85 -112q-29 -64 -29 -140q-1 -5 -1 -14v-14q0 -127 79 -214q52 -49 120 -80q60 -27 219 -67l14 -3q5 -1 19 -4.5l22 -5.5q7 -1 20 -5t20 -5l81 -19q65 -16 106 -46q60 -45 60 -101q0 -23 -4 -46q-1 -3 -1 -7
q0 -2 -2 -8q-35 -66 -84 -87q-61 -20 -172 -20h-28q-19 0 -28 -1h-18q-136 2 -193 12q-46 7 -75 46q-23 29 -42 78q-52 -23 -232 -106q10 -169 174 -252q131 -67 335 -67h33q128 0 211 14q118 18 206 74q106 67 134 204q8 40 8 70z" />
    <glyph glyph-name="T" unicode="T" horiz-adv-x="1243" 
d="M693 1030l22 211q107 -3 213 -3q162 0 249 3l2 12q11 71 24 144q-294 -26 -574 -26q-283 0 -559 28v-16q2 -48 2 -71q0 -47 1 -72q89 -4 204 -4q122 0 262 5q-22 -230 -65 -593q-6 -56 -17.5 -159.5t-16.5 -146.5q-20 -166 -32 -305q171 -2 270 -7q-6 150 -6 304
q0 290 21 696z" />
    <glyph glyph-name="U" unicode="U" horiz-adv-x="1465" 
d="M663 16h17q50 0 102 6q110 11 206 61q56 29 108.5 80t83.5 119q55 122 63 248q36 501 101 858q-43 -3 -91 -6q-56 -4 -92 -5q-37 -270 -71 -665q-7 -64 -13 -91q-27 -129 -110 -201q-59 -49 -139 -72q-66 -19 -147 -19h-7q-89 0 -157 25q-80 29 -130 92q-59 86 -59 219
v20q0 13 1 20q22 352 22 619v62q-55 4 -76 5q-22 1 -77 7q3 -84 3 -170q0 -313 -40 -713q-3 -36 -3 -71q0 -193 117 -306q72 -60 178 -92q101 -30 210 -30z" />
    <glyph glyph-name="V" unicode="V" horiz-adv-x="1451" 
d="M661 422l-76 188q-212 525 -331 774q-32 1 -86 5q-51 4 -86 8q105 -262 265 -798q102 -348 176 -562q167 -2 239 -14q170 428 290 694q170 375 345 682l-53 -4q-57 -5 -131 -10q-205 -315 -492 -853z" />
    <glyph glyph-name="W" unicode="W" horiz-adv-x="2099" 
d="M1497 22h11q137 716 495 1378q-48 -3 -90 -6q-54 -4 -90 -5q-218 -393 -447 -1025q-68 160 -99 243q-10 25 -49 124q-12 28 -47 120l-85 218h-115l-80 -148q-207 -385 -301 -554q-90 354 -140 526q-81 280 -171 495q-107 5 -170 10q93 -257 159 -558q37 -171 111 -581
l40 -225q31 0 48 1h48q138 2 198 2q23 64 70 192t70 192q47 127 139 383l17 2l21 -111q40 -218 65 -333q41 -191 83 -329q54 -1 155 -5q102 -4 154 -6z" />
    <glyph glyph-name="X" unicode="X" horiz-adv-x="1544" 
d="M887 727l71 -100q267 -383 450 -615q-39 3 -82 6q-80 6 -154 9q-9 0 -24.5 1t-28.5 1.5t-25 0.5q-157 247 -310 541q-222 -332 -375 -538q-104 -3 -312 -13q237 253 523 608l84 104q-238 382 -432 665q13 -1 35 -3q5 0 15 -1t15 -1q6 0 27.5 -1.5t37.5 -2.5l49 -4
q141 -202 349 -534q264 339 422 524h143l5 3q4 1 12.5 1t13.5 1q9 0 23 2q-179 -203 -502 -616z" />
    <glyph glyph-name="Y" unicode="Y" horiz-adv-x="1368" 
d="M732 507l42 66q123 198 182.5 292.5t165 252.5t196.5 281q-15 -1 -46.5 -3.5t-47.5 -4.5q-31 -3 -95 -7q-183 -230 -424 -574l-60 -85q-216 383 -386 658q-77 3 -178 14q142 -265 380 -765l58 -121l-35 -194q-13 -66 -24 -139q-18 -106 -25 -141q200 0 333 -8
q-24 195 -36 478z" />
    <glyph glyph-name="Z" unicode="Z" horiz-adv-x="1379" 
d="M260 1399v-16q2 -48 2 -71q0 -47 1 -72q237 -19 565 -19q49 0 78 1h78q-142 -146 -258 -268q-51 -54 -143 -151.5t-113 -119.5q-324 -341 -338 -356q-18 -146 -44 -306q244 16 502 16q323 0 611 -27q-21 71 -21 220v51q0 34 1 51q-246 11 -534 11h-95q-67 0 -96 -1
q32 37 136 161q63 75 136 163q2 3 11 13.5t14 16.5q271 325 464 543q5 45 13 100q2 13 3 21q0 3 2 21q-168 -9 -400 -9q-301 0 -575 27z" />
    <glyph glyph-name="bracketleft" unicode="[" horiz-adv-x="743" 
d="M71 -359q48 2 74 2q196 0 340 -47q8 116 18 201q-89 22 -212 34q44 369 84 683q20 155 48 386l24 195q19 152 23 190q61 -8 154 -8h32q19 0 32 1q4 27 11 70q2 10 5 34q3 29 4 34q-11 -1 -33 -1h-33q-193 0 -334 50q-65 -712 -237 -1824z" />
    <glyph glyph-name="backslash" unicode="\" horiz-adv-x="525" 
d="M328 6q8 0 13 1h13q52 0 141 -13q-47 191 -84 379q-50 254 -75 382q-1 7 -67 344q-30 155 -74 340q-28 3 -82 7q-36 3 -81 11q38 -165 144 -707q84 -446 152 -744z" />
    <glyph glyph-name="bracketright" unicode="]" horiz-adv-x="724" 
d="M69 -167l-10 -74q-10 -88 -24 -120q11 1 35 1h34q198 0 343 -43q29 452 146 1436l46 386q-11 -1 -33 -1h-33q-190 0 -336 45l-2 -53q-1 -23 -3 -46q-2 -31 -5 -47q79 -22 213 -35q-15 -154 -74 -699q-13 -117 -41 -379q-29 -270 -39 -377q-98 6 -158 6h-59z" />
    <glyph glyph-name="asciicircum" unicode="^" horiz-adv-x="1080" 
d="M473 1374l-15 -29l-90 -174q-45 -89 -93 -174q-110 -198 -211 -337q35 2 200 9q55 101 133 263q5 10 125 272q1 2 13 29q19 42 31 67q9 19 12 28q7 -21 21 -67q20 -66 42 -145q4 -13 10.5 -36.5t8.5 -31.5q65 -240 113 -378h12q3 -1 11 -1q52 -1 99 -3q65 -2 100 -5
q-85 146 -209 456q-72 180 -106 255h-43h-58q-40 0 -59 1q-13 0 -22 1h-25z" />
    <glyph glyph-name="underscore" unicode="_" horiz-adv-x="1461" 
d="M168 -399q206 20 591 20h145h139q46 -1 139 -1q24 -1 72 -1.5t72 -0.5q-18 25 -18 61v12q0 4 2 12q8 32 30 59q-305 -3 -607 -3h-137q-88 0 -131 1q-88 0 -132 1q-89 0 -136 1q19 -28 19 -63q0 -13 -3 -25q-7 -38 -45 -73z" />
    <glyph glyph-name="grave" unicode="`" horiz-adv-x="489" 
d="M427 1177l1 -8q-28 1 -51 3q-30 0 -48 1q-48 39 -102 89q-69 65 -101 94l-94 87l-3 40q110 -6 207 -6q22 -29 92 -138l11 -18q49 -78 84 -122q1 -2 1.5 -5.5t0.5 -5.5q0 -5 2 -11z" />
    <glyph glyph-name="a" unicode="a" horiz-adv-x="1215" 
d="M128 311v-6q-5 -35 -5 -64q0 -105 58 -167q35 -38 98 -53q49 -12 119 -12h12q3 -1 10 -1q105 0 205 58q104 60 155 163h22q-1 -4 -1 -12v-11q0 -80 46 -137q48 -59 127 -59h12q26 -2 40 -2q40 0 77 6q-5 82 -5 139v31q-24 -2 -36 -2h-12q-60 0 -79 48q-10 28 -16 103
l-1 18q14 220 29 378q3 25 3 51q0 163 -122 239q-98 51 -242 51h-17q-148 0 -248 -45q-60 -26 -99 -87q-37 -57 -45 -120h3q1 -1 3 -1q5 0 15 -1.5t16 -2.5q12 -1 29 -5q66 -10 89 -12q7 42 27 75q25 41 68 62q56 24 136 24h19q120 -2 178 -67q36 -48 36 -135q0 -9 -2 -27
l-6 -88h-239q-166 0 -298 -65q-61 -35 -100 -97q-38 -60 -51 -125q-2 -6 -4 -20q0 -3 -2 -10.5t-2 -11.5zM792 589l-7 -88q-1 -2 -1 -8t-1 -8l-3 -18q-12 -55 -47 -91q-45 -45 -119 -81q-73 -36 -168 -38q-76 0 -119 17q-30 18 -44 92q1 2 1 8t1 8q0 5 2 17q13 59 49 100
q39 48 94 63q59 20 159 26q7 0 10 1h9h184z" />
    <glyph glyph-name="b" unicode="b" horiz-adv-x="1110" 
d="M1043 546v32q0 16 -1.5 48t-2.5 49q-1 48 -9 96q-15 105 -56 179q-34 62 -108 95q-67 30 -152 30h-8q-5 1 -13 1h-14q-91 0 -170 -47q-87 -52 -117 -138h-20q14 93 18 155q18 136 44 409q-3 0 -4 1h-4q-22 3 -72 7q-36 3 -74 9q-5 -151 -18 -305q-20 -231 -73 -624
q-23 -162 -42 -310l-5 -38q-14 -117 -26 -170q59 4 78 5q36 2 78 3q4 24 5 37l5 25q1 5 3 17q2 20 6 37q1 8 4 25t5 25q1 5 2 12l2 7q46 -97 135 -150q87 -52 193 -52h9q5 -1 14 -1h14q89 0 165 41q87 47 126 131q35 73 57 171q11 49 26 181q0 3 1 4q0 2 -1 3zM706 982h14
q56 0 104 -18q53 -21 77 -63q31 -50 43 -128q7 -45 7 -140q-2 -11 -7 -41q-2 -16 -8 -40q-28 -121 -75 -182q-34 -46 -89 -65q-48 -17 -104 -17h-6q-75 0 -131 24q-66 26 -98 88q-32 60 -32 158q0 34 3 69q6 67 14 104q20 88 63 152q39 52 105 78q56 21 120 21z" />
    <glyph glyph-name="c" unicode="c" horiz-adv-x="1060" 
d="M296 542v30q3 25 7 68q3 31 11 69q18 85 60 148q33 49 94 74q50 21 111 21h9q43 0 87 -11q86 -25 153 -155q13 8 43 24t44 24l37 22q-35 90 -111 149q-81 62 -243 64h-19q-96 0 -178 -32q-96 -37 -156 -117q-57 -89 -84 -211q-14 -72 -23 -167q-4 -41 -4 -92
q0 -197 79 -316q49 -61 140 -93q81 -29 178 -31q7 1 24 1h23h6q125 2 185 31q64 36 149 131q-55 55 -80 81q-38 38 -82 79q-16 -17 -36 -33q-26 -21 -98 -25q-9 -1 -28.5 -2t-29.5 -2h-9q-3 -1 -9 -1q-111 0 -192 59q-60 54 -60 178q0 12 1 18q0 11 1 17z" />
    <glyph glyph-name="d" unicode="d" horiz-adv-x="1163" 
d="M719 198h21q-2 -73 -5 -107v-23v-22q0 -14 1 -20q65 -4 127 -12l24 -3q1 36 1 107q0 52 3 106q29 577 148 1235q-55 -7 -102 -8l-61 -2q-50 -294 -86 -546l-18 -6q-30 87 -109 133q-77 45 -176 45h-15q-4 1 -11 1h-12q-88 0 -169 -49q-86 -52 -129 -142q-39 -85 -65 -196
q-9 -42 -24 -151q-2 -56 -2 -85q0 -205 65 -321q42 -54 117 -84q71 -30 152 -30h8q5 -1 15 -1h14q93 0 170 42q89 49 118 139zM420 307h-6q-127 0 -185 65q-35 45 -45 119q-7 50 -7 133q2 8 2 11q0 4 2 10q7 45 12 66q23 110 75 181q35 45 91 66q51 19 105 19h9
q70 0 125 -24q61 -27 96 -86q32 -68 32 -162q0 -36 -4 -67q-6 -74 -14 -112q-20 -91 -74 -150q-34 -38 -101 -56q-48 -13 -113 -13z" />
    <glyph glyph-name="e" unicode="e" horiz-adv-x="1119" 
d="M294 628h170q319 0 534 6v10q0 98 -17 169q-21 88 -73 148q-47 55 -128 83q-73 23 -163 25h-12q-102 0 -182 -28q-100 -34 -166 -113q-65 -88 -95 -223q-8 -40 -24 -166q-5 -55 -5 -100q0 -195 88 -304q53 -64 147 -95q82 -28 187 -30q120 8 189 22q106 22 182 72v45
q0 112 7 224l-35 -14q-61 -24 -76 -31q-48 -20 -71 -28q-36 -11 -112 -21q-180 7 -268 77q-44 35 -63 104q-15 51 -15 133q0 12 1 18v17zM887 722l-13 -13q-92 -2 -138 -2h-138h-142q-50 0 -142 2q13 99 85 184q75 86 204 86h13q134 0 196 -77q64 -76 75 -180z" />
    <glyph glyph-name="f" unicode="f" horiz-adv-x="681" 
d="M398 946l12 12q101 2 189 8l11 118q-66 -6 -102 -7q-19 -1 -52 -2.5t-48 -1.5l9 114q6 67 49 108q23 17 50 26q38 12 83 12h32h4q1 29 7 68l5 45h-34h-30q-11 0 -27 -0.5t-20 -0.5q-6 -1 -17 -1q-72 -6 -107 -15q-62 -15 -108 -51q-45 -40 -61 -111q-2 -8 -4 -24
q-1 -9 -3 -25l-15 -142q-90 7 -114 10l-7 -121q22 -1 48 -3q8 0 24 -1t24 -1h17q-35 -283 -71 -565q-28 -211 -46 -357h51q129 0 230 -18q-1 21 -1 62v61q0 292 14 611z" />
    <glyph glyph-name="g" unicode="g" horiz-adv-x="1192" 
d="M797 179l18 -5q-10 -27 -11 -31q-2 -7 -11 -32q0 -3 -1 -4t-1 -3q-28 -103 -80 -175q-68 -92 -158 -120q-207 11 -375 69q-2 -16 -6.5 -58t-7.5 -64t-7.5 -64t-6.5 -58q67 -38 170 -55q70 -11 187 -17q100 0 186 29q103 33 165 115q55 80 76 185q13 54 20 141
q48 567 132 1021q-27 -2 -77 -4q-12 0 -37.5 -1.5t-39.5 -2.5q-5 -15 -11 -41q-1 -2 -2 -8t-2 -8q-1 -3 -2.5 -8t-1.5 -6l-21 -105l-18 -4q-31 89 -117 143q-82 51 -186 51h-25q-84 0 -147 -21q-80 -26 -130 -83q-38 -48 -61 -105q-36 -89 -47 -189q-2 -14 -5.5 -40
t-4.5 -37v-3q-1 -1 -1 -4l-3 -23q0 -118 14 -219q17 -123 59 -200q37 -58 105 -89t149 -31h11q121 2 193 44q84 49 119 120zM558 957h19q117 0 191 -85q68 -80 68 -198q0 -30 -4 -55q-1 -22 -10 -63q-34 -155 -140 -229q-57 -39 -160 -41h-6q-69 0 -119 18q-57 21 -86 68
q-46 78 -46 208q0 9 2 27v29q9 67 15 95q22 101 74 158q74 68 202 68z" />
    <glyph glyph-name="h" unicode="h" horiz-adv-x="1123" 
d="M398 877l-19 2v10q1 5 2.5 13.5t1.5 12.5q2 18 4 26v22l18 155q25 193 36 338q-18 2 -83 7q-39 2 -82 9q-16 -642 -161 -1447q109 9 236 11q23 454 26 525l3 77q1 24 11 74q20 95 75 162q35 45 93 68q50 20 107 20h16q66 0 113 -24q53 -28 66 -84q10 -44 10 -91
q0 -22 -1 -33q0 -5 -1 -16t-1 -17v-7q-58 -417 -75 -658q141 -6 250 -20q-18 210 -18 469q0 119 3 238v22q0 83 -10 139q-15 75 -52 117q-34 42 -99 62q-52 16 -126 16h-8q-116 0 -192 -45q-82 -48 -143 -153z" />
    <glyph glyph-name="i" unicode="i" horiz-adv-x="454" 
d="M188 1470l-18 -203q71 -9 188 -9q1 16 1 46v45q0 25 2 95q-104 2 -173 26zM326 1066h-21q-72 0 -131 5q-12 -125 -37 -337q-6 -52 -19.5 -165t-20.5 -173q-29 -238 -54 -359q9 1 27 1h25q111 0 201 -24q0 247 18 753q4 99 7 150q4 94 5 149z" />
    <glyph glyph-name="j" unicode="j" horiz-adv-x="682" 
d="M613 1443h-36q-75 0 -142 14q-2 -18 -2 -29q-1 -10 -3 -28v-4q-1 -2 -1 -5q-10 -90 -19 -124q59 -10 127 -10q37 0 73 3v17q1 28 1 83q0 25 2 83zM432 -152l3 17q36 357 122 1028l20 160h-43q-62 0 -109 4q-37 -306 -63 -520q-7 -58 -29.5 -239.5t-34.5 -281.5
q-1 -3 -1 -8q0 -3 -2 -9q-2 -22 -7 -45q-12 -48 -38 -78q-42 -42 -107 -47q-3 -1 -15 -1h-14q-34 2 -57 2h-26q-4 -33 -11 -105q-3 -31 -13 -107q118 6 184 6q113 0 172 46q43 39 59 115q4 21 10 63z" />
    <glyph glyph-name="k" unicode="k" horiz-adv-x="1125" 
d="M1035 -10l12 17q-8 10 -140 170l-141 168l-184 219l512 519q-105 -3 -114 -3q-10 0 -29.5 -0.5t-29.5 -1.5q-20 -1 -55 -1l-242 -254l-108 -114q-36 -39 -108 -115q31 278 46 442q19 234 29 439q-68 3 -208 21q-14 -652 -157 -1492q10 0 32.5 1.5t34.5 2.5q93 6 142 7
q11 0 33 0.5t33 1.5v361l15 21q8 9 16 19q12 18 14 19l8 -15q151 -282 224 -406q216 -7 365 -26z" />
    <glyph glyph-name="l" unicode="l" horiz-adv-x="498" 
d="M67 136l-23 -101q45 3 91 3q123 0 211 -22q1 79 7 155q-23 4 -38 5q-8 1 -21 2.5t-17 1.5q7 132 20 303q4 50 11.5 151.5t10.5 152.5l3 46q31 434 37 540q-91 5 -153 23q-32 -409 -133 -1208z" />
    <glyph glyph-name="m" unicode="m" horiz-adv-x="1785" 
d="M727 31h216q14 202 52 505l11 86q7 54 11 77q23 104 84 177q67 79 187 81h5q113 0 156 -76q16 -36 16 -91q0 -57 -11 -109q-69 -373 -69 -640v-19q135 -5 241 -11q-42 194 -42 450q0 20 1 30v30q2 44 4 65q0 10 1.5 31.5t2.5 32.5q1 25 5 75q2 50 2 74q0 106 -25 180
q-27 46 -82 66q-48 18 -114 18h-17q-6 0 -8 1h-9q-93 0 -185 -58q-96 -60 -149 -160q-10 103 -86 163q-70 54 -169 54h-9q-3 -1 -10 -1h-18q-95 0 -159 -34q-40 -22 -77 -71q-35 -48 -61 -104q0 8 -1 15q-1 4 -1 11t-1 10t-1 10t-1 11q-1 6 -1 14q-1 11 -1 34l-3 33
q-3 11 -3 27q-1 3 -1 11q0 7 -1 9l-3 24q-5 0 -7 1h-6q-13 1 -35 2.5t-29 1.5q-45 2 -67 4q16 -86 16 -175v-22q0 -16 -1 -23q-4 -132 -22 -286q-34 -270 -115 -549l77 3q95 5 164 6q33 285 38 582q2 17 6 53q3 30 10 58q20 91 61 150q29 44 77.5 67t99.5 23h6
q113 -6 166 -49q35 -38 35 -106q0 -38 -14 -108q-71 -357 -94 -466q-9 -44 -21 -98q-17 -77 -22 -100z" />
    <glyph glyph-name="n" unicode="n" horiz-adv-x="1248" 
d="M1078 -10l13 13q-23 179 -23 419q0 74 3 144t3 142v22q0 18 1 33v32q0 66 -10.5 112t-42.5 88q-43 49 -115 68q-60 16 -142 16q-127 0 -210 -43q-72 -38 -128 -120q1 8 2.5 22.5t1.5 18.5l3 36q2 28 4 76q-21 1 -45 3l-48 3q-32 2 -49 4q-9 1 -24 2.5t-20 1.5l-3 -67
q4 -36 4 -63v-22q0 -352 -111 -861l-15 -73q130 10 287 12q0 13 1.5 43.5t2.5 48.5t2.5 48.5t1.5 43.5q16 318 20 466q0 25 7 58q19 81 59 134q29 41 76.5 61.5t97.5 20.5h10q89 -2 135 -22q64 -29 64 -142q0 -13 -2 -43q-2 -8 -2 -17q0 -7 -2 -21q-79 -452 -100 -681
q145 -5 293 -17z" />
    <glyph glyph-name="o" unicode="o" horiz-adv-x="1169" 
d="M547 11h17q99 0 179 28q103 36 163 109q65 91 95 225q15 72 24 168q5 68 5 126q0 181 -71 272q-52 68 -149 97q-80 24 -191 24h-8q-40 0 -92 -5q-105 -13 -184 -63q-43 -27 -80 -73t-59 -99q-33 -82 -47 -194q-12 -86 -12 -161q0 -99 16 -174q19 -92 64 -155
q50 -63 145 -96q83 -29 185 -29zM613 951h6q73 0 125 -19q61 -23 90 -73q41 -73 41 -196q0 -56 -4 -103q-3 -9 -3 -15q0 -5 -1.5 -17t-2.5 -18q-1 -12 -7 -38q-20 -84 -72 -127q-34 -20 -77 -30t-71.5 -11.5t-79.5 -1.5h-14q-130 0 -194 47q-54 48 -54 160q0 24 3 48
q9 101 18 143q21 91 65 156q42 53 109 76q54 19 123 19z" />
    <glyph glyph-name="p" unicode="p" horiz-adv-x="1157" 
d="M680 4h9q3 -1 11 -1h11q87 0 164 46q86 51 127 136q45 94 65 190q10 46 25 167q5 67 5 123q0 170 -56 276q-40 61 -114 91q-69 28 -155 28h-9q-5 1 -15 1h-14q-91 0 -173 -43q-92 -48 -127 -137h-22q1 6 4.5 29.5t5.5 37.5q2 13 5.5 35.5t4.5 30.5l5 34q-93 8 -156 17
q-22 -673 -157 -1464q38 3 177 10q8 70 35 286q18 149 33 286h22q27 -86 111 -134q76 -45 178 -45zM1020 614v-14q-4 -20 -6 -29q-4 -20 -5 -29l-11 -61q-19 -102 -80 -167q-73 -48 -204 -48h-14q-141 0 -208 48q-30 27 -44 78q-10 36 -10 93v29q0 20 1 29v13q6 93 16 132
q13 58 27 89q40 91 102 145q68 60 188 60q59 0 114 -29q55 -30 83 -75q51 -95 51 -264z" />
    <glyph glyph-name="q" unicode="q" horiz-adv-x="1120" 
d="M388 4h8q124 2 193 40q71 41 140 167l18 -2q-49 -360 -62 -607q66 -4 148 -14h4q1 -1 3 -1q6 352 51 739q38 333 109 744l-25 -2q-13 -1 -34.5 -2.5t-30.5 -1.5q-27 -1 -65 -3q-9 -43 -18 -74l-36 -162q-30 75 -54 115q-35 59 -76 81q-65 37 -196 43q-5 1 -15 1h-15
q-93 0 -168 -45q-87 -51 -125 -139q-29 -69 -46 -144q-16 -74 -24 -202q-4 -44 -4 -100q0 -200 67 -312q35 -58 107 -90q64 -29 146 -29zM459 953h18q80 0 140 -35q66 -39 93 -113q22 -61 22 -147q0 -47 -4 -84q-4 -25 -5 -41q-2 -17 -8 -41q-19 -92 -74 -147
q-46 -39 -108 -54q-51 -12 -113 -12q-127 0 -185 54q-46 52 -46 165q0 21 2 63l3 28q8 90 17 134q19 80 54 137q28 46 88 72q49 21 106 21z" />
    <glyph glyph-name="r" unicode="r" horiz-adv-x="757" 
d="M389 878l-16 1q0 5 1 8v7q1 18 9 159q-74 1 -152 16q-27 -478 -125 -1053q38 3 79 9q39 6 78 6q63 0 102 -3q-1 33 -1 98v98q0 185 5 418q2 19 5 33q16 79 74 153q34 44 82 74t98 35q22 2 35 2h15q9 0 14 -1q8 34 25 101q1 10 6 22q4 10 6 22h-14h-18q-22 -2 -30 -3
q-81 -12 -158 -68q-78 -58 -120 -134z" />
    <glyph glyph-name="s" unicode="s" horiz-adv-x="1103" 
d="M964 292v8q1 5 1 14v14q0 108 -60 177q-37 40 -91 66q-71 33 -191 64l-43 11q-107 32 -138 44q-30 14 -54 39q-24 26 -24 59v14q0 10 3 22q12 55 63 79q66 23 158 23q101 0 162 -35l24 -14q48 -30 75 -54q18 22 28 35q20 24 31 37q5 7 15 19t15 19q21 25 28 33
q-43 33 -87 59l-29 17q-31 14 -72.5 22.5t-67 10t-78.5 3.5h-16q-11 0 -16 1q-159 -2 -246 -32q-36 -14 -64 -34q-55 -41 -84 -103q-26 -58 -26 -116v-16q0 -73 28 -125q29 -57 93 -91q62 -34 204 -72l118 -32q81 -23 99 -65q11 -30 11 -63v-5q0 -15 -4 -24l-1 -7
q-8 -29 -40 -43q-33 -11 -108 -11h-18q-14 0 -20 -1q-116 17 -160 44q-41 31 -55 79q-66 -59 -123 -104l-96 -80q33 -84 118 -133q55 -32 141 -44q64 -10 155 -10q96 0 163 11q89 15 162 61q83 53 110 169q7 37 7 60z" />
    <glyph glyph-name="t" unicode="t" horiz-adv-x="625" 
d="M306 17h10q125 -7 206 -18q-10 70 -10 152q0 61 5 146l-27 3q-4 0 -13 1t-14 1q-37 2 -66 6q-62 14 -82 43q-17 31 -17 95v17l35 484q147 0 220 3l4 36q1 26 3 45q2 29 4 44q-49 -3 -147 -3h-72l7 106q4 61 7 94q4 59 5 94q-10 0 -15 1t-15 1q-30 2 -46 3q-22 0 -47 3
q-3 -44 -11 -150q-4 -40 -13 -149q-98 6 -134 12q-1 -13 -2.5 -34.5t-1.5 -30.5q0 -8 -1.5 -30.5t-2.5 -35.5q13 -1 43 -3q7 0 22 -0.5t22 -1.5h20q7 -1 19 -1q-21 -234 -76 -705q-4 -20 -4 -41q0 -78 51 -132q52 -55 134 -55z" />
    <glyph glyph-name="u" unicode="u" horiz-adv-x="1203" 
d="M350 1049v27q-17 -4 -44 -4q-31 0 -76 5q-14 3 -35 4q3 -71 3 -144q0 -264 -34 -573q-5 -52 -5 -91q0 -125 49 -184q37 -45 108 -63q50 -14 137 -14q119 0 197 41q79 42 143 150l16 -3q-17 -129 -21 -178l38 -2q34 -2 63 -3q41 -2 63 -5q4 467 126 1060q-25 -2 -80 -4
q-12 0 -39 -1.5t-43 -2.5q-21 -84 -55 -244q-3 -15 -45 -227l-3 -13q-19 -86 -32 -123q-23 -66 -62 -117q-33 -43 -87 -63q-46 -18 -101 -18h-5q-56 0 -99 14q-55 17 -77 58q-25 58 -25 135q0 17 2 51l1 16q22 296 22 516z" />
    <glyph glyph-name="v" unicode="v" horiz-adv-x="1133" 
d="M517 329l-98 295q-95 281 -161 443q-5 0 -7 1h-7q-114 7 -149 11q74 -230 170 -660q23 -101 45 -195q25 -114 46 -193q160 0 296 -7q166 556 420 1057l-35 -3q-61 -5 -138 -10q-139 -239 -382 -739z" />
    <glyph glyph-name="w" unicode="w" horiz-adv-x="1692" 
d="M327 27h35q86 2 125 2q27 0 39 1h38q134 212 232 374q109 -231 195 -378q173 -6 230 -19q8 47 23 118q111 528 350 947h-5q-1 -1 -5 -1q-70 -4 -190 -10q-148 -281 -315 -760q-93 143 -109 169q-56 87 -108 168h-99l-67 -83q-137 -172 -203 -250q-95 486 -188 755
q-5 0 -7 1h-8q-16 1 -43 2.5t-38 1.5q-55 2 -83 5q58 -175 106 -420q24 -128 68 -438z" />
    <glyph glyph-name="x" unicode="x" horiz-adv-x="1343" 
d="M1181 -10l12 17q-193 241 -400 541q241 317 428 530h-87q-24 -2 -70 -4q-12 0 -35.5 -0.5t-35.5 -1.5q-124 -160 -297 -407q-124 235 -231 412q-118 5 -252 17q108 -169 180 -286q73 -119 173 -292q-163 -198 -457 -519q194 10 321 11q83 121 242 370q91 -196 192 -372
q173 -5 317 -16z" />
    <glyph glyph-name="y" unicode="y" horiz-adv-x="1209" 
d="M270 -387h11q76 0 152 43t123 112q11 16 22.5 35t19.5 32.5t20 37.5t17 33.5t18.5 38t16.5 35.5l15 33q100 231 161.5 369.5t155.5 337t181 360.5q-47 -6 -66 -7q-44 -4 -67 -6q-155 -237 -367 -592l-13 -21q-165 325 -321 610l-30 2q-25 1 -58 5q-39 5 -57 8
q226 -547 364 -910q-1 -4 -1 -13q-1 -3 -1.5 -9t-0.5 -9q-3 -26 -15 -67q-28 -98 -127 -159q-89 -53 -192 -55q-5 -1 -17 -1h-18h-17q-7 0 -17 2q0 -7 -1 -9q-16 -163 -26 -232q52 -5 102 -5q11 0 17 1h16z" />
    <glyph glyph-name="z" unicode="z" horiz-adv-x="1103" 
d="M207 1038l-2 33q206 -21 444 -21q168 0 315 7q-4 -27 -6 -50q-1 -13 -7 -50q-163 -190 -331 -402l-13 -17q-176 -221 -249 -308q45 0 72 1h72q231 0 407 -9v-44q-1 -15 -1 -43q0 -67 4 -124q-216 19 -448 19q-164 0 -367 -10q6 42 9 64q5 37 12 73q3 21 10 72
q27 30 143 160q46 53 140 161l15 17q188 216 346 389h-73q-28 -1 -74 -1q-229 0 -416 15q0 18 -2 68z" />
    <glyph glyph-name="braceleft" unicode="{" horiz-adv-x="755" 
d="M42 459h4q76 0 128 -50q49 -49 49 -124q0 -17 -3 -35q-15 -166 -27 -333q-4 -20 -4 -45q0 -104 70 -174q70 -74 176 -75q52 -4 132 -20q0 12 0.5 36.5t1.5 36.5q0 23 2 73q-14 2 -22 3q-12 2 -21 3l-25 4q-67 0 -105 57q-33 50 -33 121v12q0 8 1 12q9 100 14 165
q3 64 11 165v16q0 70 -36 130t-99 90q80 43 109 80q41 50 56 115q3 12 5 38l23 333q0 3 1 4q1 21 8 51q9 45 30 79q40 57 126 57q7 0 29 2h18q14 2 21 2l12 137q-47 -3 -141 -3h-8q-126 0 -199 -71q-39 -46 -55 -121q-8 -32 -10 -80q-2 -28 -5.5 -84.5t-4.5 -85.5
q-8 -111 -11 -172q0 -4 -1 -11t-1 -11q-2 -16 -4 -25q-13 -66 -66 -119q-54 -42 -135 -44q-1 -13 -3 -35q-5 -53 -5 -69q-1 -13 -3 -35z" />
    <glyph glyph-name="bar" unicode="|" horiz-adv-x="545" 
d="M373 586l13 11l39 309q41 322 66 549h-17q-118 0 -201 46q-31 -312 -97 -907q58 -5 144 -7h27q17 0 26 -1zM173 454l-12 -11l-47 -363q-61 -464 -64 -492h15q112 0 206 -41q30 285 112 904h-38q-26 0 -37 1q-72 2 -109 2h-26z" />
    <glyph glyph-name="braceright" unicode="}" horiz-adv-x="753" 
d="M315 129l-11 -164q-1 -18 -7 -52q-12 -48 -36 -89q-36 -50 -122 -52q-13 -1 -33 -1q-8 0 -34 -2l-11 -136q70 2 103 2h44q123 0 196 73q23 26 37 58q24 59 29 139q2 29 5.5 85t4.5 85q3 53 11 170q0 23 6 49q15 70 70 122q55 41 135 43l8 138q-77 0 -128 51
q-52 52 -52 125q0 15 3 32q1 27 5 83q4 50 14 166q4 42 6 84q5 32 5 53q0 102 -69 173q-70 69 -177 70q-69 8 -129 22v-95q0 -19 -1 -26t-1 -26l66 -11q65 -1 102 -55q32 -47 32 -117q0 -10 -2 -32l-8 -140q-1 -34 -5 -95q-3 -31 -7 -95q-1 -4 -1 -12v-13q0 -80 38 -132
q42 -50 96 -76q-66 -30 -110 -85q-44 -54 -56 -112q-2 -14 -2 -20q-1 -4 -1 -11t-1 -10q-5 -42 -6 -82q-4 -54 -6 -82z" />
    <glyph glyph-name="asciitilde" unicode="~" horiz-adv-x="1183" 
d="M829 567h15q67 0 115 17q49 16 91 51v10q0 27 7 69q5 23 13 45q-139 -79 -229 -79h-9q-54 1 -101 15l-9 3q-6 2 -8 3q-6 1 -16.5 5t-15.5 5q-11 3 -33 13q-114 41 -185 56q-65 13 -106 13h-20q-132 0 -212 -73q0 -45 -8 -76q-7 -30 -12 -42q133 76 231 76h10
q93 -4 202 -44q170 -64 280 -67z" />
    <glyph glyph-name="exclamdown" unicode="&#xa1;" horiz-adv-x="458" 
d="M379 1054l-12 -9q-117 0 -188 23q-2 -22 -2 -31q0 -21 -1 -32q-1 -36 -3 -76q-2 -50 -4 -77q79 -12 158 -12q14 0 18 1h18q2 18 4.5 54t3.5 53q2 38 8 106zM82 -279h15q102 0 186 -21q6 345 34 823q1 31 5 77q0 10 1.5 35.5t2.5 40.5h-22q-7 -1 -23 -1q-44 0 -109 5
q-1 -126 -19 -275q-33 -268 -52 -484q-12 -134 -19 -200z" />
    <glyph glyph-name="cent" unicode="&#xa2;" horiz-adv-x="1010" 
d="M514 368h-8q-113 0 -165 96q-43 75 -43 202q0 40 5 85q6 62 13 91q18 83 60 144q29 42 86 65q48 18 99 18h17q77 0 129 -52q49 -53 51 -128q56 4 121 12q3 0 4 1h3q7 1 18 2.5t12 1.5q10 1 29 3q-6 126 -87 210q-81 85 -211 95l10 145h-26h-42q-28 0 -41 1q-7 0 -12 1
h-16l-7 -146q-46 -1 -97 -17q-102 -32 -173 -111q-69 -74 -106 -243q-13 -59 -22 -154q-9 -52 -9 -107q0 -172 80 -284q91 -127 255 -133q0 -7 -1.5 -26t-2.5 -31t-2.5 -32t-1.5 -26l-2 -44q25 -1 69 -1q18 0 68 -2v13q0 7 1 12q0 80 4 133q135 9 224 90q91 85 119 241
q-74 30 -176 67q-11 -74 -71 -133q-62 -60 -135 -60h-10q-7 0 -10 1z" />
    <glyph glyph-name="sterling" unicode="&#xa3;" horiz-adv-x="1220" 
d="M273 234l1 -16q120 5 287 5q63 0 94 -1t92 -1q83 0 130 33q58 48 79 128q28 -14 69 -38q5 -3 16 -10t17 -10q3 -2 14 -9t17 -10l-7 -38q-19 -104 -81 -162q-78 -73 -204 -73h-23q-66 0 -134 3q-90 2 -136 2q-217 0 -422 -16l8 59q2 13 5.5 36.5t4.5 30.5q3 21 9 67
q73 38 127 113q49 71 66 150q8 36 9 69l4 40q1 4 1.5 12.5t0.5 12.5q2 18 3 25q-28 -1 -87 -1h-87q4 38 5 55q1 15 5 54h171q11 127 18 284q7 77 12 102q22 102 82 164q65 59 144 80q64 17 146 17h20q127 0 213 -43q101 -52 122 -155l-28 -7q-83 -21 -123 -30q-18 59 -72 96
q-52 35 -120 35h-7q-105 0 -167 -54q-48 -53 -63 -123q-7 -39 -8 -63l-20 -305h384l-8 -105h-383l-7 -74q-7 -59 -10 -71q-25 -121 -103 -201q-33 -35 -76 -57z" />
    <glyph glyph-name="currency" unicode="&#xa4;" horiz-adv-x="1176" 
d="M243 1093l-15 -15q-12 -15 -39 -42q11 -11 20 -23q6 -8 20 -24q15 -19 52 -56q-29 -43 -49 -90q-32 -75 -39 -159q-2 -30 -2 -38q0 -112 53 -209q-69 -66 -110 -100q3 -3 8.5 -10t7.5 -9q13 -18 34 -44q10 -13 22 -24l116 105q103 -79 244 -79h5q134 0 242 75
q21 -24 94 -97l7 -6l77 83q-11 11 -18 21q-9 10 -19 19q-14 14 -29 32q-20 22 -29 31q63 86 84 183q1 7 9 66q1 6 1 18v18q0 112 -54 211l106 96l-75 84l-108 -96q-114 79 -237 79h-13q-131 0 -243 -78l-100 102q-19 -19 -23 -24zM573 407h-8q-117 0 -185 79q-64 73 -64 172
v13q0 8 1 13q2 21 6 43q20 93 87 157q89 81 197 81h7q117 0 187 -81q63 -71 63 -177v-10q0 -8 -1 -11q0 -7 -2 -21q-1 -3 -2 -11t-2 -11q-20 -95 -87 -157q-83 -79 -197 -79z" />
    <glyph glyph-name="yen" unicode="&#xa5;" horiz-adv-x="1236" 
d="M718 699l-6 14q290 437 475 681q-24 -3 -30 -3q-66 -5 -148 -10q-144 -201 -429 -641q-178 369 -330 643q-88 4 -165 14q165 -297 372 -698h-170h-70q-21 -1 -70 -1l-7 -72q-2 -14 -2 -15q0 -8 -1 -15q37 0 56 1h55q39 0 61 1q21 0 65 0.5t65 0.5h59l-14 -168
q-198 0 -362 -4l-4 -38q-2 -26 -2 -32q-3 -25 -4 -33q173 5 308 5h58l-4 -74l-6 -108q-5 -56 -6 -110q27 -1 78 -1q22 0 78 -2q2 152 9 293q286 -7 362 -12v14q1 17 1 46q0 13 2 47q-200 7 -360 8l4 64q0 5 1.5 23l2.5 30q1 11 2.5 29t1.5 23q180 0 358 -3q2 35 6 63l2 41
h-71q-23 -1 -71 -1h-150z" />
    <glyph glyph-name="brokenbar" unicode="&#xa6;" horiz-adv-x="381" 
d="M135 708l13 187q27 341 40 573q59 -24 136 -31q-23 -348 -52 -731h-73q-20 0 -64 2zM134 699l-8 9h9zM108 339h28h54q36 0 53 -1q-37 -494 -49 -757q-69 24 -138 28q23 372 52 730z" />
    <glyph glyph-name="section" unicode="&#xa7;" horiz-adv-x="1135" 
d="M642 1442h-30q-148 0 -248 -43q-47 -20 -80 -66q-27 -39 -39 -94q-4 -17 -6 -51v-8q0 -85 59 -155q55 -66 150 -99q-135 -34 -194 -102q-45 -50 -59 -119q-1 -5 -3 -17q0 -3 -0.5 -8.5t-1.5 -8.5q-2 -18 -2 -27q0 -110 104 -182q77 -54 211 -82l18 -5q22 -6 92 -26
q89 -28 137 -65q67 -54 67 -132v-8q0 -43 -29 -83q-35 -46 -83 -62q-63 -22 -178 -24q-50 2 -76.5 4t-66 11t-67.5 24q-62 34 -77 122q-7 -2 -20.5 -5t-19.5 -5q-8 -2 -21 -5.5t-19 -4.5l-59 -14q8 -56 38 -102.5t77 -72.5q63 -34 147 -47q71 -12 162 -12q106 0 160 8
q91 13 156 56q80 50 102 154q2 10 4 30q1 5 1 15t1 15q0 6 1 9v8q0 85 -63 156q-57 64 -150 105q122 23 184 95q43 54 61 126q3 13 5 39q1 4 1 12v12q0 66 -35.5 117t-95.5 82q-64 33 -206 70l-30 8q-98 26 -145 49q-51 25 -79 64q-28 34 -28 86q0 41 31 78q29 37 79 54
q63 19 156 19h5q92 0 154 -29q75 -36 82 -113q70 10 138 22q-15 118 -132 178q-98 49 -240 49zM560 879h12q159 -40 225 -91q61 -47 61 -111q0 -11 -1 -14q0 -86 -84 -142q-74 -51 -163 -51h-9q-6 0 -9 1q-116 31 -172 58q-25 12 -43 27q-58 43 -58 114v10q0 19 4 31
q16 74 91 122q70 46 146 46z" />
    <glyph glyph-name="dieresis" unicode="&#xa8;" horiz-adv-x="849" 
d="M156 1230q42 0 154 2q11 63 11 121v19q0 12 -1 18q-31 0 -101 2q-10 0 -16 1h-21q7 -33 7 -60q0 -29 -6 -56q-9 -39 -27 -47zM591 1231h12h46q27 0 45 -1q-8 30 -8 58t6 55q7 30 15 48q-16 -1 -48 -1h-48h-22q-5 -1 -22 -1q-13 -63 -13 -115q0 -25 3 -49q10 6 34 6z" />
    <glyph glyph-name="copyright" unicode="&#xa9;" horiz-adv-x="1596" 
d="M756 21h19q183 0 334 83q156 85 247 247q66 117 93 245q13 57 17 110q3 34 3 68q0 154 -55 280q-70 155 -223 245q-155 92 -348 92h-17q-182 0 -339 -86q-73 -41 -139 -106q-67 -68 -108 -139q-65 -109 -93 -240q-5 -22 -10 -56q-9 -67 -9 -127q0 -147 53 -274
q63 -154 221 -249q160 -93 354 -93zM832 1327h11q85 0 163 -21q155 -42 261 -155q136 -146 136 -379v-27q0 -10 -2 -28q-5 -55 -14 -96q-27 -126 -85 -219q-45 -73 -100 -117q-65 -54 -134 -71q-132 -42 -308 -42q-165 0 -307 43q-69 21 -122 69.5t-83 115.5
q-51 115 -51 255q0 20 2 58q5 56 14 97q23 110 83 215q87 144 229 223q145 79 307 79zM791 386h-20q-106 0 -170 82q-58 75 -58 185q0 28 4 53q7 56 11 79q21 98 82 165q68 73 188 73h5q69 0 124 -35t79 -94l90 26q-30 83 -108 134q-77 50 -174 50h-24q-85 0 -156 -30
q-85 -36 -141 -110q-44 -66 -62 -155q-10 -44 -15 -101q-1 -6 -1 -18v-20q0 -165 71 -260q44 -50 114 -77t148 -27h4q4 -1 12 -1h12q89 0 173 57q84 55 128 141q-21 5 -59 19l-28 9q-31 -60 -97 -103q-66 -42 -132 -42z" />
    <glyph glyph-name="ordfeminine" unicode="&#xaa;" horiz-adv-x="906" 
d="M312 675h12q75 0 139 35q72 38 105 108h21v-4q0 -63 43 -101q43 -40 102 -40h11q23 0 56 5q-2 22 -2 34v33v19q-2 0 -5 -1q-4 -1 -5 -1q-8 0 -22 -2q-38 0 -55 32q-13 25 -13 65q0 7 1 10v10q7 134 22 300q4 17 4 43q0 88 -73 141q-66 48 -165 48h-12q-9 0 -13 -1h-11
q-119 0 -195 -57q-55 -41 -76 -136q91 -11 117 -13q16 67 62 104q38 23 103 23q84 0 125 -48q19 -30 19 -88v-21l-2 -23q-2 -12 -2 -21q0 -16 -1 -25q-24 0 -39 -1t-40 -1h-23q-26 0 -39 -1t-40 -1q-131 0 -224 -66q-62 -57 -77 -161q-5 -25 -5 -42q0 -68 50 -113
q49 -44 121 -44q4 0 26 2zM596 1035l-5 -72q-5 -79 -73 -141q-66 -57 -160 -59q-3 -1 -14 -1q-45 0 -74 29.5t-29 72.5q0 6 2 22q6 69 54 102q45 33 141 41l20 6h138z" />
    <glyph glyph-name="guillemotleft" unicode="&#xab;" horiz-adv-x="1166" 
d="M308 617l-83 -85q162 -210 290 -362v-5q-1 -1 -1 -4v-4q-11 0 -16 1h-15q-15 1 -45 1h-45h-33q-141 174 -270 351l2 30q0 14 3 26q120 129 326 344q62 -3 152 -5v-14q-56 -64 -100 -110l-60 -60l-41 -41q-17 -16 -64 -63zM1039 904v-1q0 -1 1 -1v-2l-2 -10
q-135 -119 -351 -339l-26 -26l51 -63q43 -54 129 -160q60 -76 134 -156v-11l-39 3q-10 1 -28 2.5t-27 1.5l-55 4q-126 136 -302 357q0 8 1 11q2 14 2 16l3 26q140 145 358 347q27 1 77 1q25 0 75 2zM976 130l-1 -3v8q3 0 8 -0.5t7 -0.5l-13 -10v3q-1 1 -1 3z" />
    <glyph glyph-name="logicalnot" unicode="&#xac;" horiz-adv-x="1165" 
d="M257 529l-206 -22q2 26 2 38v37q0 91 -13 173q225 -12 498 -12q184 0 472 9q-18 -71 -23 -98q-33 -156 -33 -293q0 -91 15 -176q-101 4 -140 5q-63 2 -132 3q43 181 131 400q-16 -2 -64.5 -7.5t-75.5 -8.5q-25 -3 -73 -8.5t-73 -7.5q-154 -19 -285 -32zM695 183l-7 10h9
q-1 -1 -1 -4.5t-1 -5.5z" />
    <glyph glyph-name="registered" unicode="&#xae;" horiz-adv-x="1596" 
d="M826 1391h17q193 0 348 -92q153 -90 223 -245q55 -126 55 -280q0 -33 -3 -68q-4 -53 -17 -110q-27 -128 -93 -245q-91 -162 -247 -247q-151 -83 -334 -83h-19q-194 0 -354 93q-158 95 -221 249q-53 127 -53 274q0 60 9 127q5 34 10 56q28 131 93 240q41 71 108 139
q66 65 139 106q157 86 339 86zM843 1327h-11q-162 0 -307 -79q-142 -79 -229 -223q-60 -105 -83 -215q-9 -41 -14 -97q-2 -38 -2 -58q0 -141 52 -255q65 -142 205 -188q138 -45 305 -45q178 0 309 44q68 18 134 73q56 46 100 118q58 93 85 219q9 41 14 96q2 18 2 28v27
q0 233 -136 379q-106 113 -261 155q-78 21 -163 21zM730 1091h114q4 1 12 1h11q93 0 160 -47q71 -53 71 -137q0 -16 -3 -34q0 -55 -28 -104q-37 -64 -102 -98q-33 -18 -71 -24q65 -123 156 -282q8 -12 15 -27q5 -10 15 -28q-15 0 -22 1h-19q-78 2 -117 2l-13 34
q-17 44 -106 289h-169l-27 -322q-19 -1 -51 -1h-51q41 402 57 779q58 -2 85 -2h83zM638 709h180q62 0 111 32q66 58 68 133q2 14 2 20q0 56 -48 92q-45 31 -108 31h-11q-7 -1 -21 -1h-20h-20q-13 0 -19 1q-29 0 -46 1h-46q0 -5 -1.5 -22.5t-2.5 -28.5q-4 -40 -5 -52
q-4 -83 -13 -206z" />
    <glyph glyph-name="macron" unicode="&#xaf;" horiz-adv-x="1373" 
d="M538 1534h-230h-112q-76 0 -117 1q11 -17 11 -40q-5 -22 -20 -33q374 2 556 2q377 0 573 -21q-15 8 -25 21q-12 12 -12 40q6 22 19 32q-422 -2 -643 -2z" />
    <glyph glyph-name="degree" unicode="&#xb0;" horiz-adv-x="765" 
d="M367 881h11q107 0 178 72q59 54 78 145q0 3 1.5 11t2.5 12q2 16 3 23q1 5 1 15v14q0 97 -57 160q-69 75 -186 75h-10q-48 0 -97 -19t-85 -54q-57 -60 -75 -144q-2 -6 -4 -22q-4 -32 -4 -38v-15q0 -100 58 -159q64 -76 185 -76zM371 962h-4q-76 0 -122 52q-41 44 -41 112
q0 6 1 9v8q7 74 59 129q54 54 132 54q80 0 124 -50q40 -44 40 -113v-9q-1 -3 -1 -9q-7 -81 -61 -130q-50 -53 -127 -53z" />
    <glyph glyph-name="plusminus" unicode="&#xb1;" horiz-adv-x="1088" 
d="M651 935l-9 -130q235 0 401 5l-13 -121q-133 -3 -387 -3l-12 -11q-14 -157 -26 -367h-119l29 378q-224 0 -396 4l4 51q2 26 2 37q0 10 2 36q132 -7 397 -9q4 65 10 191q1 31 3.5 94.5t4.5 96.5q90 -2 126 -2q-2 -22 -4.5 -63.5t-3.5 -61.5q-5 -72 -9 -125zM40 20l7 47
q2 17 6 38q4 19 6 37q214 11 455 11q282 0 491 -14q0 -56 5 -128q-252 22 -525 22q-203 0 -445 -13z" />
    <glyph glyph-name="twosuperior" unicode="&#xb2;" horiz-adv-x="825" 
d="M509 914l-23 -16l-2 -2q-2 -1 -4 -3q-13 -10 -40.5 -29.5t-33.5 -24.5q-76 -55 -117 -102q-24 -27 -42 -60q86 2 138 2q159 0 296 -10q-2 -22 -2 -30q0 -16 2 -42l3 -22q-132 14 -317 14q-122 0 -261 -8l12 90q41 72 122 145q59 53 153 118q83 57 126 102q63 65 73 135
q1 3 1 9v8q0 52 -39 88q-38 35 -92 35h-8q-2 1 -6 1h-7q-51 0 -101 -40q-51 -42 -61 -94l-103 12q22 103 87 150q70 54 185 54h32q95 0 157 -46q69 -51 69 -133q0 -17 -3 -33q-10 -79 -67 -150q-51 -64 -127 -118zM105 571l-9 9q7 0 10 1z" />
    <glyph glyph-name="threesuperior" unicode="&#xb3;" horiz-adv-x="804" 
d="M375 577h13q126 0 205 59q26 21 39 49q25 51 25 110q2 6 2 10v10q0 68 -47 120q-45 48 -120 53l3 20q64 11 111 56q48 45 60 102q3 12 3 30q2 16 2 24q0 79 -53 120q-69 54 -193 54q-125 0 -207 -56q-59 -50 -73 -139q22 -4 33 -5q6 -1 16 -2.5t15 -1.5q18 -2 21 -2
q6 -2 19 -3q7 51 56 90q44 36 99 36q12 0 15 -1h9q54 0 92 -32q39 -32 39 -83v-8q0 -6 -1 -11q0 -59 -57 -102q-51 -39 -113 -39h-8q-5 0 -8 1h-42q-2 -28 -3 -41q-1 -14 -3 -44h56q67 0 117 -32q55 -36 55 -96v-6q-1 -2 -1 -7q-8 -47 -21.5 -74t-39.5 -51q-47 -27 -106 -27
h-20q-64 0 -110 32q-51 35 -52 95l-27 -3q-20 -1 -54 -6l-10 -2q-10 -1 -17 -2v-10q0 -92 80 -142q70 -44 175 -44h13q8 0 13 1z" />
    <glyph glyph-name="acute" unicode="&#xb4;" horiz-adv-x="488" 
d="M56 1218q-8 -3 -8 -5t9 -2q10 0 43 3q12 0 36 2q38 28 92 61q46 29 90 63q15 13 47 34q25 15 52 36q58 45 59 88q-107 -5 -194 -5q-21 -24 -37 -46q-24 -32 -37 -47q-108 -134 -152 -182z" />
    <glyph glyph-name="uni00B5" unicode="&#xb5;" horiz-adv-x="1173" 
d="M577 217h-11q-90 0 -142 81q-45 68 -45 168v14q0 9 1 14q22 280 24 561q-68 3 -156 16q1 -17 1 -53v-54q0 -619 -116 -1362q105 7 172 8q0 6 1.5 23t2.5 27q1 9 2.5 25.5t1.5 23.5q10 90 10 93q1 14 4.5 48.5t5.5 53.5q11 106 17 192q69 -91 201 -93h13q79 0 158 53
q75 51 118 130l18 -2q-1 -4 -1 -11v-12q0 -68 41 -115q43 -50 109 -50h23q40 0 81 12q1 4 1.5 13.5t0.5 14.5q0 23 1 34q0 44 9 50q-3 0 -11 -2t-11 -2q-14 -2 -22 -2h-6q-40 4 -58 39q-13 24 -13 73q0 16 2 40q30 423 78 783q-53 -3 -161 -5l-17 -175q-4 -52 -7 -76
q-3 -27 -7 -83q-3 -28 -7 -82q-4 -40 -6 -76q-3 -37 -12 -77q-21 -106 -89 -179q-34 -39 -94 -59q-55 -20 -105 -20z" />
    <glyph glyph-name="paragraph" unicode="&#xb6;" horiz-adv-x="1094" 
d="M904 1280l12 12h12q7 0 12 1q1 8 2.5 21t1.5 18q2 20 3 40q-106 -6 -263 -6q-132 0 -235 4q-9 0 -15 1h-17q-145 0 -228 -74q-59 -54 -80 -153q-5 -21 -12 -96v-21q0 -153 76 -239q77 -90 211 -90h4q-17 -147 -39 -311q-33 -245 -41 -311l-41 -300q14 1 41 1h40h56
q34 0 55 -1q15 355 55 832q33 429 46 680q17 -1 56 -1h57h42q28 0 41 1q-12 -169 -31 -383q-22 -267 -32 -394.5t-22.5 -347.5t-14.5 -393q147 -8 256 -22q-27 304 -27 682q0 272 15 731z" />
    <glyph glyph-name="periodcentered" unicode="&#xb7;" horiz-adv-x="456" 
d="M153 654v-17q0 -95 -26 -179q56 2 86 2h39h27q8 0 30 -2v15q-1 5 -1 15q0 60 15 165q-15 -1 -44 -1h-44h-34h-22q-8 0 -26 2z" />
    <glyph glyph-name="cedilla" unicode="&#xb8;" horiz-adv-x="514" 
d="M430 -248v17q0 55 -51 88q-46 28 -113 28h-8q14 32 21 49q14 32 22 48h-13q-13 1 -35 1q-11 -1 -36 1q-7 -20 -23 -62t-23 -62q-1 -3 -2.5 -6.5t-3 -6t-1.5 -3.5t-7 -16h15h13q8 0 13 1q52 0 84 -14q43 -20 43 -62v-8q-4 -52 -59 -73q-37 -15 -97 -17h-11q-19 0 -45 2
q-3 0 -5 1h-11q-4 -26 -5 -38q-2 -13 -8 -39h40q12 0 40 2h7q117 6 181 35q48 23 73 98q5 15 5 36z" />
    <glyph glyph-name="onesuperior" unicode="&#xb9;" horiz-adv-x="697" 
d="M620 663l4 -88q-127 14 -304 14q-96 0 -231 -7l12 85q104 5 208 6l12 146q22 290 31 477l-102 -67q-38 -24 -93 -61v99l198 115h110q-6 -86 -9 -128q-8 -84 -11 -127l-3 -42q-19 -232 -28 -413q107 -2 206 -9zM88 572l-9 9q7 0 10 1z" />
    <glyph glyph-name="ordmasculine" unicode="&#xba;" horiz-adv-x="904" 
d="M768 1038v4q2 42 2 65q0 128 -48 208q-41 51 -107 72q-61 20 -138 20h-12q-75 0 -133 -21q-72 -26 -122 -89q-38 -58 -57 -141q-7 -32 -15 -96v-4l-2 -13q-2 -38 -2 -66q0 -122 45 -206q35 -53 105 -79q60 -23 138 -23h16q72 0 130 21q71 26 121 84q46 67 64 152
q5 26 15 112zM469 1325h9q106 0 143 -67q29 -54 29 -151q0 -19 -1 -24q-1 -12 -7 -28q-3 -7 -6 -24q-12 -57 -38 -108q-28 -43 -75 -63q-40 -18 -87 -18h-8h-7q-3 -1 -8 -1q-85 0 -125 68q-35 56 -35 148q0 12 2 24q2 13 10 33q3 8 6 26q14 63 46 118q22 33 69 52
q37 15 83 15z" />
    <glyph glyph-name="guillemotright" unicode="&#xbb;" horiz-adv-x="1166" 
d="M191 921l1 7q81 -7 148 -11q149 -172 295 -362q-2 -18 -1 -27q0 -9 -2 -27q-220 -218 -356 -341h-154l2 9q178 164 377 363q-239 298 -309 383zM642 906l12 10q0 -7 -1 -9v-1h-11zM805 904l271 -356l-5 -29q-3 -16 -3 -28l-326 -338q-23 0 -79 2l-74 3v4v6q-1 1 -1 5
q118 116 350 351l-91 118q-87 115 -195 248q1 2 1 8v8h10q8 -1 20 -1q15 -1 45 -1h44h33z" />
    <glyph glyph-name="onequarter" unicode="&#xbc;" horiz-adv-x="1758" 
d="M838 692l46 67q266 387 441 625q65 6 122 13q-196 -270 -483 -691q-310 -451 -478 -680q-82 -6 -124 -13q112 151 241 338q28 40 109 158t126 183zM731 663l4 -88q-127 14 -304 14q-96 0 -231 -7l12 85q104 5 208 6l12 146q22 290 31 477l-102 -67q-38 -24 -93 -61v99
l198 115h110q-6 -86 -9 -128q-8 -84 -11 -127l-3 -42q-19 -232 -28 -413q107 -2 206 -9zM1313 823h27h41q28 0 40 1q10 0 15 1h14q-34 -290 -49 -537q62 -2 103 -2q-1 -9 -1 -24v-25q-1 -3 -1 -10v-11v-22q-22 2 -29 2q-18 0 -29 1l-45 3l-3 -22q-2 -78 -2 -127v-29
q-11 0 -15 1q-5 1 -15 1q-33 4 -79 4q2 58 4 87q0 14 1.5 42.5t2.5 43.5q-32 0 -50 1h-50q-133 0 -287 -8q1 8 4 33q2 16 3 32l4 32l108 145q131 177 143 194q47 65 145 193zM1299 289l13 183q2 28 6 86t7 87q0 1 0.5 2.5t1 4.5t0.5 5q0 9 2 31q1 2 2 7.5t1 8.5l-18 4
q-70 -107 -88 -129l-221 -292q130 2 211 2h83z" />
    <glyph glyph-name="onehalf" unicode="&#xbd;" horiz-adv-x="1797" 
d="M745 692l46 67q266 387 441 625q65 6 122 13q-196 -270 -483 -691q-310 -451 -478 -680q-82 -6 -124 -13q112 151 241 338q28 40 109 158t126 183zM638 663l4 -88q-127 14 -304 14q-96 0 -231 -7l12 85q104 5 208 6l12 146q22 290 31 477l-102 -67q-38 -24 -93 -61v99
l198 115h110q-6 -86 -9 -128q-8 -84 -11 -127l-3 -42q-19 -232 -28 -413q107 -2 206 -9zM1464 355l-23 -16l-2 -1l-4 -4q-13 -10 -40.5 -29.5t-33.5 -24.5q-76 -55 -117 -102q-24 -27 -42 -60q86 2 138 2q159 0 296 -10q-2 -22 -2 -30q0 -16 2 -42l3 -22q-132 14 -317 14
q-122 0 -261 -8l12 90q41 72 122 145q59 53 153 118q83 57 126 102q63 65 73 135q1 3 1 9v8q0 52 -39 88q-38 35 -92 35h-8q-2 1 -6 1h-7q-51 0 -101 -40q-51 -42 -61 -94l-103 12q22 103 87 150q70 54 185 54h32q95 0 157 -46q69 -51 69 -133q0 -16 -3 -33
q-10 -79 -67 -150q-51 -64 -127 -118z" />
    <glyph glyph-name="threequarters" unicode="&#xbe;" horiz-adv-x="1741" 
d="M860 692l46 67q266 387 441 625q65 6 122 13q-196 -270 -483 -691q-310 -451 -478 -680q-82 -6 -124 -13q112 151 241 338q28 40 109 158t126 183zM466 577h-13q-5 -1 -13 -1h-13q-105 0 -175 44q-80 50 -80 142v10q7 1 17 2l10 2q34 5 54 6l27 3q1 -60 52 -95
q46 -32 110 -32h20q59 0 106 27q26 24 39.5 51t21.5 74q0 5 1 7v6q0 60 -55 96q-50 32 -117 32h-56q2 30 3 44q1 13 3 41h42q3 -1 8 -1h8q62 0 113 39q57 43 57 102q1 5 1 11v8q0 51 -39 83q-38 32 -92 32h-9q-3 1 -15 1q-55 0 -99 -36q-49 -39 -56 -90q-13 1 -19 3
q-3 0 -21 2q-5 0 -15 1.5t-16 2.5q-11 1 -33 5q14 89 73 139q82 56 207 56q124 0 193 -54q53 -41 53 -120q0 -8 -2 -24q0 -18 -3 -30q-12 -57 -60 -102q-47 -45 -111 -56l-3 -20q75 -5 120 -53q47 -52 47 -120v-10q0 -4 -2 -10q0 -59 -25 -110q-13 -28 -39 -49
q-79 -59 -205 -59zM1315 823h27h41q28 0 40 1q10 0 15 1h14q-34 -290 -49 -537q62 -2 103 -2q-1 -9 -1 -24v-25q-1 -3 -1 -10v-11v-22q-22 2 -29 2q-18 0 -29 1l-45 3l-3 -22q-2 -78 -2 -127v-29q-11 0 -15 1q-5 1 -15 1q-33 4 -79 4q2 58 4 87q0 14 1.5 42.5t2.5 43.5
q-32 0 -50 1h-50q-133 0 -287 -8q1 8 4 33q2 16 3 32l4 32l108 145q131 177 143 194q47 65 145 193zM1301 289l13 183q2 28 6 86t7 87q0 1 0.5 2.5t1 4.5t0.5 5q0 9 2 31q1 2 2 7.5t1 8.5l-18 4q-70 -107 -88 -129l-221 -292q130 2 211 2h83z" />
    <glyph glyph-name="questiondown" unicode="&#xbf;" horiz-adv-x="1051" 
d="M714 839l25 204q-138 0 -214 3q-1 -23 -3 -67t-3 -67l-4 -71q70 -2 100 -2h99zM379 475l-77 -55q-87 -61 -130 -112q-71 -88 -95 -195q-7 -26 -8 -43q-4 -25 -4 -56q0 -144 94 -219q119 -92 335 -94h12q92 0 164 17q89 19 156 71q60 44 101 126q27 56 48 146q2 10 3 14
q0 2 2 14q-19 4 -70 13q-27 4 -70 11l-62 11q-10 -62 -67 -114q-32 -29 -75.5 -45.5t-83.5 -17.5q-22 -2 -34 -2q-88 0 -149 50q-66 53 -66 135q0 8 2 26q6 38 25.5 77t48.5 64q53 47 125 95l24 16q14 8 33 22q22 17 41 41q66 79 88 179q0 2 4 21q2 7 3 21h-88q-57 0 -89 1
q0 -13 -5 -25q-11 -55 -47 -105.5t-89 -87.5z" />
    <glyph glyph-name="Agrave" unicode="&#xc0;" horiz-adv-x="1394" 
d="M474 1683l-94 87l-3 40q109 -6 207 -6q22 -29 92 -138l11 -18q49 -78 84 -122q1 -2 1.5 -5.5t0.5 -5.5q0 -5 2 -11l1 -8q-28 2 -51 3q-30 0 -48 1q-48 39 -102 89q-69 65 -101 94zM1060 907l17 -64q53 -193 82 -293.5t79.5 -256.5t99.5 -281q-114 11 -223 11h-31
q-21 78 -57 264q-194 2 -298 2q-188 0 -336 -4q-60 -159 -101 -256q-43 -3 -138 -7q-99 -7 -138 -10q149 238 316 563q83 160 279 568q34 72 112 232q69 -3 203 -3q68 -221 134 -465zM702 1020l-80 -166l-160 -325q170 2 271 2h139h132l-124 491q-13 42 -19 73q-3 12 -20 78
l-21 78l-17 6q-18 -58 -47 -118q-27 -55 -54 -119z" />
    <glyph glyph-name="Aacute" unicode="&#xc1;" horiz-adv-x="1394" 
d="M608 1545q-8 -3 -8 -5t9 -2q10 0 43 3q12 0 36 2q38 28 92 61q46 28 90 63q15 13 47 34q25 15 52 36q58 45 59 88q-107 -5 -194 -5q-21 -24 -37 -46q-24 -32 -37 -47q-108 -134 -152 -182zM1084 23h31q109 0 223 -11q-49 125 -99.5 281t-79.5 256.5t-82 293.5l-17 64
q-66 244 -134 465q-134 0 -203 3q-78 -160 -112 -232q-196 -408 -279 -568q-167 -325 -316 -563q39 3 138 10q95 4 138 7q41 97 101 256q148 4 336 4q104 0 298 -2q36 -186 57 -264zM820 1251l21 -78q17 -66 20 -78q6 -31 19 -73l124 -491h-132h-139q-101 0 -271 -2l160 325
l80 166q27 64 54 119q29 60 47 118z" />
    <glyph glyph-name="Acircumflex" unicode="&#xc2;" horiz-adv-x="1394" 
d="M805 1661l-57 48q-150 -107 -249 -168h-16q-5 -1 -16 -1q-13 0 -18 1h-16h-10q2 0 17 17q28 31 87 98q25 32 51 60q25 30 74 87q13 -1 35 -1h36h124q9 -11 25 -35t24 -35q80 -121 145 -189l1 -4h-82q-70 50 -155 122zM1060 907l17 -64q53 -193 82 -293.5t79.5 -256.5
t99.5 -281q-114 11 -223 11h-31q-21 78 -57 264q-194 2 -298 2q-188 0 -336 -4q-60 -159 -101 -256q-43 -3 -138 -7q-99 -7 -138 -10q149 238 316 563q83 160 279 568q34 72 112 232q69 -3 203 -3q68 -221 134 -465zM702 1020l-80 -166l-160 -325q170 2 271 2h139h132
l-124 491q-13 42 -19 73q-3 12 -20 78l-21 78l-17 6q-18 -58 -47 -118q-27 -55 -54 -119z" />
    <glyph glyph-name="Atilde" unicode="&#xc3;" horiz-adv-x="1394" 
d="M924 1542h10q69 0 103 51q20 31 44 91l6 16q3 7 9 22l8 20q6 17 20 43q-5 -1 -15 -1h-16h-38q-21 -47 -53 -79q-38 -38 -84 -38h-9q-49 9 -126 56q-34 20 -50.5 29t-48.5 19.5t-61 10.5q-3 1 -14 1q-42 0 -78 -30q-37 -30 -49 -74q-10 -23 -11 -25q-7 -14 -16 -40
q-12 -33 -32 -75h30h19q12 0 18 1q21 48 51 79q37 39 81 39h6q1 -1 5 -1q56 -12 132 -57q99 -57 159 -58zM1084 23h31q109 0 223 -11q-49 125 -99.5 281t-79.5 256.5t-82 293.5l-17 64q-66 244 -134 465q-134 0 -203 3q-78 -160 -112 -232q-196 -408 -279 -568
q-167 -325 -316 -563q39 3 138 10q95 4 138 7q41 97 101 256q148 4 336 4q104 0 298 -2q36 -186 57 -264zM820 1251l21 -78q17 -66 20 -78q6 -31 19 -73l124 -491h-132h-139q-101 0 -271 -2l160 325l80 166q27 64 54 119q29 60 47 118z" />
    <glyph glyph-name="Adieresis" unicode="&#xc4;" horiz-adv-x="1394" 
d="M540 1557q42 0 154 2q11 63 11 121v19q0 12 -1 18q-31 0 -101 2q-10 0 -16 1h-21q7 -33 7 -60q0 -29 -6 -56q-9 -39 -27 -47zM975 1558h12h46q27 0 45 -1q-8 30 -8 58t6 55q7 30 15 48q-16 -1 -48 -1h-48h-22q-5 -1 -22 -1q-13 -63 -13 -115q0 -25 3 -49q10 6 34 6z
M1084 23h31q109 0 223 -11q-49 125 -99.5 281t-79.5 256.5t-82 293.5l-17 64q-66 244 -134 465q-134 0 -203 3q-78 -160 -112 -232q-196 -408 -279 -568q-167 -325 -316 -563q39 3 138 10q95 4 138 7q41 97 101 256q148 4 336 4q104 0 298 -2q36 -186 57 -264zM820 1251
l21 -78q17 -66 20 -78q6 -31 19 -73l124 -491h-132h-139q-101 0 -271 -2l160 325l80 166q27 64 54 119q29 60 47 118z" />
    <glyph glyph-name="Aring" unicode="&#xc5;" horiz-adv-x="1558" 
d="M964 1429h8q92 0 150 61q50 50 65 124q5 18 6 37q1 5 1 13v12q0 81 -49 133q-53 63 -156 65h-8q-92 0 -151 -59q-49 -49 -64 -123q-4 -20 -6 -39q-1 -5 -1 -13v-14q0 -82 47 -135q59 -62 158 -62zM1113 1664v-10q-5 -59 -45 -102q-42 -42 -97 -42h-9q-60 0 -93 42
q-30 34 -30 83q0 12 1 15q5 64 46 99q42 42 100 42h6q52 0 91 -41q30 -33 30 -86zM1165 23h31q109 0 223 -11q-49 125 -99.5 281t-79.5 256.5t-82 293.5l-17 64q-66 244 -134 465q-134 0 -203 3q-78 -160 -112 -232q-196 -408 -279 -568q-167 -325 -316 -563q39 3 138 10
q95 4 138 7q41 97 101 256q148 4 336 4q104 0 298 -2q36 -186 57 -264zM901 1251l21 -78q17 -66 20 -78q6 -31 19 -73l124 -491h-132h-139q-101 0 -271 -2q33 65 160 325l80 166q27 64 54 119q29 60 47 118z" />
    <glyph glyph-name="AE" unicode="&#xc6;" horiz-adv-x="2157" 
d="M244 20l-176 -9q207 286 416 672q133 245 351 694q260 -5 455 -5q424 0 740 14l-7 -34q-2 -9 -5.5 -25.5t-4.5 -23.5q-2 -9 -5.5 -26t-4.5 -25q-342 -11 -745 -11l-33 -454h327q109 0 327 2q-2 -30 -2 -39q-1 -15 -3 -38l-4 -53h-653l-2 -25q-17 -203 -28 -397
q512 -6 765 -17q4 -103 21 -209q-421 26 -962 26q12 199 29 397q-245 0 -537 -5q-127 -216 -259 -409zM930 1252l-23 -49q-1 -2 -2 -5t-2 -4q-3 -5 -5 -10q-217 -435 -325 -630q53 0 82 1h81q202 2 313 2q28 329 45 686l-9 8h-78q-53 0 -77 1z" />
    <glyph glyph-name="Ccedilla" unicode="&#xc7;" horiz-adv-x="1457" 
d="M841 1260h-8q-97 0 -189 -35q-105 -40 -169 -113q-97 -108 -132 -270q-8 -37 -14 -138q9 -112 29 -177q28 -92 94 -140q62 -45 153 -68q72 -18 171 -25h12q4 -1 12 -1q105 0 209 53q105 53 177 143q-7 -125 -7 -242q0 -26 2 -96v-33q-90 -72 -163 -88t-168 -16
q-21 0 -30 1h-12l-21 -45q-7 -17 -21 -49h8q67 0 113 -28q51 -33 51 -88v-17q0 -21 -5 -36q-25 -75 -73 -98q-64 -29 -181 -35h-7q-28 -2 -40 -2h-40q6 26 8 39q1 12 5 38h11q2 -1 5 -1q26 -2 45 -2h11q60 2 97 17q55 21 59 73v8q0 42 -43 62q-32 14 -84 14q-5 -1 -13 -1
h-13h-15q7 15 7 16t1.5 3.5t3 6t2.5 6.5q7 20 23 62q4 11 11.5 31t10.5 27q-118 6 -223 42q-131 45 -210 130q-66 83 -100 206q-31 111 -31 233q0 47 4 84q8 93 25 171q44 210 170 336q91 91 234 136q118 37 255 37q21 0 31 1h31q114 0 194 -20q104 -25 175 -81l-20 -149
q-129 63 -228 92q-86 24 -190 26z" />
    <glyph glyph-name="Egrave" unicode="&#xc8;" horiz-adv-x="1138" 
d="M246 1683l-94 87l-3 40q110 -6 207 -6q22 -29 92 -138l11 -18q49 -78 84 -122q1 -2 1.5 -5.5t0.5 -5.5q0 -5 2 -11l1 -8q-28 2 -51 3q-30 0 -48 1q-48 39 -102 89q-69 65 -101 94zM275 565l-17 -188q168 2 260 2q268 0 469 -9q-4 -81 -4 -180q0 -98 4 -177
q-253 25 -529 25q-176 0 -416 -12q111 673 111 1238q0 46 -2 134q235 -26 530 -26q224 0 361 8q-2 -11 -4 -34q0 -5 -1.5 -15.5t-2.5 -16.5l-9 -66q-168 -7 -346 -7q-154 0 -365 9q-5 -227 -22 -463h187h212q140 0 211 1l-12 -128h-140h-233q-157 0 -234 -1q0 -5 -1.5 -21.5
t-2.5 -25.5t-2.5 -25.5t-1.5 -21.5z" />
    <glyph glyph-name="Eacute" unicode="&#xc9;" horiz-adv-x="1138" 
d="M379 1545q-8 -3 -8 -5t9 -2q10 0 43 3q12 0 36 2q38 28 92 61q47 28 90 63q15 13 47 34q25 15 52 36q58 45 59 88q-107 -5 -194 -5q-21 -24 -37 -46q-24 -32 -37 -47q-108 -134 -152 -182zM1025 1248l9 66q1 6 2.5 16.5t1.5 15.5q2 23 4 34q-137 -8 -361 -8
q-295 0 -530 26q2 -88 2 -134q0 -565 -111 -1238q240 12 416 12q276 0 529 -25q-4 79 -4 177q0 99 4 180q-201 9 -469 9q-92 0 -260 -2l17 188q0 5 1.5 21.5t2.5 25.5t2.5 25.5t1.5 21.5q77 1 234 1h233h140l12 128q-71 -1 -211 -1h-212h-187q17 236 22 463q211 -9 365 -9
q178 0 346 7z" />
    <glyph glyph-name="Ecircumflex" unicode="&#xca;" horiz-adv-x="1138" 
d="M577 1661l-57 48q-150 -107 -249 -168h-16q-5 -1 -16 -1q-13 0 -18 1h-16h-10q2 0 17 17q28 31 87 98q25 32 51 60q25 30 74 87q13 -1 35 -1h36h124q9 -11 25 -35t24 -35q80 -121 145 -189l1 -4h-82q-70 50 -155 122zM275 565l-17 -188q168 2 260 2q268 0 469 -9
q-4 -81 -4 -180q0 -98 4 -177q-253 25 -529 25q-176 0 -416 -12q111 673 111 1238q0 46 -2 134q235 -26 530 -26q224 0 361 8q-2 -11 -4 -34q0 -5 -1.5 -15.5t-2.5 -16.5l-9 -66q-168 -7 -346 -7q-154 0 -365 9q-5 -227 -22 -463h187h212q140 0 211 1l-12 -128h-140h-233
q-157 0 -234 -1q0 -5 -1.5 -21.5t-2.5 -25.5t-2.5 -25.5t-1.5 -21.5z" />
    <glyph glyph-name="Edieresis" unicode="&#xcb;" horiz-adv-x="1138" 
d="M311 1557q42 0 154 2q11 63 11 121v19q0 12 -1 18q-31 0 -101 2q-10 0 -16 1h-21q7 -33 7 -60q0 -29 -6 -56q-9 -39 -27 -47zM746 1558h12h46q27 0 45 -1q-8 30 -8 58t6 55q7 30 15 48q-16 -1 -48 -1h-48h-22q-5 -1 -22 -1q-13 -63 -13 -115q0 -25 3 -49q10 6 34 6z
M1025 1248l9 66q1 6 2.5 16.5t1.5 15.5q2 23 4 34q-137 -8 -361 -8q-295 0 -530 26q2 -88 2 -134q0 -565 -111 -1238q240 12 416 12q276 0 529 -25q-4 79 -4 177q0 99 4 180q-201 9 -469 9q-92 0 -260 -2l17 188q0 5 1.5 21.5t2.5 25.5t2.5 25.5t1.5 21.5q77 1 234 1h233
h140l12 128q-71 -1 -211 -1h-212h-187q17 236 22 463q211 -9 365 -9q178 0 346 7z" />
    <glyph glyph-name="Igrave" unicode="&#xcc;" horiz-adv-x="552" 
d="M421 1504l1 -8q-28 2 -51 3q-30 0 -48 1q-48 39 -102 89q-69 65 -101 94l-94 87l-3 40q110 -6 207 -6q22 -29 92 -138l11 -18q49 -78 84 -122q1 -2 1.5 -5.5t0.5 -5.5q0 -5 2 -11zM113 34l37 234q90 750 119 1128q65 -22 184 -24q-15 -296 -29 -504q-37 -554 -44 -854
q-90 23 -192 23q-38 0 -75 -3z" />
    <glyph glyph-name="Iacute" unicode="&#xcd;" horiz-adv-x="552" 
d="M135 1545q-8 -3 -8 -5t9 -2q10 0 43 3q12 0 36 2q38 28 92 61q47 28 90 63q15 13 47 34q25 15 52 36q58 45 59 88q-107 -5 -194 -5q-21 -24 -37 -46q-24 -32 -37 -47q-108 -134 -152 -182zM35 268l-37 -234q38 3 75 3q102 0 192 -23q7 300 44 854q14 208 29 504
q-119 2 -184 24q-29 -378 -119 -1128z" />
    <glyph glyph-name="Icircumflex" unicode="&#xce;" horiz-adv-x="552" 
d="M274 1802h124q9 -11 25 -35t24 -35q80 -121 145 -189l1 -4h-82q-70 50 -155 122l-57 48q-150 -107 -249 -168h-16q-5 -1 -16 -1q-13 0 -18 1h-16h-10q2 0 17 17q28 31 87 98q26 32 51 60q25 30 74 87q13 -1 35 -1h36zM20 34l37 234q90 750 119 1128q65 -22 184 -24
q-15 -296 -29 -504q-37 -554 -44 -854q-90 23 -192 23q-37 0 -75 -3z" />
    <glyph glyph-name="Idieresis" unicode="&#xcf;" horiz-adv-x="552" 
d="M21 1557q42 0 154 2q11 63 11 121v19q0 12 -1 18q-31 0 -101 2q-10 0 -16 1h-21q7 -33 7 -60q0 -29 -6 -56q-9 -39 -27 -47zM456 1558h12h46q27 0 45 -1q-8 30 -8 58t6 55q7 30 15 48q-16 -1 -48 -1h-48h-22q-5 -1 -22 -1q-13 -63 -13 -115q0 -25 3 -49q10 6 34 6z
M-13 268l-37 -234q38 3 75 3q102 0 192 -23q7 300 44 854q14 208 29 504q-119 2 -184 24q-29 -378 -119 -1128z" />
    <glyph glyph-name="Eth" unicode="&#xd0;" horiz-adv-x="1413" 
d="M647 37h-75q-258 0 -470 -12q50 311 76 593q-3 -1 -8.5 -1.5t-8.5 -0.5q16 17 19 20q8 97 11 139q0 1 -0.5 1t-0.5 1h1q16 208 16 427q0 108 -4 195q197 -20 445 -25q169 -5 288 -38q148 -41 239 -129q70 -68 103 -173q28 -92 28 -213q0 -30 -1 -44h28q-22 -27 -30 -59
q-2 -8 -2 -12v-12q0 -36 18 -61h-27q-9 -51 -13 -70q-43 -202 -164 -342q-95 -96 -226 -143q-115 -41 -242 -41zM503 1248q-52 1 -138 5q-3 -250 -19 -477q37 -1 112 -1q43 -1 131 -1h137q279 0 419 1q4 24 5 35q3 29 3 56q0 173 -105 261q-79 66 -190 93q-98 22 -217 24
q-20 0 -66.5 1.5t-71.5 2.5zM618 350h6q93 0 178 24q97 26 171 83q88 78 133 178q-47 0 -70 1h-139h-145q-279 0 -417 -7q-9 -126 -26 -283q133 4 309 4z" />
    <glyph glyph-name="Ntilde" unicode="&#xd1;" horiz-adv-x="1384" 
d="M812 1542h-10q-60 1 -159 58q-76 45 -132 57q-4 0 -5 1h-6q-44 0 -81 -39q-30 -31 -51 -79q-6 -1 -18 -1h-19h-30q20 42 32 75q9 26 16 40q1 2 11 25q12 44 49 74q36 30 78 30q11 0 14 -1q29 0 61 -10.5t48.5 -19.5t50.5 -29q77 -47 126 -56h9q46 0 84 38q32 32 53 79h38
h16q10 0 15 1q-14 -26 -20 -43l-8 -20t-9 -22l-6 -16q-24 -60 -44 -91q-34 -51 -103 -51zM1045 380l18 7q24 499 90 990q15 1 43 2.5t41 1.5t41 1.5t42 2.5q-105 -656 -105 -1131q0 -102 7 -242q-48 5 -145 11q-97 4 -145 7q-7 0 -11 1h-7q-133 245 -314 651
q-129 286 -231 495l-19 -7q3 -110 3 -220q0 -356 -31 -916q-202 -6 -292 -13q156 754 156 1377q91 -10 234 -17q174 -254 468 -742z" />
    <glyph glyph-name="Ograve" unicode="&#xd2;" 
d="M599 1683l-94 87l-3 40q109 -6 207 -6q22 -29 92 -138l11 -18q49 -78 84 -122q1 -2 1.5 -5.5t0.5 -5.5q0 -5 2 -11l1 -8q-29 2 -51 3q-30 0 -48 1q-48 39 -102 89q-69 65 -101 94zM834 1391h23q139 0 255 -39q129 -46 201 -129q72 -82 105 -194q31 -106 31 -225
q0 -43 -5 -95q-5 -75 -23 -163q-43 -202 -161 -342q-99 -100 -228 -146q-119 -42 -245 -42q-10 0 -15 1h-16h-10q-140 0 -257 41q-127 43 -206 129q-67 86 -99 207q-31 112 -31 236q0 64 14 167q4 39 14 87q45 209 169 335q91 94 231 137q113 35 253 35zM847 1260h-13
q-105 0 -191 -26q-106 -33 -176 -103q-99 -97 -131 -252q-11 -52 -16 -116q-3 -32 -3 -62q0 -87 22 -152q26 -78 81 -118q125 -91 350 -91q106 0 184 15q102 20 181 71q102 75 136 229q10 47 15 110q4 33 4 75q0 184 -94 290q-57 67 -154 101q-87 29 -195 29z" />
    <glyph glyph-name="Oacute" unicode="&#xd3;" 
d="M733 1545q-8 -3 -8 -5t9 -2q10 0 43 3q12 0 36 2q38 28 92 61q47 28 90 63q15 13 47 34q25 15 52 36q58 45 59 88q-107 -5 -194 -5q-21 -24 -37 -46q-24 -32 -37 -47q-108 -134 -152 -182zM746 17h10h16q5 -1 15 -1q126 0 245 42q129 46 228 146q118 140 161 342
q18 88 23 163q5 52 5 95q0 119 -31 225q-33 112 -105 194q-72 83 -201 129q-116 39 -255 39h-23q-140 0 -253 -35q-140 -43 -231 -137q-124 -126 -169 -335q-10 -48 -14 -87q-14 -103 -14 -167q0 -124 31 -236q32 -121 99 -207q79 -86 206 -129q117 -41 257 -41zM834 1260
h13q108 0 195 -29q97 -34 154 -101q94 -106 94 -290q0 -42 -4 -75q-5 -63 -15 -110q-34 -154 -136 -229q-79 -51 -181 -71q-78 -15 -184 -15q-225 0 -350 91q-55 40 -81 118q-22 65 -22 152q0 30 3 62q5 64 16 116q32 155 131 252q70 70 176 103q86 26 191 26z" />
    <glyph glyph-name="Ocircumflex" unicode="&#xd4;" 
d="M930 1661l-57 48q-150 -107 -249 -168h-16q-5 -1 -16 -1q-13 0 -18 1h-16h-10q2 0 17 17q28 31 87 98q26 32 51 60q25 30 74 87q13 -1 35 -1h36h124q9 -11 25 -35t24 -35q80 -121 145 -189l1 -4h-82q-70 50 -155 122zM834 1391h23q139 0 255 -39q129 -46 201 -129
q72 -82 105 -194q31 -106 31 -225q0 -43 -5 -95q-5 -75 -23 -163q-43 -202 -161 -342q-99 -100 -228 -146q-119 -42 -245 -42q-10 0 -15 1h-16h-10q-140 0 -257 41q-127 43 -206 129q-67 86 -99 207q-31 112 -31 236q0 64 14 167q4 39 14 87q45 209 169 335q91 94 231 137
q113 35 253 35zM847 1260h-13q-105 0 -191 -26q-106 -33 -176 -103q-99 -97 -131 -252q-11 -52 -16 -116q-3 -32 -3 -62q0 -87 22 -152q26 -78 81 -118q125 -91 350 -91q106 0 184 15q102 20 181 71q102 75 136 229q10 47 15 110q4 33 4 75q0 184 -94 290q-57 67 -154 101
q-87 29 -195 29z" />
    <glyph glyph-name="Otilde" unicode="&#xd5;" 
d="M1049 1542h10q69 0 103 51q20 31 44 91l6 16q3 7 9 22l8 20q6 17 20 43q-5 -1 -15 -1h-16h-38q-21 -47 -53 -79q-38 -38 -84 -38h-9q-49 9 -126 56q-34 20 -50.5 29t-48.5 19.5t-61 10.5q-3 1 -14 1q-42 0 -78 -30q-37 -30 -49 -74q-10 -23 -11 -25q-7 -14 -16 -40
q-12 -33 -32 -75h30h19q12 0 18 1q21 48 51 79q37 39 81 39h6q1 -1 5 -1q56 -12 132 -57q99 -57 159 -58zM746 17h10h16q5 -1 15 -1q126 0 245 42q129 46 228 146q118 140 161 342q18 88 23 163q5 52 5 95q0 119 -31 225q-33 112 -105 194q-72 83 -201 129q-116 39 -255 39
h-23q-140 0 -253 -35q-140 -43 -231 -137q-124 -126 -169 -335q-10 -48 -14 -87q-14 -103 -14 -167q0 -124 31 -236q32 -121 99 -207q79 -86 206 -129q117 -41 257 -41zM834 1260h13q108 0 195 -29q97 -34 154 -101q94 -106 94 -290q0 -42 -4 -75q-5 -63 -15 -110
q-34 -154 -136 -229q-79 -51 -181 -71q-78 -15 -184 -15q-225 0 -350 91q-55 40 -81 118q-22 65 -22 152q0 30 3 62q5 64 16 116q32 155 131 252q70 70 176 103q86 26 191 26z" />
    <glyph glyph-name="Odieresis" unicode="&#xd6;" 
d="M665 1557q42 0 154 2q11 63 11 121v19q0 12 -1 18q-31 0 -101 2q-10 0 -16 1h-21q7 -33 7 -60q0 -29 -6 -56q-9 -39 -27 -47zM1100 1558h12h46q27 0 45 -1q-8 30 -8 58t6 55q7 30 15 48q-16 -1 -48 -1h-48h-22q-5 -1 -22 -1q-13 -63 -13 -115q0 -25 3 -49q10 6 34 6z
M746 17h10h16q5 -1 15 -1q126 0 245 42q129 46 228 146q118 140 161 342q18 88 23 163q5 52 5 95q0 119 -31 225q-33 112 -105 194q-72 83 -201 129q-116 39 -255 39h-23q-140 0 -253 -35q-140 -43 -231 -137q-124 -126 -169 -335q-10 -48 -14 -87q-14 -103 -14 -167
q0 -124 31 -236q32 -121 99 -207q79 -86 206 -129q117 -41 257 -41zM834 1260h13q108 0 195 -29q97 -34 154 -101q94 -106 94 -290q0 -42 -4 -75q-5 -63 -15 -110q-34 -154 -136 -229q-79 -51 -181 -71q-78 -15 -184 -15q-225 0 -350 91q-55 40 -81 118q-22 65 -22 152
q0 30 3 62q5 64 16 116q32 155 131 252q70 70 176 103q86 26 191 26z" />
    <glyph glyph-name="multiply" unicode="&#xd7;" horiz-adv-x="1176" 
d="M676 682l18 -20q179 -201 302 -331l-77 -83q-159 159 -330 349q-138 -134 -378 -347q-12 11 -22 24q-6 7 -20 25q-10 11 -17 23q-2 2 -6.5 7.5t-6.5 8.5q129 115 346 321l27 26l-319 351l22 22q3 4 9.5 11t10.5 11q24 27 37 38q156 -161 327 -350q165 158 372 342l53 -59
l21 -26q-169 -153 -369 -343zM129 329l4 15l6 -6q-1 -1 -4.5 -4t-5.5 -5z" />
    <glyph glyph-name="Oslash" unicode="&#xd8;" 
d="M834 1391h23q35 0 52 -1q4 12 13 36.5t13 36.5q111 2 193 26q-5 -13 -21.5 -58t-25.5 -69l16.5 -5.5t14.5 -4.5q129 -46 201 -129q72 -82 105 -194q31 -106 31 -225q0 -43 -5 -95q-5 -75 -23 -163q-43 -202 -161 -342q-99 -100 -228 -146q-119 -42 -245 -42q-10 0 -15 1
h-16h-10q-62 0 -123 9l-9 -27h-34q-43 0 -63 -3q-40 -8 -74 -17l-31 -21q7 19 21 56.5t21 56.5q-103 42 -171 116q-67 86 -99 207q-31 112 -31 236q0 64 14 167q4 39 14 87q45 209 169 335q91 94 231 137q113 35 253 35zM847 1260h-13q-105 0 -191 -26q-106 -33 -176 -103
q-99 -97 -131 -252q-11 -52 -16 -116q-3 -32 -3 -62q0 -87 22 -152q26 -78 81 -118q58 -42 139 -65q45 128 198 575q60 174 89 261l9.5 28.5t9.5 29.5h-18zM785 503l-55 -162q13 -1 40 -1q106 0 184 15q102 20 181 71q102 75 136 229q10 47 15 110q4 33 4 75q0 184 -94 290
q-57 67 -154 101q-1 1 -3.5 1.5t-3.5 0.5q-28 -79 -82 -237q-73 -216 -168 -493z" />
    <glyph glyph-name="Ugrave" unicode="&#xd9;" horiz-adv-x="1383" 
d="M416 1683l-94 87l-3 40q110 -6 207 -6q22 -29 92 -138l11 -18q49 -78 84 -122q1 -2 1.5 -5.5t0.5 -5.5q0 -5 2 -11l1 -8q-28 2 -51 3q-30 0 -48 1q-48 39 -102 89q-69 65 -101 94zM619 329h7q80 0 147 19q80 23 139 72q83 72 110 201q6 27 13 91q34 395 71 665q36 1 92 5
q48 3 91 6q-65 -357 -101 -858q-8 -126 -63 -248q-31 -68 -83.5 -119t-108.5 -80q-96 -50 -206 -61q-53 -6 -102 -6h-17q-110 0 -210 30q-106 32 -178 92q-117 113 -117 306q0 35 3 71q40 400 40 713q0 86 -3 170q55 -6 77 -7q21 -1 76 -5v-62q0 -267 -22 -619q-1 -7 -1 -20
v-20q0 -133 59 -219q50 -63 130 -92q68 -25 157 -25z" />
    <glyph glyph-name="Uacute" unicode="&#xda;" horiz-adv-x="1383" 
d="M549 1545q-8 -3 -8 -5t9 -2q10 0 43 3q12 0 36 2q38 28 92 61q47 28 90 63q15 13 47 34q25 15 52 36q58 45 59 88q-107 -5 -194 -5q-21 -24 -37 -46q-24 -32 -37 -47q-108 -134 -152 -182zM608 16h17q49 0 102 6q110 11 206 61q56 29 108.5 80t83.5 119q55 122 63 248
q36 501 101 858q-43 -3 -91 -6q-56 -4 -92 -5q-37 -270 -71 -665q-7 -64 -13 -91q-27 -129 -110 -201q-59 -49 -139 -72q-67 -19 -147 -19h-7q-89 0 -157 25q-80 29 -130 92q-59 86 -59 219v20q0 13 1 20q22 352 22 619v62q-55 4 -76 5q-22 1 -77 7q3 -84 3 -170
q0 -313 -40 -713q-3 -36 -3 -71q0 -193 117 -306q72 -60 178 -92q100 -30 210 -30z" />
    <glyph glyph-name="Ucircumflex" unicode="&#xdb;" horiz-adv-x="1383" 
d="M747 1661l-57 48q-150 -107 -249 -168h-16q-5 -1 -16 -1q-13 0 -18 1h-16h-10q2 0 17 17q28 31 87 98q25 32 51 60q25 30 74 87q13 -1 35 -1h36h124q9 -11 25 -35t24 -35q80 -121 145 -189l1 -4h-82q-70 50 -155 122zM619 329h7q80 0 147 19q80 23 139 72q83 72 110 201
q6 27 13 91q34 395 71 665q36 1 92 5q48 3 91 6q-65 -357 -101 -858q-8 -126 -63 -248q-31 -68 -83.5 -119t-108.5 -80q-96 -50 -206 -61q-53 -6 -102 -6h-17q-110 0 -210 30q-106 32 -178 92q-117 113 -117 306q0 35 3 71q40 400 40 713q0 86 -3 170q55 -6 77 -7
q21 -1 76 -5v-62q0 -267 -22 -619q-1 -7 -1 -20v-20q0 -133 59 -219q50 -63 130 -92q68 -25 157 -25z" />
    <glyph glyph-name="Udieresis" unicode="&#xdc;" horiz-adv-x="1383" 
d="M481 1557q42 0 154 2q11 63 11 121v19q0 12 -1 18q-31 0 -101 2q-10 0 -16 1h-21q7 -33 7 -60q0 -29 -6 -56q-9 -39 -27 -47zM916 1558h12h46q27 0 45 -1q-8 30 -8 58t6 55q7 30 15 48q-16 -1 -48 -1h-48h-22q-5 -1 -22 -1q-13 -63 -13 -115q0 -25 3 -49q10 6 34 6z
M608 16h17q49 0 102 6q110 11 206 61q56 29 108.5 80t83.5 119q55 122 63 248q36 501 101 858q-43 -3 -91 -6q-56 -4 -92 -5q-37 -270 -71 -665q-7 -64 -13 -91q-27 -129 -110 -201q-59 -49 -139 -72q-67 -19 -147 -19h-7q-89 0 -157 25q-80 29 -130 92q-59 86 -59 219v20
q0 13 1 20q22 352 22 619v62q-55 4 -76 5q-22 1 -77 7q3 -84 3 -170q0 -313 -40 -713q-3 -36 -3 -71q0 -193 117 -306q72 -60 178 -92q100 -30 210 -30z" />
    <glyph glyph-name="Yacute" unicode="&#xdd;" horiz-adv-x="1476" 
d="M686 1545q-8 -3 -8 -5t9 -2q10 0 43 3q12 0 36 2q38 28 92 61q46 28 90 63q15 13 47 34q25 15 52 36q58 45 59 88q-107 -5 -194 -5q-21 -24 -37 -46q-24 -32 -37 -47q-108 -134 -152 -182zM783 507l42 66q123 198 182.5 292.5t165 252.5t196.5 281q-15 -1 -46.5 -3.5
t-47.5 -4.5q-31 -3 -95 -7q-183 -230 -424 -574l-60 -85q-216 383 -386 658q-77 3 -178 14q142 -265 380 -765l58 -121l-35 -194q-13 -66 -24 -139q-18 -106 -25 -141q200 0 333 -8q-24 195 -36 478z" />
    <glyph glyph-name="Thorn" unicode="&#xde;" horiz-adv-x="1251" 
d="M612 323h140q95 0 174 25q102 32 172 97q85 80 115 218q3 12 10 72q3 27 3 53q0 158 -91 242q-59 54 -153 78q-77 20 -185 20q-240 0 -394 6q2 136 2 201v48q-80 5 -163 15q2 -90 2 -136q0 -530 -102 -1236q58 4 87 5q42 1 87 3q8 70 15 144q4 48 14 142q85 3 267 3z
M731 438h-98q-100 0 -278 -2q23 253 42 578q120 -3 371 -3q8 0 12 1h11q111 0 193 -63q83 -67 83 -172q0 -25 -4 -46q-2 -23 -7 -49q-20 -102 -101 -177q-86 -67 -224 -67z" />
    <glyph glyph-name="germandbls" unicode="&#xdf;" horiz-adv-x="1254" 
d="M979 340v-7q0 -16 -5 -38q-12 -59 -65 -99q-46 -29 -130 -31q-71 4 -144 22q-68 16 -110 40q-6 -59 -7 -82q-1 -24 -5 -83q99 -43 270 -48q5 -1 17 -1h18q126 0 218 65q57 52 76 139q8 43 8 78q0 7 1 10v10q0 85 -44 163q-42 72 -111 122q-26 21 -48 35q-56 40 -75 62
q-36 40 -40 86q0 34 22 60t64 63l37 33q96 84 120 196q4 13 5 35q2 18 2 27q0 114 -86 172q-107 74 -291 76h-25q-101 0 -168 -19q-94 -26 -163 -93q-57 -69 -79 -173q-10 -51 -16 -134q-21 -433 -100 -1000q13 0 40.5 2t40.5 2q54 2 82 3q60 595 82 976q2 51 11 93
q19 90 80 161q72 64 204 64h9q110 -2 172 -48q60 -43 60 -113v-10q-4 -52 -43 -102q-28 -38 -84 -82q-92 -74 -108 -146q-2 -8 -2 -12v-14q-1 -5 -1 -13v-13q0 -75 45 -138q35 -51 100 -98q70 -25 115 -72q51 -54 51 -126z" />
    <glyph glyph-name="agrave" unicode="&#xe0;" horiz-adv-x="1252" 
d="M320 1356l-94 87l-3 40q109 -6 207 -6q22 -29 92 -138l11 -18q49 -78 84 -122q1 -2 1.5 -5.5t0.5 -5.5q0 -5 2 -11l1 -8q-28 1 -51 3q-30 0 -48 1q-48 39 -102 89q-69 65 -101 94zM1089 184v-31q0 -57 5 -139q-38 -6 -77 -6q-14 0 -40 2h-12q-79 0 -127 59
q-46 57 -46 137v11q0 8 1 12h-22q-51 -103 -155 -163q-100 -58 -205 -58q-7 0 -10 1h-12q-70 0 -119 12q-63 15 -98 53q-58 62 -58 167q0 29 5 64v6q1 4 2 11.5t2 10.5q2 14 4 20q13 65 51 125q39 62 100 97q132 65 298 65h239l6 88q2 18 2 27q0 87 -36 135q-58 65 -178 67
h-19q-80 0 -136 -24q-43 -21 -68 -62q-20 -33 -27 -75q-23 2 -89 12q-17 4 -29 5q-6 1 -16 2.5t-15 1.5q-2 0 -3 1h-3q8 63 45 120q39 61 99 87q100 45 248 45h17q144 0 242 -51q122 -76 122 -239q0 -26 -3 -51q-15 -158 -29 -378l1 -18q6 -75 16 -103q19 -48 79 -48h12
q12 0 36 2zM776 501l7 88h-184h-9q-3 -1 -10 -1q-100 -6 -159 -26q-55 -15 -94 -63q-36 -41 -49 -100q-2 -12 -2 -17q0 -2 -1 -8t-1 -8q14 -74 44 -92q42 -17 119 -17q95 2 168 38q74 36 119 81q35 36 47 91l3 18q0 2 1 8t1 8z" />
    <glyph glyph-name="aacute" unicode="&#xe1;" horiz-adv-x="1252" 
d="M432 1218q-8 -3 -8 -5t9 -2q10 0 43 3q12 0 36 2q38 28 92 61q46 29 90 63q15 13 47 34q25 15 52 36q58 45 59 88q-107 -5 -194 -5q-21 -24 -37 -46q-24 -32 -37 -47q-108 -134 -152 -182zM119 311v-6q-5 -35 -5 -64q0 -105 58 -167q35 -38 98 -53q49 -12 119 -12h12
q3 -1 10 -1q105 0 205 58q104 60 155 163h22q-1 -4 -1 -12v-11q0 -80 46 -137q48 -59 127 -59h12q26 -2 40 -2q39 0 77 6q-5 82 -5 139v31q-24 -2 -36 -2h-12q-60 0 -79 48q-10 28 -16 103l-1 18q14 220 29 378q3 25 3 51q0 163 -122 239q-98 51 -242 51h-17
q-148 0 -248 -45q-60 -26 -99 -87q-37 -57 -45 -120h3q1 -1 3 -1q5 0 15 -1.5t16 -2.5q12 -1 29 -5q66 -10 89 -12q7 42 27 75q25 41 68 62q56 24 136 24h19q120 -2 178 -67q36 -48 36 -135q0 -9 -2 -27l-6 -88h-239q-166 0 -298 -65q-61 -35 -100 -97q-38 -60 -51 -125
q-2 -6 -4 -20q-1 -3 -2 -10.5t-2 -11.5zM783 589l-7 -88q0 -2 -1 -8t-1 -8l-3 -18q-12 -55 -47 -91q-45 -45 -119 -81q-73 -36 -168 -38q-77 0 -119 17q-30 18 -44 92q0 2 1 8t1 8q0 5 2 17q13 59 49 100q39 48 94 63q59 20 159 26q7 0 10 1h9h184z" />
    <glyph glyph-name="acircumflex" unicode="&#xe2;" horiz-adv-x="1252" 
d="M625 1334l-57 48q-150 -107 -249 -168h-16q-5 -1 -16 -1q-13 0 -18 1h-16h-10q2 0 17 17q28 31 87 98q25 31 51 60q25 30 74 87q13 -1 35 -1h36h124q9 -11 25 -35t24 -35q80 -121 145 -189l1 -4h-82q-70 50 -155 122zM1089 184v-31q0 -57 5 -139q-38 -6 -77 -6
q-14 0 -40 2h-12q-79 0 -127 59q-46 57 -46 137v11q0 8 1 12h-22q-51 -103 -155 -163q-100 -58 -205 -58q-7 0 -10 1h-12q-70 0 -119 12q-63 15 -98 53q-58 62 -58 167q0 29 5 64v6q1 4 2 11.5t2 10.5q2 14 4 20q13 65 51 125q39 62 100 97q132 65 298 65h239l6 88
q2 18 2 27q0 87 -36 135q-58 65 -178 67h-19q-80 0 -136 -24q-43 -21 -68 -62q-20 -33 -27 -75q-23 2 -89 12q-17 4 -29 5q-6 1 -16 2.5t-15 1.5q-2 0 -3 1h-3q8 63 45 120q39 61 99 87q100 45 248 45h17q144 0 242 -51q122 -76 122 -239q0 -26 -3 -51q-15 -158 -29 -378
l1 -18q6 -75 16 -103q19 -48 79 -48h12q12 0 36 2zM776 501l7 88h-184h-9q-3 -1 -10 -1q-100 -6 -159 -26q-55 -15 -94 -63q-36 -41 -49 -100q-2 -12 -2 -17q0 -2 -1 -8t-1 -8q14 -74 44 -92q42 -17 119 -17q95 2 168 38q74 36 119 81q35 36 47 91l3 18q0 2 1 8t1 8z" />
    <glyph glyph-name="atilde" unicode="&#xe3;" horiz-adv-x="1252" 
d="M775 1215h10q69 0 103 51q20 31 44 91l6 16q3 7 9 22l8 20q6 17 20 43q-5 -1 -15 -1h-16h-38q-21 -47 -53 -79q-38 -38 -84 -38h-9q-49 9 -126 56q-34 20 -50.5 29t-48.5 19.5t-61 10.5q-3 1 -14 1q-42 0 -78 -30q-37 -30 -49 -74q-10 -23 -11 -25q-7 -14 -16 -40
q-12 -33 -32 -75h30h19q12 0 18 1q21 48 51 79q37 39 81 39h6q1 -1 5 -1q56 -12 132 -57q99 -57 159 -58zM119 311v-6q-5 -35 -5 -64q0 -105 58 -167q35 -38 98 -53q49 -12 119 -12h12q3 -1 10 -1q105 0 205 58q104 60 155 163h22q-1 -4 -1 -12v-11q0 -80 46 -137
q48 -59 127 -59h12q26 -2 40 -2q39 0 77 6q-5 82 -5 139v31q-24 -2 -36 -2h-12q-60 0 -79 48q-10 28 -16 103l-1 18q14 220 29 378q3 25 3 51q0 163 -122 239q-98 51 -242 51h-17q-148 0 -248 -45q-60 -26 -99 -87q-37 -57 -45 -120h3q1 -1 3 -1q5 0 15 -1.5t16 -2.5
q12 -1 29 -5q66 -10 89 -12q7 42 27 75q25 41 68 62q56 24 136 24h19q120 -2 178 -67q36 -48 36 -135q0 -9 -2 -27l-6 -88h-239q-166 0 -298 -65q-61 -35 -100 -97q-38 -60 -51 -125q-2 -6 -4 -20q-1 -3 -2 -10.5t-2 -11.5zM783 589l-7 -88q0 -2 -1 -8t-1 -8l-3 -18
q-12 -55 -47 -91q-45 -45 -119 -81q-73 -36 -168 -38q-77 0 -119 17q-30 18 -44 92q0 2 1 8t1 8q0 5 2 17q13 59 49 100q39 48 94 63q59 20 159 26q7 0 10 1h9h184z" />
    <glyph glyph-name="adieresis" unicode="&#xe4;" horiz-adv-x="1252" 
d="M369 1230q42 0 154 2q11 63 11 121v19q0 12 -1 18q-31 0 -101 2q-10 0 -16 1h-21q7 -33 7 -60q0 -29 -6 -56q-9 -39 -27 -47zM804 1231h12h46q27 0 45 -1q-8 30 -8 58t6 55q7 30 15 48q-16 -1 -48 -1h-48h-22q-5 -1 -22 -1q-13 -63 -13 -115q0 -25 3 -49q10 6 34 6z
M119 311v-6q-5 -35 -5 -64q0 -105 58 -167q35 -38 98 -53q49 -12 119 -12h12q3 -1 10 -1q105 0 205 58q104 60 155 163h22q-1 -4 -1 -12v-11q0 -80 46 -137q48 -59 127 -59h12q26 -2 40 -2q39 0 77 6q-5 82 -5 139v31q-24 -2 -36 -2h-12q-60 0 -79 48q-10 28 -16 103l-1 18
q14 220 29 378q3 25 3 51q0 163 -122 239q-98 51 -242 51h-17q-148 0 -248 -45q-60 -26 -99 -87q-37 -57 -45 -120h3q1 -1 3 -1q5 0 15 -1.5t16 -2.5q12 -1 29 -5q66 -10 89 -12q7 42 27 75q25 41 68 62q56 24 136 24h19q120 -2 178 -67q36 -48 36 -135q0 -9 -2 -27l-6 -88
h-239q-166 0 -298 -65q-61 -35 -100 -97q-38 -60 -51 -125q-2 -6 -4 -20q-1 -3 -2 -10.5t-2 -11.5zM783 589l-7 -88q0 -2 -1 -8t-1 -8l-3 -18q-12 -55 -47 -91q-45 -45 -119 -81q-73 -36 -168 -38q-77 0 -119 17q-30 18 -44 92q0 2 1 8t1 8q0 5 2 17q13 59 49 100
q39 48 94 63q59 20 159 26q7 0 10 1h9h184z" />
    <glyph glyph-name="aring" unicode="&#xe5;" horiz-adv-x="1252" 
d="M579 1187h8q92 0 150 61q50 50 65 124q5 18 6 37q1 5 1 13v12q0 81 -49 133q-53 63 -156 65h-8q-92 0 -151 -59q-49 -49 -64 -123q-5 -20 -6 -39q-1 -5 -1 -13v-14q0 -82 47 -135q59 -62 158 -62zM728 1422v-10q-5 -59 -45 -102q-42 -42 -97 -42h-9q-60 0 -93 42
q-30 34 -30 83q0 12 1 15q5 64 46 99q42 42 100 42h6q52 0 91 -41q30 -33 30 -86zM119 311v-6q-5 -35 -5 -64q0 -105 58 -167q35 -38 98 -53q49 -12 119 -12h12q3 -1 10 -1q105 0 205 58q104 60 155 163h22q-1 -4 -1 -12v-11q0 -80 46 -137q48 -59 127 -59h12q26 -2 40 -2
q39 0 77 6q-5 82 -5 139v31q-24 -2 -36 -2h-12q-60 0 -79 48q-10 28 -16 103l-1 18q14 220 29 378q3 25 3 51q0 163 -122 239q-98 51 -242 51h-17q-148 0 -248 -45q-60 -26 -99 -87q-37 -57 -45 -120h3q1 -1 3 -1q5 0 15 -1.5t16 -2.5q12 -1 29 -5q66 -10 89 -12q7 42 27 75
q25 41 68 62q56 24 136 24h19q120 -2 178 -67q36 -48 36 -135q0 -9 -2 -27l-6 -88h-239q-166 0 -298 -65q-61 -35 -100 -97q-38 -60 -51 -125q-2 -6 -4 -20q-1 -3 -2 -10.5t-2 -11.5zM783 589l-7 -88q0 -2 -1 -8t-1 -8l-3 -18q-12 -55 -47 -91q-45 -45 -119 -81
q-73 -36 -168 -38q-77 0 -119 17q-30 18 -44 92q0 2 1 8t1 8q0 5 2 17q13 59 49 100q39 48 94 63q59 20 159 26q7 0 10 1h9h184z" />
    <glyph glyph-name="ae" unicode="&#xe6;" horiz-adv-x="1863" 
d="M996 486l4 27h300q209 0 323 2q43 2 62 3q19 2 24 3q3 1 3 5q5 44 5 132q0 186 -64 293q-44 62 -126 94q-71 26 -170 26h-22q-100 0 -184 -31q-105 -39 -171 -113q-50 75 -149 115q-83 32 -192 32q-91 0 -129 -5q-78 -10 -141 -40q-54 -23 -88 -77q-32 -50 -43 -107
l-5 -27l59 -8q67 -10 96 -12q7 45 27 77q25 40 74 63q43 20 129 22h24q117 0 175 -59q46 -48 46 -152v-19q0 -12 -1 -19l-4 -71h-238q-170 0 -291 -57q-70 -33 -115 -102q-44 -67 -58 -141q-5 -18 -6 -37q-7 -44 -7 -77q0 -101 56 -158q59 -62 198 -62h34q125 0 245 71
q127 75 192 198q34 -129 151 -202q106 -67 248 -67h6q83 0 137 9q77 13 142 51q85 58 120 163l-129 44q-26 -72 -107 -116q-72 -39 -151 -39h-10q-8 0 -11 1h-13q-122 0 -194 95q-65 84 -65 214q0 33 4 58zM1568 640l-13 -12q-360 -2 -546 -2q3 36 9 66q28 120 99 191
q79 79 202 79h9q63 0 112 -21q57 -26 86 -77q42 -72 42 -207v-17zM850 543l-7 -93q-1 -20 -6 -43q-17 -76 -63 -139q-50 -69 -118 -104q-79 -41 -183 -46q-3 -1 -9 -1h-8q-66 0 -111 45q-45 43 -45 108q0 16 3 33q1 2 1 7t1 8q0 5 2 15q12 56 53 106q43 52 100 71
q75 25 197 33h193z" />
    <glyph glyph-name="ccedilla" unicode="&#xe7;" horiz-adv-x="1083" 
d="M293 572v-30v-17q-1 -6 -1 -18q0 -124 60 -178q81 -59 192 -59q6 0 9 1h9q10 1 29.5 2t28.5 2q72 4 98 25q20 16 36 33q43 -40 82 -79q25 -26 80 -81q-85 -95 -149 -131q-60 -29 -185 -31h-6h-23h-11q-9 -19 -17 -37q-7 -17 -21 -49h8q67 0 113 -28q51 -33 51 -88v-17
q0 -21 -5 -36q-25 -75 -73 -98q-64 -29 -181 -35h-7q-28 -2 -40 -2h-40q6 26 8 39q1 12 5 38h11q2 -1 5 -1q26 -2 45 -2h11q60 2 97 17q55 21 59 73v8q0 42 -43 62q-32 14 -84 14q-5 -1 -13 -1h-13h-15q7 15 7 16t1.5 3.5t3 6t2.5 6.5q7 20 23 62q14 36 20 53q-56 7 -109 26
q-91 32 -140 93q-79 119 -79 316q0 51 4 92q9 95 23 167q27 122 84 211q60 80 156 117q82 32 178 32h19q162 -2 243 -64q76 -59 111 -149l-37 -22q-14 -8 -44 -24t-43 -24q-67 130 -153 155q-44 11 -87 11h-9q-61 0 -111 -21q-61 -25 -94 -74q-42 -63 -60 -148
q-8 -38 -11 -69q-4 -44 -8 -68z" />
    <glyph glyph-name="egrave" unicode="&#xe8;" horiz-adv-x="1161" 
d="M393 1356l-94 87l-3 40q109 -6 207 -6q22 -29 92 -138l11 -18q49 -78 84 -122q1 -2 1.5 -5.5t0.5 -5.5q0 -5 2 -11l1 -8q-29 1 -51 3q-30 0 -48 1q-48 39 -102 89q-69 65 -101 94zM478 628h-170v-17q-1 -6 -1 -18q0 -82 15 -133q19 -69 63 -104q88 -70 268 -77
q76 10 112 21q23 8 71 28q15 7 76 31l35 14q-7 -112 -7 -224v-45q-76 -50 -182 -72q-69 -14 -189 -22q-105 2 -187 30q-94 31 -147 95q-88 109 -88 304q0 45 5 100q16 126 24 166q30 135 95 223q66 79 166 113q80 28 182 28h12q90 -2 163 -25q81 -28 128 -83q52 -60 73 -148
q17 -71 17 -169v-10q-215 -6 -534 -6zM630 979h-13q-129 0 -204 -86q-72 -85 -85 -184q92 -2 142 -2h142h138q46 0 138 2l13 13q-11 104 -75 180q-62 77 -196 77z" />
    <glyph glyph-name="eacute" unicode="&#xe9;" horiz-adv-x="1161" 
d="M500 1218q-8 -3 -8 -5t9 -2q10 0 43 3q12 0 36 2q38 28 92 61q46 29 90 63q15 13 47 34q25 15 52 36q58 45 59 88q-107 -5 -194 -5q-21 -24 -37 -46q-24 -32 -37 -47q-108 -134 -152 -182zM308 628h170q319 0 534 6v10q0 98 -17 169q-21 88 -73 148q-47 55 -128 83
q-73 23 -163 25h-12q-102 0 -182 -28q-100 -34 -166 -113q-65 -88 -95 -223q-8 -40 -24 -166q-5 -55 -5 -100q0 -195 88 -304q53 -64 147 -95q82 -28 187 -30q120 8 189 22q106 22 182 72v45q0 112 7 224l-35 -14q-61 -24 -76 -31q-48 -20 -71 -28q-36 -11 -112 -21
q-180 7 -268 77q-44 35 -63 104q-15 51 -15 133q0 12 1 18v17zM901 722l-13 -13q-92 -2 -138 -2h-138h-142q-50 0 -142 2q13 99 85 184q75 86 204 86h13q134 0 196 -77q64 -76 75 -180z" />
    <glyph glyph-name="ecircumflex" unicode="&#xea;" horiz-adv-x="1161" 
d="M692 1334l-57 48q-150 -107 -249 -168h-16q-5 -1 -16 -1q-13 0 -18 1h-16h-10q2 0 17 17q28 31 87 98q26 31 51 60q25 30 74 87q13 -1 35 -1h36h124q9 -11 25 -35t24 -35q80 -121 145 -189l1 -4h-82q-70 50 -155 122zM478 628h-170v-17q-1 -6 -1 -18q0 -82 15 -133
q19 -69 63 -104q88 -70 268 -77q76 10 112 21q23 8 71 28q15 7 76 31l35 14q-7 -112 -7 -224v-45q-76 -50 -182 -72q-69 -14 -189 -22q-105 2 -187 30q-94 31 -147 95q-88 109 -88 304q0 45 5 100q16 126 24 166q30 135 95 223q66 79 166 113q80 28 182 28h12q90 -2 163 -25
q81 -28 128 -83q52 -60 73 -148q17 -71 17 -169v-10q-215 -6 -534 -6zM630 979h-13q-129 0 -204 -86q-72 -85 -85 -184q92 -2 142 -2h142h138q46 0 138 2l13 13q-11 104 -75 180q-62 77 -196 77z" />
    <glyph glyph-name="edieresis" unicode="&#xeb;" horiz-adv-x="1161" 
d="M422 1230q42 0 154 2q11 63 11 121v19q0 12 -1 18q-31 0 -101 2q-10 0 -16 1h-21q7 -33 7 -60q0 -29 -6 -56q-9 -39 -27 -47zM857 1231h12h46q27 0 45 -1q-8 30 -8 58t6 55q7 30 15 48q-16 -1 -48 -1h-48h-22q-5 -1 -22 -1q-13 -63 -13 -115q0 -25 3 -49q10 6 34 6z
M308 628h170q319 0 534 6v10q0 98 -17 169q-21 88 -73 148q-47 55 -128 83q-73 23 -163 25h-12q-102 0 -182 -28q-100 -34 -166 -113q-65 -88 -95 -223q-8 -40 -24 -166q-5 -55 -5 -100q0 -195 88 -304q53 -64 147 -95q82 -28 187 -30q120 8 189 22q106 22 182 72v45
q0 112 7 224l-35 -14q-61 -24 -76 -31q-48 -20 -71 -28q-36 -11 -112 -21q-180 7 -268 77q-44 35 -63 104q-15 51 -15 133q0 12 1 18v17zM901 722l-13 -13q-92 -2 -138 -2h-138h-142q-50 0 -142 2q13 99 85 184q75 86 204 86h13q134 0 196 -77q64 -76 75 -180z" />
    <glyph glyph-name="igrave" unicode="&#xec;" horiz-adv-x="624" 
d="M437 1177l1 -8q-28 1 -51 3q-30 0 -48 1q-48 39 -102 89q-69 65 -101 94l-94 87l-3 40q110 -6 207 -6q22 -29 92 -138l11 -18q49 -78 84 -122q1 -2 1.5 -5.5t0.5 -5.5q0 -5 2 -11zM470 44v-31q-74 17 -166 17q-49 0 -88 -4q91 558 128 1041q60 -15 157 -17
q-2 -92 -6 -182q-2 -31 -4.5 -92.5t-3.5 -91.5q-17 -457 -17 -640z" />
    <glyph glyph-name="iacute" unicode="&#xed;" horiz-adv-x="624" 
d="M146 1218q-8 -3 -8 -5t9 -2q10 0 43 3q12 0 36 2q38 28 92 61q46 29 90 63q15 13 47 34q25 15 52 36q58 45 59 88q-107 -5 -194 -5q-21 -24 -37 -46q-24 -32 -37 -47q-108 -134 -152 -182zM361 13v31q0 183 17 640q1 30 3.5 91.5t4.5 92.5q4 90 6 182q-97 2 -157 17
q-37 -483 -128 -1041q39 4 88 4q92 0 166 -17z" />
    <glyph glyph-name="icircumflex" unicode="&#xee;" horiz-adv-x="862" 
d="M427 1475h124q9 -11 25 -35t24 -35q80 -121 145 -189l1 -4h-82q-70 50 -155 122l-57 48q-150 -107 -249 -168h-16q-5 -1 -16 -1q-13 0 -18 1h-16h-10q2 0 17 17q28 31 87 98q25 31 51 60q25 30 74 87q13 -1 35 -1h36zM517 44v-31q-74 17 -166 17q-49 0 -88 -4
q91 558 128 1041q60 -15 157 -17q-2 -92 -6 -182q-2 -31 -4.5 -92.5t-3.5 -91.5q-17 -457 -17 -640z" />
    <glyph glyph-name="idieresis" unicode="&#xef;" horiz-adv-x="757" 
d="M109 1230q42 0 154 2q11 63 11 121v19q0 12 -1 18q-31 0 -101 2q-10 0 -16 1h-21q7 -33 7 -60q0 -29 -6 -56q-9 -39 -27 -47zM544 1231h12h46q27 0 45 -1q-8 30 -8 58t6 55q7 30 15 48q-16 -1 -48 -1h-48h-22q-5 -1 -22 -1q-13 -63 -13 -115q0 -25 3 -49q10 6 34 6z
M381 13v31q0 183 17 640q1 30 3.5 91.5t4.5 92.5q4 90 6 182q-97 2 -157 17q-37 -483 -128 -1041q39 4 88 4q92 0 166 -17z" />
    <glyph glyph-name="eth" unicode="&#xf0;" horiz-adv-x="1143" 
d="M514 19h11q109 0 187 22q105 30 175 105q66 83 94 209q12 57 20 155v6q3 40 3 80q0 205 -68 381q-71 185 -210 310q184 79 225 98q1 21 6 47q1 7 4 20q0 2 0.5 5t1 7.5t0.5 7.5q-24 -11 -95 -41q-31 -13 -95 -39l-118 -49q-63 53 -162 107q-32 1 -79 5l-36 3q-29 2 -44 4
q116 -82 207 -161q-4 -4 -31 -27q-25 -22 -92 -52q-39 -16 -111 -45q0 -12 5 -27t5 -27q65 25 178 72l109 46q117 -114 205 -327l-14 -12q-83 55 -206 55h-12q-95 0 -176 -27q-99 -32 -174 -102q-44 -53 -71 -116q-43 -98 -58 -229q-5 -48 -5 -88q0 -174 89 -267
q54 -58 149 -85q80 -24 183 -24zM843 489l-1 -14q-7 -72 -14 -104q-19 -83 -65 -152q-43 -52 -109 -73q-57 -18 -125 -18h-22q-75 0 -130 28q-64 31 -97 93q-28 63 -28 161q0 43 4 76q3 44 14 98q20 95 74 172q43 54 113 77q54 18 125 18h11q79 0 135 -31q63 -35 92 -105
q25 -64 25 -161q0 -7 -2 -29v-36z" />
    <glyph glyph-name="ntilde" unicode="&#xf1;" horiz-adv-x="1144" 
d="M723 1215h10q69 0 103 51q20 31 44 91l6 16q3 7 9 22l8 20q6 17 20 43q-5 -1 -15 -1h-16h-38q-21 -47 -53 -79q-38 -38 -84 -38h-9q-49 9 -126 56q-34 20 -50.5 29t-48.5 19.5t-61 10.5q-3 1 -14 1q-42 0 -78 -30q-37 -30 -49 -74q-10 -23 -11 -25q-7 -14 -16 -40
q-12 -33 -32 -75h30h19q12 0 18 1q21 48 51 79q37 39 81 39h6q1 -1 5 -1q56 -12 132 -57q99 -57 159 -58zM997 -10l13 13q-23 179 -23 419q0 74 3 144t3 142v22q0 18 1 33v32q0 66 -10.5 112t-42.5 88q-43 49 -115 68q-60 16 -142 16q-127 0 -210 -43q-72 -38 -128 -120
q1 8 2.5 22.5t1.5 18.5l3 36q2 28 4 76q-21 1 -45 3l-48 3q-32 2 -49 4q-9 1 -24 2.5t-20 1.5l-3 -67q4 -36 4 -63v-22q0 -352 -111 -861l-15 -73q130 10 287 12q0 13 1.5 43.5t2.5 48.5t2.5 48.5t1.5 43.5q16 318 20 466q0 25 7 58q19 81 59 134q29 41 76.5 61.5t97.5 20.5
h10q89 -2 135 -22q64 -29 64 -142q0 -13 -2 -43q-2 -8 -2 -17q0 -7 -2 -21q-79 -452 -100 -681q145 -5 293 -17z" />
    <glyph glyph-name="ograve" unicode="&#xf2;" horiz-adv-x="1167" 
d="M483 1356l-94 87l-3 40q110 -6 207 -6q22 -29 92 -138l11 -18q49 -78 84 -122q1 -2 1.5 -5.5t0.5 -5.5q0 -5 2 -11l1 -8q-29 1 -51 3q-30 0 -48 1q-48 39 -102 89q-69 65 -101 94zM609 1060h8q111 0 191 -24q97 -29 149 -97q71 -91 71 -272q0 -58 -5 -126
q-9 -96 -24 -168q-30 -134 -95 -225q-60 -73 -163 -109q-80 -28 -179 -28h-17q-102 0 -185 29q-95 33 -145 96q-45 63 -64 155q-16 75 -16 174q0 75 12 161q14 112 47 194q22 53 59 99t80 73q79 50 184 63q52 5 92 5zM541 302h14q51 0 79.5 1.5t71.5 11.5t77 30
q52 43 72 127q6 26 7 38q1 6 2.5 18t1.5 17q0 6 3 15q4 47 4 103q0 123 -41 196q-29 50 -90 73q-52 19 -125 19h-6q-69 0 -123 -19q-67 -23 -109 -76q-44 -65 -65 -156q-9 -42 -18 -143q-3 -24 -3 -48q0 -112 54 -160q64 -47 194 -47z" />
    <glyph glyph-name="oacute" unicode="&#xf3;" horiz-adv-x="1167" 
d="M579 1218q-8 -3 -8 -5t9 -2q10 0 43 3q12 0 36 2q38 28 92 61q47 29 90 63q15 13 47 34q25 15 52 36q58 45 59 88q-107 -5 -194 -5q-21 -24 -37 -46q-24 -32 -37 -47q-108 -134 -152 -182zM545 11h17q99 0 179 28q103 36 163 109q65 91 95 225q15 72 24 168q5 68 5 126
q0 181 -71 272q-52 68 -149 97q-80 24 -191 24h-8q-40 0 -92 -5q-105 -13 -184 -63q-43 -27 -80 -73t-59 -99q-33 -82 -47 -194q-12 -86 -12 -161q0 -99 16 -174q19 -92 64 -155q50 -63 145 -96q83 -29 185 -29zM611 951h6q73 0 125 -19q61 -23 90 -73q41 -73 41 -196
q0 -56 -4 -103q-3 -9 -3 -15q0 -5 -1.5 -17t-2.5 -18q-1 -12 -7 -38q-20 -84 -72 -127q-34 -20 -77 -30t-71.5 -11.5t-79.5 -1.5h-14q-130 0 -194 47q-54 48 -54 160q0 24 3 48q9 101 18 143q21 91 65 156q42 53 109 76q54 19 123 19z" />
    <glyph glyph-name="ocircumflex" unicode="&#xf4;" horiz-adv-x="1167" 
d="M775 1334l-57 48q-150 -107 -249 -168h-16q-5 -1 -16 -1q-13 0 -18 1h-16h-10q2 0 17 17q28 31 87 98q25 31 51 60q25 30 74 87q13 -1 35 -1h36h124q9 -11 25 -35t24 -35q80 -121 145 -189l1 -4h-82q-70 50 -155 122zM609 1060h8q111 0 191 -24q97 -29 149 -97
q71 -91 71 -272q0 -58 -5 -126q-9 -96 -24 -168q-30 -134 -95 -225q-60 -73 -163 -109q-80 -28 -179 -28h-17q-102 0 -185 29q-95 33 -145 96q-45 63 -64 155q-16 75 -16 174q0 75 12 161q14 112 47 194q22 53 59 99t80 73q79 50 184 63q52 5 92 5zM541 302h14
q51 0 79.5 1.5t71.5 11.5t77 30q52 43 72 127q6 26 7 38q1 6 2.5 18t1.5 17q0 6 3 15q4 47 4 103q0 123 -41 196q-29 50 -90 73q-52 19 -125 19h-6q-69 0 -123 -19q-67 -23 -109 -76q-44 -65 -65 -156q-9 -42 -18 -143q-3 -24 -3 -48q0 -112 54 -160q64 -47 194 -47z" />
    <glyph glyph-name="otilde" unicode="&#xf5;" horiz-adv-x="1167" 
d="M753 1180h10q69 0 103 51q20 31 44 91l6 16q3 7 9 22l8 20q6 17 20 43q-5 -1 -15 -1h-16h-38q-21 -47 -53 -79q-38 -38 -84 -38h-9q-49 9 -126 56q-34 20 -50.5 29t-48.5 19.5t-61 10.5q-3 1 -14 1q-42 0 -78 -30q-37 -30 -49 -74q-10 -23 -11 -25q-7 -14 -16 -40
q-12 -33 -32 -75h30h19q12 0 18 1q21 48 51 79q37 39 81 39h6q1 -1 5 -1q56 -12 132 -57q99 -57 159 -58zM510 11h17q99 0 179 28q103 36 163 109q65 91 95 225q15 72 24 168q5 68 5 126q0 181 -71 272q-52 68 -149 97q-80 24 -191 24h-8q-40 0 -92 -5q-105 -13 -184 -63
q-43 -27 -80 -73t-59 -99q-33 -82 -47 -194q-12 -86 -12 -161q0 -99 16 -174q19 -92 64 -155q50 -63 145 -96q83 -29 185 -29zM576 951h6q73 0 125 -19q61 -23 90 -73q41 -73 41 -196q0 -56 -4 -103q-3 -9 -3 -15q0 -5 -1.5 -17t-2.5 -18q-1 -12 -7 -38q-20 -84 -72 -127
q-34 -20 -77 -30t-71.5 -11.5t-79.5 -1.5h-14q-130 0 -194 47q-54 48 -54 160q0 24 3 48q9 101 18 143q21 91 65 156q42 53 109 76q54 19 123 19z" />
    <glyph glyph-name="odieresis" unicode="&#xf6;" horiz-adv-x="1167" 
d="M374 1191q42 0 154 2q11 63 11 121v19q0 12 -1 18q-31 0 -101 2q-10 0 -16 1h-21q7 -33 7 -60q0 -29 -6 -56q-9 -39 -27 -47zM809 1192h12h46q27 0 45 -1q-8 30 -8 58t6 55q7 30 15 48q-16 -1 -48 -1h-48h-22q-5 -1 -22 -1q-13 -63 -13 -115q0 -25 3 -49q10 6 34 6z
M531 11h17q99 0 179 28q103 36 163 109q65 91 95 225q15 72 24 168q5 68 5 126q0 181 -71 272q-52 68 -149 97q-80 24 -191 24h-8q-40 0 -92 -5q-105 -13 -184 -63q-43 -27 -80 -73t-59 -99q-33 -82 -47 -194q-12 -86 -12 -161q0 -99 16 -174q19 -92 64 -155q50 -63 145 -96
q83 -29 185 -29zM597 951h6q73 0 125 -19q61 -23 90 -73q41 -73 41 -196q0 -56 -4 -103q-3 -9 -3 -15q0 -5 -1.5 -17t-2.5 -18q-1 -12 -7 -38q-20 -84 -72 -127q-34 -20 -77 -30t-71.5 -11.5t-79.5 -1.5h-14q-130 0 -194 47q-54 48 -54 160q0 24 3 48q9 101 18 143
q21 91 65 156q42 53 109 76q54 19 123 19z" />
    <glyph glyph-name="divide" unicode="&#xf7;" horiz-adv-x="971" 
d="M439 955h141q3 25 7 79q1 19 5 78h-92q-20 0 -27 1h-27q-1 -50 -7 -145v-13zM862 618h79q7 95 10 124q-155 -3 -457 -3q-298 0 -454 4q-6 -89 -19 -125q344 2 511 2q108 0 330 -2zM399 407l-3 -48q0 -9 -2 -29t-2 -29q-4 -40 -5 -59q35 7 105 7h41q1 72 6 157
q-25 1 -69 1h-71z" />
    <glyph glyph-name="oslash" unicode="&#xf8;" horiz-adv-x="1224" 
d="M636 1060h8q27 0 40 -1l18 54q58 174 89 261q111 2 193 26q-54 -148 -133 -369q86 -31 133 -92q71 -91 71 -272q0 -58 -5 -126q-9 -96 -24 -168q-30 -134 -95 -225q-60 -73 -163 -109q-80 -28 -179 -28h-17q-32 0 -67 3l-35 -104h-34q-43 0 -63 -3q-40 -8 -74 -17
l-31 -21q10 27 70 191q-61 31 -96 76q-45 63 -64 155q-16 75 -16 174q0 75 12 161q14 112 47 194q22 53 59 99t80 73q79 50 184 63q52 5 92 5zM644 951h-6q-69 0 -123 -19q-67 -23 -109 -76q-44 -65 -65 -156q-9 -42 -18 -143q-3 -24 -3 -48q0 -112 54 -160q23 -18 57 -29
q42 121 182 532q5 16 16.5 49t17.5 50h-3zM641 414l-38 -112q134 0 207 43q52 43 72 127q6 26 7 38q1 6 2.5 18t1.5 17q0 6 3 15q4 47 4 103q0 123 -41 196q-18 32 -49 52q0 -1 -0.5 -2t-0.5 -2q-73 -216 -168 -493z" />
    <glyph glyph-name="ugrave" unicode="&#xf9;" horiz-adv-x="1074" 
d="M448 1348l-94 87l-3 40q110 -6 207 -6q22 -29 92 -138l11 -18q49 -78 84 -122q1 -2 1.5 -5.5t0.5 -5.5q0 -5 2 -11l1 -8q-28 1 -51 3q-30 0 -48 1q-48 39 -102 89q-69 65 -101 94zM733 580l3 13q42 212 45 227q34 160 55 244q16 1 43 2.5t39 1.5q55 2 80 4
q-122 -593 -126 -1060q-22 3 -63 5q-29 1 -63 3l-38 2q4 49 21 178l-16 3q-64 -108 -143 -150q-78 -41 -197 -41q-87 0 -137 14q-71 18 -108 63q-49 59 -49 184q0 39 5 91q34 309 34 573q0 73 -3 144q21 -1 35 -4q45 -5 76 -5q27 0 44 4v-27q0 -220 -22 -516l-1 -16
q-2 -34 -2 -51q0 -77 25 -135q22 -41 77 -58q43 -14 99 -14h5q55 0 101 18q54 20 87 63q39 51 62 117q13 37 32 123z" />
    <glyph glyph-name="uacute" unicode="&#xfa;" horiz-adv-x="1074" 
d="M329 1218q-8 -3 -8 -5t9 -2q10 0 43 3q12 0 36 2q38 28 92 61q47 29 90 63q15 13 47 34q25 15 52 36q58 45 59 88q-107 -5 -194 -5q-21 -24 -37 -46q-24 -32 -37 -47q-108 -134 -152 -182zM270 1049v27q-17 -4 -44 -4q-31 0 -76 5q-14 3 -35 4q3 -71 3 -144
q0 -264 -34 -573q-5 -52 -5 -91q0 -125 49 -184q37 -45 108 -63q50 -14 137 -14q119 0 197 41q79 42 143 150l16 -3q-17 -129 -21 -178l38 -2q34 -2 63 -3q41 -2 63 -5q4 467 126 1060q-25 -2 -80 -4q-12 0 -39 -1.5t-43 -2.5q-21 -84 -55 -244q-3 -15 -45 -227l-3 -13
q-19 -86 -32 -123q-23 -66 -62 -117q-33 -43 -87 -63q-46 -18 -101 -18h-5q-56 0 -99 14q-55 17 -77 58q-25 58 -25 135q0 17 2 51l1 16q22 296 22 516z" />
    <glyph glyph-name="ucircumflex" unicode="&#xfb;" horiz-adv-x="1074" 
d="M673 1326l-57 48q-150 -107 -249 -168h-16q-5 -1 -16 -1q-13 0 -18 1h-16h-10q2 0 17 17q28 31 87 98q25 31 51 60q25 30 74 87q13 -1 35 -1h36h124q9 -11 25 -35t24 -35q80 -121 145 -189l1 -4h-82q-70 50 -155 122zM733 580l3 13q42 212 45 227q34 160 55 244
q16 1 43 2.5t39 1.5q55 2 80 4q-122 -593 -126 -1060q-22 3 -63 5q-29 1 -63 3l-38 2q4 49 21 178l-16 3q-64 -108 -143 -150q-78 -41 -197 -41q-87 0 -137 14q-71 18 -108 63q-49 59 -49 184q0 39 5 91q34 309 34 573q0 73 -3 144q21 -1 35 -4q45 -5 76 -5q27 0 44 4v-27
q0 -220 -22 -516l-1 -16q-2 -34 -2 -51q0 -77 25 -135q22 -41 77 -58q43 -14 99 -14h5q55 0 101 18q54 20 87 63q39 51 62 117q13 37 32 123z" />
    <glyph glyph-name="udieresis" unicode="&#xfc;" horiz-adv-x="1074" 
d="M265 1230q42 0 154 2q11 63 11 121v19q0 12 -1 18q-31 0 -101 2q-10 0 -16 1h-21q7 -33 7 -60q0 -29 -6 -56q-9 -39 -27 -47zM700 1231h12h46q27 0 45 -1q-8 30 -8 58t6 55q7 30 15 48q-16 -1 -48 -1h-48h-22q-5 -1 -22 -1q-13 -63 -13 -115q0 -25 3 -49q10 6 34 6z
M270 1049v27q-17 -4 -44 -4q-31 0 -76 5q-14 3 -35 4q3 -71 3 -144q0 -264 -34 -573q-5 -52 -5 -91q0 -125 49 -184q37 -45 108 -63q50 -14 137 -14q119 0 197 41q79 42 143 150l16 -3q-17 -129 -21 -178l38 -2q34 -2 63 -3q41 -2 63 -5q4 467 126 1060q-25 -2 -80 -4
q-12 0 -39 -1.5t-43 -2.5q-21 -84 -55 -244q-3 -15 -45 -227l-3 -13q-19 -86 -32 -123q-23 -66 -62 -117q-33 -43 -87 -63q-46 -18 -101 -18h-5q-56 0 -99 14q-55 17 -77 58q-25 58 -25 135q0 17 2 51l1 16q22 296 22 516z" />
    <glyph glyph-name="yacute" unicode="&#xfd;" horiz-adv-x="1215" 
d="M469 1218q-8 -3 -8 -5t9 -2q10 0 43 3q12 0 36 2q38 28 92 61q47 29 90 63q15 13 47 34q25 15 52 36q58 45 59 88q-107 -5 -194 -5q-21 -24 -37 -46q-24 -32 -37 -47q-108 -134 -152 -182zM308 -387h11q76 0 152 43t123 112q11 16 22.5 35t19.5 32.5t20 37.5t17 33.5
t18.5 38t16.5 35.5l15 33q100 231 161.5 369.5t155.5 337t181 360.5q-47 -6 -66 -7q-44 -4 -67 -6q-155 -237 -367 -592l-13 -21q-165 325 -321 610l-30 2q-25 1 -58 5q-39 5 -57 8q226 -547 364 -910q-1 -4 -1 -13q-1 -3 -1.5 -9t-0.5 -9q-3 -26 -15 -67q-28 -98 -127 -159
q-89 -53 -192 -55q-5 -1 -17 -1h-18h-17q-7 0 -17 2q0 -7 -1 -9q-16 -163 -26 -232q52 -5 102 -5q11 0 17 1h16z" />
    <glyph glyph-name="thorn" unicode="&#xfe;" horiz-adv-x="1084" 
d="M731 1065h8q83 0 151 -28q74 -32 110 -90q60 -112 60 -305q0 -83 -12 -186q-13 -97 -39 -178q-38 -114 -92 -169q-67 -67 -154 -90q-46 -11 -83 -11h-11q-8 0 -11 1q-106 0 -185 45q-86 49 -115 136h-24q0 -78 -5 -119q-1 -4 -2 -14t-1 -14q0 -5 -1 -14t-1 -14l-17 -203
q-2 -16 -4.5 -48t-3.5 -48q-6 -68 -8 -97l-162 -7q61 560 95.5 1000.5t38.5 859.5q43 -8 68 -10q14 -2 42 -5.5t42 -4.5q-5 -197 -14 -351v-13q-1 -4 -1 -13l-2 -35q0 -13 -2 -38.5t-2 -37.5q-1 -34 -8 -81h23q36 87 127 138q81 45 171 45h12q8 0 12 -1zM609 118h17
q55 0 106 24q54 25 85 74q41 65 60 154q10 46 22 171q5 65 5 118q0 123 -38 197q-23 46 -70.5 71t-106.5 25h-19q-69 0 -134 -35q-72 -40 -103 -105q-25 -51 -47 -141q-13 -59 -20 -147q-4 -41 -4 -92q0 -77 15 -141q19 -83 86 -129q62 -44 146 -44z" />
    <glyph glyph-name="ydieresis" unicode="&#xff;" horiz-adv-x="1215" 
d="M415 1230q42 0 154 2q11 63 11 121v19q0 12 -1 18q-31 0 -101 2q-10 0 -16 1h-21q7 -33 7 -60q0 -29 -6 -56q-9 -39 -27 -47zM850 1231h12h46q27 0 45 -1q-8 30 -8 58t6 55q7 30 15 48q-16 -1 -48 -1h-48h-22q-5 -1 -22 -1q-13 -63 -13 -115q0 -25 3 -49q10 6 34 6z
M308 -387h11q76 0 152 43t123 112q11 16 22.5 35t19.5 32.5t20 37.5t17 33.5t18.5 38t16.5 35.5l15 33q100 231 161.5 369.5t155.5 337t181 360.5q-47 -6 -66 -7q-44 -4 -67 -6q-155 -237 -367 -592l-13 -21q-165 325 -321 610l-30 2q-25 1 -58 5q-39 5 -57 8
q226 -547 364 -910q-1 -4 -1 -13q-1 -3 -1.5 -9t-0.5 -9q-3 -26 -15 -67q-28 -98 -127 -159q-89 -53 -192 -55q-5 -1 -17 -1h-18h-17q-7 0 -17 2q0 -7 -1 -9q-16 -163 -26 -232q52 -5 102 -5q11 0 17 1h16z" />
    <glyph glyph-name="dotlessi" unicode="&#x131;" horiz-adv-x="478" 
d="M308 13v31q0 183 17 640q1 30 3.5 91.5t4.5 92.5q4 90 6 182q-97 2 -157 17q-37 -483 -128 -1041q39 4 88 4q92 0 166 -17z" />
    <glyph glyph-name="OE" unicode="&#x152;" horiz-adv-x="2058" 
d="M818 1384h-19q-127 0 -244 -38q-135 -44 -224 -130q-115 -132 -156 -324q-9 -45 -15 -90q-13 -99 -13 -185q0 -129 23 -226q28 -120 86 -190q72 -90 209 -134q117 -39 264 -41q38 2 62 2q97 2 149 9q536 -2 939 -26q-16 119 -21 255q-318 13 -805 15q10 145 13 189
q8 122 13 188h348q230 0 347 -1l4 53q2 21 3 39q1 17 3 39q-462 -2 -695 -2l33 453q433 0 785 12q1 5 3 12q0 8 1 11l14 70l2.5 12.5t1.5 8.5q3 13 5 20q-365 -15 -801 -15h-105q-92 9 -210 14zM911 534l-21 -259q-73 -5 -140 -5q-109 0 -186 17q-97 19 -162 69
q-54 40 -77 116q-19 62 -19 148q0 50 4 89q7 86 21 150q33 156 128 262q66 73 169 106q82 25 185 25h7q77 -2 137 -6q-15 -322 -46 -712z" />
    <glyph glyph-name="oe" unicode="&#x153;" horiz-adv-x="1941" 
d="M1060 557l12 12h181q120 0 181 1h35h67q54 0 83 1h80q45 0 61 1q24 0 24 1q1 1 1 9q6 60 6 123q0 163 -62 261q-49 56 -132 83q-75 23 -167 23h-22q-108 0 -209 -41q-114 -48 -187 -142q-52 94 -164 142q-97 41 -221 43h-20q-99 0 -179 -27q-99 -35 -159 -113
q-56 -82 -82 -204q-6 -29 -24 -158l-3 -29q-4 -37 -4 -112q0 -190 74 -299q44 -65 131 -96q75 -27 174 -27h25q115 0 215 41q117 48 187 146q56 -97 164 -146q99 -45 224 -45q84 0 136 10q75 13 140 53q41 25 72.5 69.5t46.5 92.5q-56 23 -76 32q-12 6 -77 32
q-47 -53 -90 -71q-50 -22 -140 -22h-22q-140 15 -215 98q-66 71 -66 216v21q0 14 1 21zM622 963h18q81 0 143 -33q68 -36 101 -111q28 -65 28 -162q0 -37 -3 -74q-5 -63 -15 -110q-20 -94 -74 -174q-43 -54 -115 -79q-59 -20 -133 -20h-11q-79 0 -137 39q-64 42 -89 117
q-18 53 -18 141q0 42 3 84q6 91 16 133q19 84 58 148q38 53 106 80q56 21 122 21zM1647 712l-13 -12q-186 -2 -281 -3q-47 0 -140.5 -0.5t-140.5 -1.5q21 95 101 177q87 91 220 91h5q133 0 191 -76q58 -78 58 -167v-8z" />
    <glyph glyph-name="circumflex" unicode="&#x2c6;" horiz-adv-x="806" 
d="M400 1475h124q9 -11 25 -35t24 -35q80 -121 145 -189l1 -4h-82q-70 50 -155 122l-57 48q-150 -107 -249 -168h-16q-5 -1 -16 -1q-13 0 -18 1h-16h-10q2 0 17 17q28 31 87 98q26 31 51 60q25 30 74 87q13 -1 35 -1h36z" />
    <glyph glyph-name="ring" unicode="&#x2da;" horiz-adv-x="680" 
d="M329 1187h8q92 0 150 61q50 50 65 124q5 18 6 37q1 5 1 13v12q0 81 -49 133q-53 63 -156 65h-8q-92 0 -151 -59q-49 -49 -64 -123q-5 -20 -6 -39q-1 -5 -1 -13v-14q0 -82 47 -135q59 -62 158 -62zM478 1422v-10q-5 -59 -45 -102q-42 -42 -97 -42h-9q-60 0 -93 42
q-30 34 -30 83q0 12 1 15q5 64 46 99q42 42 100 42h6q52 0 91 -41q30 -33 30 -86z" />
    <glyph glyph-name="tilde" unicode="&#x2dc;" horiz-adv-x="949" 
d="M624 1215h10q69 0 103 51q20 31 44 91l6 16q3 7 9 22l8 20q6 17 20 43q-5 -1 -15 -1h-16h-38q-21 -47 -53 -79q-38 -38 -84 -38h-9q-49 9 -126 56q-34 20 -50.5 29t-48.5 19.5t-61 10.5q-3 1 -14 1q-42 0 -78 -30q-37 -30 -49 -74q-10 -23 -11 -25q-7 -14 -16 -40
q-12 -33 -32 -75h30h19q12 0 18 1q21 48 51 79q37 39 81 39h6q1 -1 5 -1q56 -12 132 -57q99 -57 159 -58z" />
    <glyph glyph-name="endash" unicode="&#x2013;" horiz-adv-x="1384" 
d="M1262 530q-2 -14 -2 -19q0 -28 15 -49q-190 2 -270 2h-132h-138q-283 0 -567 -3q33 1 43 46q2 6 2 10v10q0 29 -15 51q190 -2 271 -2h133h138q272 0 547 3q-18 -21 -25 -49z" />
    <glyph glyph-name="emdash" unicode="&#x2014;" horiz-adv-x="2294" 
d="M167 442q359 22 1024 22h249h241q80 -1 242 -1q41 -1 124 -1.5t125 -0.5q-30 23 -30 62q9 34 44 56q-335 -3 -990 -3h-250q-162 0 -242 1q-161 0 -242 1q-165 0 -250 1q27 -24 31 -61q-5 -27 -25.5 -44t-50.5 -32z" />
    <glyph glyph-name="quoteleft" unicode="&#x2018;" horiz-adv-x="383" 
d="M84 970l-11 -3q36 4 79 4q53 0 102 -7q2 96 7 174h-33q-15 0 -24 1h-25q2 32 7 53q22 102 94 200q-6 -1 -18 -1h-19h-30q-10 0 -28 2q-48 -73 -70 -178q-16 -78 -19 -115z" />
    <glyph glyph-name="quoteright" unicode="&#x2019;" horiz-adv-x="396" 
d="M159 1221h50q-2 -32 -8 -56q-20 -94 -93 -195q7 1 21 1h19h31q8 0 28 -2q37 57 56 120q6 18 8 27q1 8 5 26q11 46 18 120q6 62 10 93l4 39q-37 -3 -73 -3q-53 0 -98 7q-1 -68 -10 -176h16q5 -1 16 -1z" />
    <glyph glyph-name="quotesinglbase" unicode="&#x201a;" horiz-adv-x="393" 
d="M262 -124l13 49q4 19 10 59q4 40 7 60q0 2 1 3v2q6 71 15 131q-38 -3 -73 -3q-54 0 -99 7q-1 -56 -9 -174q13 -1 41 -1h41q-1 -25 -7 -54q-22 -101 -94 -199q7 1 20 1h19h31q8 0 28 -2q41 66 56 121z" />
    <glyph glyph-name="quotedblleft" unicode="&#x201c;" horiz-adv-x="796" 
d="M333 1392l-97 4q-22 -40 -36 -81q-24 -73 -33 -143q-2 -10 -5 -28t-4 -28q-2 -6 -2 -8q0 -6 -1 -9q-9 -86 -33 -135q75 4 149 6h37q0 7 1.5 21.5t2.5 22.5t2.5 22t1.5 21q2 25 3 41q0 18 3 41h-16q-5 -1 -17 -1h-50q1 14 5 31q1 5 2.5 13t1.5 12q24 112 85 198zM466 981
v-19q34 5 75 5q47 0 94 -4q-4 41 -4 91q0 42 3 84h-33q-16 0 -25 1h-24q2 32 7 53q21 103 105 203q-33 -3 -98 -3q-32 -42 -51 -90q-38 -93 -44 -199q-5 -65 -5 -122z" />
    <glyph glyph-name="quotedblright" unicode="&#x201d;" horiz-adv-x="798" 
d="M331 1259l2 47q2 30 3 43t1 43q-84 0 -169 7q3 -39 3 -79q0 -48 -3 -96h16q4 -1 15 -1h50q-1 -27 -8 -55q-22 -107 -102 -201q32 2 48 2q33 0 50 1q40 50 65 122q6 16 15 59q13 58 14 108zM493 1391l-15 -168h42q29 0 42 1q-3 -36 -9 -61q-23 -101 -85 -194q32 -2 48 -2
q8 -1 24.5 -1.5t24.5 -0.5q24 47 38 89q25 78 34 149l9 60q4 44 22 134q-85 -4 -175 -6z" />
    <glyph glyph-name="quotedblbase" unicode="&#x201e;" horiz-adv-x="803" 
d="M335 47q5 76 6 131q-84 0 -169 7q2 -24 2 -36v-37q0 -32 -2 -102q13 -1 41 -1h40q-1 -25 -6 -51q-23 -104 -105 -205q32 2 48 2q33 0 50 1q44 58 66 123q5 14 15 56q8 36 14 112zM649 50q6 49 22 127q0 2 1 3v3q-61 -4 -174 -6q-10 -90 -17 -168h43q29 0 42 1
q-3 -32 -9 -58q-21 -103 -87 -197q6 -1 17 -1h16q18 -2 33 0q9 0 33 -2q25 47 38 90q31 96 42 208z" />
    <glyph glyph-name="bullet" unicode="&#x2022;" horiz-adv-x="762" 
d="M362 408h11q109 0 183 74q59 62 78 150q4 20 6 45q1 5 1 14v13q0 96 -59 158q-75 77 -187 77h-12q-106 0 -177 -70q-56 -55 -75 -144q-6 -29 -7 -47v-11q-1 -4 -1 -12q0 -109 56 -169q66 -78 183 -78z" />
    <glyph glyph-name="guilsinglleft" unicode="&#x2039;" horiz-adv-x="631" 
d="M170 536l131 -159q126 -152 173 -211q0 -6 1 -8v-8q-48 8 -149 14l-81 92q-139 163 -210 254q0 6 2 28l3 29q145 156 333 348l151 -12q-149 -152 -354 -367z" />
    <glyph glyph-name="guilsinglright" unicode="&#x203a;" horiz-adv-x="629" 
d="M155 913l-1 16q73 -11 145 -12q177 -208 292 -352l-3 -28q-3 -17 -3 -28q-92 -98 -333 -343q-86 0 -154 -4q0 1 1 2v1v2q-1 0 -1 1q0 6 1 7l43 44q158 159 313 319l-117 145q-99 120 -183 230z" />
    <glyph glyph-name="fraction" unicode="&#x2044;" horiz-adv-x="1101" 
d="M484 692l46 67q266 387 441 625q65 6 122 13q-196 -270 -483 -691q-310 -451 -478 -680q-82 -6 -124 -13q112 151 241 338q28 40 109 158t126 183z" />
    <glyph glyph-name="foursuperior" unicode="&#x2074;" horiz-adv-x="722" 
d="M512 759l45 -3q11 -1 29 -1q7 0 29 -2v22v11q0 7 1 10v25q0 15 1 24q-41 0 -103 2q15 247 49 537h-14q-5 -1 -15 -1q-12 -1 -40 -1h-41h-27q-98 -128 -145 -193q-12 -17 -143 -194l-108 -145l-4 -32q-1 -16 -3 -32q-3 -25 -4 -33q154 8 287 8h50q18 -1 50 -1
q-1 -15 -2.5 -43.5t-1.5 -42.5q-2 -29 -4 -87q46 0 79 -4q10 0 15 -1q4 -1 15 -1v29q0 49 2 127zM427 1267l18 -4q-1 -2 -2 -8t-1 -8q-2 -22 -2 -31q0 -2 -0.5 -5t-1 -4.5t-0.5 -2.5q-3 -29 -7 -87t-6 -86l-13 -183h-83q-81 0 -211 -2l221 292q18 22 88 129z" />
    <glyph glyph-name="Euro" unicode="&#x20ac;" horiz-adv-x="1246" 
d="M687 243h-7q-62 0 -104 9q-59 13 -89 41q-51 35 -78 94t-27 131h386q8 24 10 29q10 25 11 28l18 47q-71 1 -209 1h-210q0 48 4 94q1 11 3 35l4 48h390q14 39 20 51q11 27 20 52q-35 -1 -100 -1h-99h-110q-76 0 -111 1q2 6 11 56q28 130 91 211q39 51 108 78q55 22 122 22
h19q84 0 146 -49q62 -51 66 -132l52 6q28 3 54 6q25 2 53 6q-4 131 -107 211q-97 74 -237 74h-15q-10 0 -15 -1h-6q-101 0 -188 -29q-101 -34 -170 -114q-49 -60 -82 -141q-20 -50 -43 -151l-11 -49q-19 1 -59 1q-21 0 -59 2l-19 -53q-6 -18 -10 -26q-4 -10 -9 -29h144
q-13 -109 -14 -180q-19 -1 -58 -1h-57l-42 -108q102 2 156 2q2 -114 27 -206q30 -108 94 -175q109 -115 319 -120h13q167 0 260 66q48 34 83 94q28 49 44 113q-50 16 -75 23l-75 21q-18 5 -26 11q-13 8 -22 12q0 -24 -17.5 -46.5t-42.5 -32.5q-52 -32 -125 -32z" />
    <glyph glyph-name="trademark" unicode="&#x2122;" horiz-adv-x="872" 
d="M229 1374l106 -6l1 18q-20 0 -59.5 0.5t-58.5 1.5q-55 0 -118 3l4 -19q39 0 105 2v-13q0 -106 -23 -218q-1 -3 -4 -23q-1 -5 -7 -24q6 0 8 1h8h29q12 90 12 187q0 45 -3 90zM647 1095l51 -2q-13 56 -13 120t14 137q7 29 10 39h-29h-10q-3 -1 -11 -1q-55 -78 -127 -226
q-2 4 -14 38q-23 65 -29 86q-17 52 -23 70q-6 14 -12 30h-54q-13 -147 -27 -261l-3 -27h49q-1 12 -1 38v39q0 71 4 123l4 53l19 5l16 -63q36 -135 53 -177h39q33 116 102 241l17 -3q-1 -7 -5 -21q-4 -17 -5 -22q-18 -87 -18 -157q0 -30 3 -59z" />
    <glyph glyph-name="product" unicode="&#x220f;" horiz-adv-x="1707" 
 />
    <glyph glyph-name="approxequal" unicode="&#x2248;" horiz-adv-x="1212" 
d="M861 794h15q67 0 115 17q49 16 91 51v10q0 27 7 69q5 23 13 45q-139 -79 -229 -79h-9q-54 1 -101 15l-9 3q-6 2 -8 3q-6 1 -16.5 4.5t-15.5 5.5q-11 3 -33 13q-114 41 -185 56q-65 13 -106 13h-20q-132 0 -212 -73q0 -45 -8 -76q-7 -30 -12 -42q133 76 231 76h10
q93 -4 202 -44q170 -64 280 -67zM834 438h15q67 0 115 17q49 16 91 51v10q0 27 7 69q5 23 13 45q-139 -79 -229 -79h-9q-54 1 -101 15l-9 3q-6 2 -8 3q-5 1 -16 5t-16 5q-11 3 -33 13q-114 41 -185 56q-65 13 -106 13h-20q-132 0 -212 -73q0 -45 -8 -76q-7 -30 -12 -42
q133 76 231 76h10q93 -4 202 -44q170 -64 280 -67z" />
    <glyph glyph-name="notequal" unicode="&#x2260;" horiz-adv-x="1188" 
d="M382 -19l-31 -21q86 232 143 394q-150 -1 -337 -8q14 12 22 53q5 21 21 105q244 4 347 5q21 61 59.5 172.5t50.5 146.5q-219 0 -438 6q4 25 4 58q0 47 -8 105q215 -14 495 -14q12 37 37 110.5t38 110.5q58 174 89 261q111 2 193 26q-89 -240 -175 -493q-1 -2 -2.5 -7
t-2.5 -7q198 4 302 9q-5 -20 -9 -40q-4 -14 -9 -40q-8 -30 -15 -79q-111 -3 -321 -5q-36 -106 -110 -320q175 0 403 -5q2 -90 13 -161q-207 10 -468 12l-120 -354h-34q-43 0 -63 -3q-40 -8 -74 -17z" />
    <glyph glyph-name="NULL" horiz-adv-x="0" 
 />
    </font>
</defs>
</svg>
