<?xml version="1.0" standalone="no"?>
<!DOCTYPE svg PUBLIC "-//W3C//DTD SVG 1.1//EN" "http://www.w3.org/Graphics/SVG/1.1/DTD/svg11.dtd" >
<svg xmlns="http://www.w3.org/2000/svg" xmlns:xlink="http://www.w3.org/1999/xlink" version="1.1">
<metadata>
Created by FontForge 20170731 at Sun Jul  1 20:35:07 2012
 By Aleksey,,,
Copyright(c) 2012 Abelardo Gonzalez (abbie@abbiecod.es), with Reserved Font Name "Eulexia-Bold
</metadata>
<defs>
<font id="Eulexia-Bold" horiz-adv-x="1252" >
  <font-face 
    font-family="Eulexia Bold"
    font-weight="400"
    font-stretch="normal"
    units-per-em="2048"
    panose-1="0 0 5 0 0 0 0 0 0 0"
    ascent="1638"
    descent="-410"
    x-height="1083"
    cap-height="1409"
    bbox="-94 -495 2277 1984"
    underline-thickness="50"
    underline-position="-317"
    unicode-range="U+000D-2260"
  />
<missing-glyph horiz-adv-x="2048" 
 />
    <glyph glyph-name=".notdef" horiz-adv-x="2048" 
 />
    <glyph glyph-name=".null" horiz-adv-x="0" 
 />
    <glyph glyph-name="uni000D" unicode="&#xd;" horiz-adv-x="569" 
 />
    <glyph glyph-name="space" unicode=" " horiz-adv-x="713" 
 />
    <glyph glyph-name="exclam" unicode="!" horiz-adv-x="769" 
d="M525 370l-17 1017h-262l-33 -1017h312zM238 0h265v262h-265v-262z" />
    <glyph glyph-name="quotedbl" unicode="&#x22;" horiz-adv-x="1178" 
d="M567 881v525h-273v-525h273zM885 881l26 525h-274v-525h248z" />
    <glyph glyph-name="numbersign" unicode="#" horiz-adv-x="1400" 
d="M1056 806h229v212h-184l82 381h-225l-82 -381h-216l82 381h-225q-15 -72 -41 -188l-21 -99q-9 -44 -21 -94h-266v-212h221l-48 -232h-221v-212h176l-79 -381h224l80 381h215l-81 -381h225l82 381h275v212h-229zM619 806h211l-48 -232h-215z" />
    <glyph glyph-name="dollar" unicode="$" horiz-adv-x="1370" 
d="M571 3v-154h237v154q194 18 314 128q118 110 118 275q0 170 -99 266q-53 51 -118 82q-80 38 -215 70v305q49 -13 81 -59.5t52 -135.5l285 53q-58 205 -160 296q-95 84 -258 98v125h-237v-125q-164 -13 -276 -101q-126 -98 -126 -268q0 -79 20 -136t67 -108
q46 -52 108 -84q67 -35 207 -72v-357q-79 15 -120 58q-48 51 -75 179l-276 -59q82 -398 471 -430zM571 1136v-257q-63 21 -92 53t-29 82q0 103 121 122zM808 254v300q84 -24 116 -53q35 -34 35 -97q0 -62 -43 -102q-39 -35 -108 -48z" />
    <glyph glyph-name="percent" unicode="%" horiz-adv-x="2065" 
d="M815 596q-92 -126 -268 -126q-177 0 -268 125q-88 121 -88 351q0 236 85 351q90 120 275 120q352 0 352 -471q0 -229 -88 -350zM1356 1406h287l-935 -1425h-285zM474 785q24 -61 75 -61q45 0 71 62q23 56 25 179q-2 122 -21 179q-22 61 -73 61q-57 0 -78 -41
q-24 -48 -24 -181q0 -139 25 -198zM1789 795q84 -119 84 -353q0 -227 -90 -347q-93 -125 -269 -125t-265 120.5t-89 351.5q0 239 86.5 357.5t271.5 118.5q183 0 271 -123zM1589 246q25 60 25 196q0 137 -23 200q-22 61 -73 61q-46 0 -70 -47q-30 -57 -30 -214
q0 -137 24 -197q22 -61 74 -61q47 0 73 62z" />
    <glyph glyph-name="ampersand" unicode="&#x26;" horiz-adv-x="1570" 
d="M1348 723l-243 76q-55 -233 -137 -352q-108 131 -178 254q186 79 274 174q86 93 86 218q0 145 -104 233q-103 87 -270 87q-181 0 -285 -93q-102 -91 -102 -256q0 -54 17 -129q17 -77 39 -126q-300 -149 -300 -426q0 -194 127 -306q128 -114 353 -114q102 0 192 30t150 73
q111 -96 283 -96q94 0 192 40v243q-117 -40 -170 -40q-66 0 -117 44q124 193 193 466zM652 1087v7q2 149 124 149q51 0 81 -30t30 -82q-5 -67 -47 -113q-45 -49 -158 -107q-30 93 -30 176zM741 239q-58 -5 -110 -5q-92 0 -153 49q-56 44 -56 102q0 136 134 205
q104 -182 231 -338q-19 -11 -46 -13z" />
    <glyph glyph-name="quotesingle" unicode="'" horiz-adv-x="903" 
d="M613 863v562h-319v-562h319z" />
    <glyph glyph-name="parenleft" unicode="(" horiz-adv-x="926" 
d="M850 1462l-318 12q-211 -215 -306 -432q-97 -219 -104 -500q0 -291 73 -503q80 -231 271 -453l317 -11q-234 280 -304 499q-67 209 -67 458q0 233 94 456q85 206 344 474z" />
    <glyph glyph-name="parenright" unicode=")" horiz-adv-x="924" 
d="M801 519v5q0 291 -73 502q-81 232 -270 450l-318 11q237 -283 304 -496q67 -207 67 -461q0 -232 -94 -455q-83 -204 -344 -475l318 -12q209 210 306 431q93 212 104 500z" />
    <glyph glyph-name="asterisk" unicode="*" horiz-adv-x="1031" 
d="M644 1161v245h-242v-246l-224 89l-79 -240l237 -61l-163 -214l217 -131l124 201l120 -204l217 132l-159 216l242 61l-82 237q-138 -54 -208 -85z" />
    <glyph glyph-name="plus" unicode="+" horiz-adv-x="1103" 
d="M680 548h395v248h-395v398h-258v-398h-395v-248h395v-399h258v399z" />
    <glyph glyph-name="comma" unicode="," horiz-adv-x="742" 
d="M513 297h-303v-316h78q-17 -74 -134 -244h262q57 93 78 167q19 66 19 181v212z" />
    <glyph glyph-name="hyphen" unicode="-" horiz-adv-x="1173" 
d="M294 414h587v261h-587v-261z" />
    <glyph glyph-name="period" unicode="." horiz-adv-x="931" 
d="M294 0h347v381h-347v-381z" />
    <glyph glyph-name="slash" unicode="/" horiz-adv-x="742" 
d="M27 -37h277l410 1513h-273z" />
    <glyph glyph-name="zero" unicode="0" horiz-adv-x="1389" 
d="M1189 694q0 713 -490 713q-256 0 -376.5 -176.5t-120.5 -536.5q0 -351 123.5 -532t367.5 -181q243 0 369.5 182.5t126.5 530.5zM944 819q0 -208 -60 -306.5t-189 -98.5t-189 97.5t-60 307.5q0 221 58 313t195 92q134 0 191 -98q54 -93 54 -307z" />
    <glyph glyph-name="one" unicode="1" horiz-adv-x="1195" 
d="M194 0h897v333h-320v1054h-204l-335 -231v-250l296 212v-785h-334v-333z" />
    <glyph glyph-name="two" unicode="2" horiz-adv-x="1382" 
d="M212 0h944v334h-511q6 2 6 4q0 4 12 18q4 5 15 16.5t17 17.5q36 36 101 96q120 114 202 217q71 92 100 151q37 76 37 156q0 192 -115.5 294.5t-333.5 102.5q-197 0 -319 -103q-129 -108 -152 -313l247 -21q12 106 71.5 165t152.5 59q97 0 150 -49t53 -141q0 -67 -31 -113
q-28 -43 -100 -111q-53 -49 -121 -102l-154 -119q-19 -15 -37 -28q-32 -26 -62 -53q-44 -42 -65 -66q-10 -12 -32 -38q-43 -49 -75 -88v-286z" />
    <glyph glyph-name="three" unicode="3" horiz-adv-x="1323" 
d="M412 451l-268 -46q26 -208 155 -316t346 -108q228 0 356 111q127 110 127 308q0 111 -56.5 190t-162.5 117q183 96 183 315q0 181 -121.5 283t-332.5 102q-199 0 -320 -100q-129 -107 -152 -314l227 -8q12 105 71 162t155 57q102 0 165 -55q61 -56 61 -145
q0 -90 -64 -142q-67 -56 -189 -56h-128v-201h132q131 0 201 -54q64 -51 64 -136q0 -48 -52 -79q-58 -34 -164 -34q-182 0 -233 149z" />
    <glyph glyph-name="four" unicode="4" horiz-adv-x="1206" 
d="M928 297h130v235h-141l-46 855h-231l-619 -910v-181h547l-29 -296h413zM629 1033l-34 -501h-305z" />
    <glyph glyph-name="five" unicode="5" horiz-adv-x="1345" 
d="M469 435l-279 -78q37 -184 159.5 -280t322.5 -96q233 0 369 131q134 129 134 353q0 199 -127 323t-334 124q-125 0 -229 -51l17 337h597v189h-819l-49 -780h217q59 50 113.5 72t117.5 22q105 0 169 -55q66 -58 66 -147q0 -33 -7 -57q-13 -52 -41 -85q-20 -24 -48 -33
q-27 -9 -71 -15q-36 -5 -50 -7l-12 -2q-189 17 -216 135z" />
    <glyph glyph-name="six" unicode="6" horiz-adv-x="1327" 
d="M887 1031l233 42q-97 334 -422 334q-242 0 -373 -194q-133 -196 -133 -550q0 -333 127 -507q125 -175 366 -175q212 0 337 131t125 355q0 207 -117.5 331.5t-315.5 124.5q-173 0 -276 -97q16 182 82 276t177 94q139 0 190 -165zM920 558q0 -97 -59 -151.5t-163 -54.5
q-102 0 -167 68q-63 66 -63 170q0 78 64 124q61 43 161 43q108 0 167.5 -51.5t59.5 -147.5z" />
    <glyph glyph-name="seven" unicode="7" horiz-adv-x="1177" 
d="M1092 1206v181h-942v-217h671q-254 -378 -353 -610q-123 -285 -123 -560h373q0 210 41 379q3 14 9.5 42t10.5 42q9 40 21 85q27 100 60 169z" />
    <glyph glyph-name="eight" unicode="8" horiz-adv-x="1364" 
d="M1167 403q0 115 -50 200t-143 127q77 47 118.5 126.5t41.5 174.5q0 169 -124 273q-125 103 -332 103q-204 0 -327 -103t-123 -271q0 -98 42 -176q43 -85 119 -127q-91 -46 -141.5 -132.5t-50.5 -195.5q0 -200 130 -311q127 -110 355 -110q229 0 359 114q126 111 126 308z
M886 1063q0 -102 -52 -149t-156 -47q-100 0 -154 50t-54 146q0 187 208 187t208 -187zM963 459q-2 -108 -57 -136q-67 -34 -217 -34q-281 0 -281 167q0 90 72 140.5t202 50.5q136 0 208.5 -47.5t72.5 -140.5z" />
    <glyph glyph-name="nine" unicode="9" horiz-adv-x="1336" 
d="M467 399l-270 -81q48 -176 151.5 -256.5t273.5 -80.5q279 0 402 192q111 173 111 547q0 343 -122 515t-360 172q-221 0 -347.5 -129.5t-126.5 -354.5q24 -189 132 -279q103 -87 295 -95q199 10 265 41l13 6q-24 -154 -64 -205q-54 -70 -225 -70q-83 0 -128 78zM856 951
q0 -34 -20 -49q-34 -25 -83 -48q-67 -31 -129 -31q-102 0 -162 48t-60 122q0 112 58 176q59 65 166 65t169 -78q61 -76 61 -205z" />
    <glyph glyph-name="colon" unicode=":" horiz-adv-x="931" 
d="M294 719h347v364h-347v-364zM294 0h347v364h-347v-364z" />
    <glyph glyph-name="semicolon" unicode=";" horiz-adv-x="752" 
d="M203 713h358v375h-381zM539 359l-359 11v-363l121 -4q-20 -152 -177 -360l263 -10q76 109 109 215q31 97 43 254v257z" />
    <glyph glyph-name="less" unicode="&#x3c;" horiz-adv-x="1305" 
d="M10 539l966 -506l22 293l-655 351l707 231l21 257l-1037 -331z" />
    <glyph glyph-name="equal" unicode="=" horiz-adv-x="1591" 
d="M294 769h1004v244h-1004v-244zM294 309h1004v244h-1004v-244z" />
    <glyph glyph-name="greater" unicode="&#x3e;" horiz-adv-x="1307" 
d="M236 121l1038 330l23 294l-964 508l-22 -259l658 -350l-710 -232z" />
    <glyph glyph-name="question" unicode="?" horiz-adv-x="1165" 
d="M795 579l71 58q121 86 171 164q50 80 50 198q0 190 -130 299t-354 109q-220 0 -344 -107q-133 -115 -164 -347l238 -17q13 132 91 202q70 64 190 64q111 0 150 -48q44 -55 60 -146q-2 -98 -68 -158q-38 -34 -147 -103q-112 -73 -178 -131q-90 -79 -95 -265h366
q2 50 10 81q14 58 50 105q16 19 33 42zM339 -102h347v355h-347v-355z" />
    <glyph glyph-name="at" unicode="@" horiz-adv-x="2054" 
d="M1620 -74l-103 183q162 42 262 219q98 174 98 413q0 321 -199 517q-204 199 -552 199q-274 0 -491 -127q-212 -123 -333 -342q-122 -221 -122 -493q0 -348 213 -553q103 -100 247 -153t317 -53q348 0 663 190zM1332 1080l-23 -97q-95 117 -270 117q-146 0 -265 -87
q-112 -82 -176 -222t-64 -298q0 -187 92 -291q91 -105 253 -105q192 0 318 154q25 -139 189 -153q-81 -46 -163 -57q-135 -18 -266 -18q-183 0 -297 44q-119 44 -192 150q-82 116 -82 278q0 351 212 565q99 99 232.5 152t288.5 53q253 0 404 -142q153 -144 153 -376
q0 -136 -35 -247q-32 -97 -88 -135q-46 -33 -113 -33q-38 0 -38 50q0 77 33 181l119 517h-222zM682 600q0 132 73 217q56 66 155 101q71 25 139 25q97 0 131 -122q21 -75 21 -235q0 -65 -44 -102q-50 -42 -150 -42q-35 0 -53 -1t-55 -1q-88 0 -149 40q-68 45 -68 120z" />
    <glyph glyph-name="A" unicode="A" horiz-adv-x="1560" 
d="M1122 0h355l-566 1409h-256l-574 -1409h368l58 248h548zM575 581l208 535q20 -62 44 -117q59 -164 76 -208q47 -124 77 -210h-405z" />
    <glyph glyph-name="B" unicode="B" horiz-adv-x="1545" 
d="M294 0h579q249 0 379 109t130 305q0 129 -61 218t-184 126q111 93 111 290q0 361 -432 361h-522v-1409zM550 1217h245q115 0 172 -38.5t57 -124.5q0 -183 -229 -183h-245v346zM550 625h299q275 0 275 -141q0 -79 -56 -113q-60 -35 -204 -35h-314v289z" />
    <glyph glyph-name="C" unicode="C" horiz-adv-x="1580" 
d="M1326 128v467q-95 -131 -220 -171q-75 -24 -228 -24q-210 18 -304 84q-54 37 -77 78q-29 46 -46 149q2 236 103 363q104 132 306 132q81 0 172 -27q100 -33 296 -130v246q-100 76 -195 106q-97 29 -227 29h-25q-9 -1 -25 -1q-317 -1 -502 -196q-183 -192 -183 -522
q0 -334 182 -532q181 -198 499 -198q183 0 268 28q76 24 206 119z" />
    <glyph glyph-name="D" unicode="D" horiz-adv-x="1692" 
d="M294 0h535q313 0 499 194q189 195 189 524q0 330 -196 511q-195 180 -548 180h-479v-1409zM549 1189h219q241 0 366.5 -97.5t125.5 -285.5q0 -186 -122 -295q-121 -109 -329 -109h-260v787z" />
    <glyph glyph-name="E" unicode="E" horiz-adv-x="1534" 
d="M294 0h986v432h-729v181h613v221h-613v353h689v222h-946v-1409z" />
    <glyph glyph-name="F" unicode="F" horiz-adv-x="1316" 
d="M643 1186h645v223h-994v-1409h371q-4 52 -23 269q-11 109 -24 271h505v292h-505q6 103 13 179q8 112 12 175z" />
    <glyph glyph-name="G" unicode="G" horiz-adv-x="1677" 
d="M1278 995l160 175q-67 98 -135 152t-168.5 80.5t-251.5 26.5q-330 0 -514 -189q-187 -190 -187 -529q0 -335 185 -531q187 -199 511 -199q207 0 361 63q170 70 227 194v514h-584v-274h285v-44q-120 -112 -260 -112h-11q-7 0 -10 1q-202 22 -304 128q-91 94 -112 264
q0 229 98 369q110 158 314 158q138 0 235.5 -60t160.5 -187z" />
    <glyph glyph-name="H" unicode="H" horiz-adv-x="1728" 
d="M1127 0h373l-95 1409h-290l30 -611h-503l30 611h-348l-89 -1409h403q-2 61 -3 121q-2 93 -8 259q-4 88 -5 124h505v-504z" />
    <glyph glyph-name="I" unicode="I" horiz-adv-x="909" 
d="M244 0h425l-50 1409h-325z" />
    <glyph glyph-name="J" unicode="J" horiz-adv-x="1008" 
d="M30 55v-491q95 -59 220 -59q17 0 55 2q164 14 278 110q126 107 143 311l122 1464l-309 25l-73 -1028q-13 -182 -37 -302q-24 -114 -53 -134q-52 -40 -97 -40q-4 0 -5 1h-5h-7q-3 -1 -8 -1q-36 0 -69 13q-35 14 -155 129z" />
    <glyph glyph-name="K" unicode="K" horiz-adv-x="1700" 
d="M960 0h657q-58 52 -125 107q-72 59 -290 232q-19 15 -149 118q-176 142 -270 224l696 728h-336q-43 -43 -91.5 -92t-108 -109.5t-92.5 -93.5q-196 -198 -293 -296l27 591h-291v-1409h359l-70 520z" />
    <glyph glyph-name="L" unicode="L" 
d="M294 0h940v337h-622l50 1072h-318z" />
    <glyph glyph-name="M" unicode="M" horiz-adv-x="2100" 
d="M1463 0h345v1409h-358l-378 -893l-361 893h-417v-1410h373q-9 180 -30 466q-24 321 -29 475l324 -858h280q34 95 77 208q54 142 81 214q14 36 41.5 108t40.5 108q54 142 79 211z" />
    <glyph glyph-name="N" unicode="N" horiz-adv-x="1852" 
d="M1130 0h429v1409h-286v-890l-621 890h-358v-1409h374q-14 250 -36 497t-36 501z" />
    <glyph glyph-name="O" unicode="O" horiz-adv-x="1777" 
d="M1588 711q0 331 -184 524q-186 194 -503 194q-334 0 -521 -189q-190 -192 -190 -529q0 -333 182 -530q184 -200 504 -200q329 0 521 195q191 196 191 535zM1328 763q0 -107 -27 -179t-84.5 -113.5t-136 -59t-192.5 -17.5q-213 0 -329 82q-110 76 -110 287q0 212 115 329
q114 114 326 114q208 0 324 -118q114 -117 114 -325z" />
    <glyph glyph-name="P" unicode="P" horiz-adv-x="1355" 
d="M555 516h269q229 0 363 123t134 327q0 207 -134 323q-134 114 -374 114h-482l-91 -1403h395zM617 1202h207q288 0 288 -193q0 -102 -69 -150t-211 -48h-236q3 54 6 102q1 34 5 95q1 31 5 95q1 26 5 99z" />
    <glyph glyph-name="Q" unicode="Q" horiz-adv-x="1744" 
d="M1394 -319l161 292q-137 -30 -182 -30q-82 0 -158 13q-38 7 -73 111q200 53 285 207q81 145 81 437q0 331 -184 524q-186 194 -503 194q-333 0 -522 -189q-190 -190 -190 -529q0 -318 160 -508q169 -202 492 -214q92 -174 189 -251q101 -82 250 -82q90 0 194 25zM607 540
l35 -157q-273 35 -273 363q0 219 115 339q115 121 326 121t326 -123q112 -121 112 -337q0 -210 -169 -295l-88 -29l-41 185z" />
    <glyph glyph-name="R" unicode="R" horiz-adv-x="1661" 
d="M1051 0h568l-546 600q73 47 133 172q57 117 57 218q0 201 -94 308q-97 111 -282 111h-563l-50 -1409h408l-77 525h77zM579 1198h249q71 0 124 -49q60 -57 60 -152q0 -63 -57 -120q-58 -58 -120 -58h-256v379z" />
    <glyph glyph-name="S" unicode="S" horiz-adv-x="1536" 
d="M458 513l-302 -133q93 -399 609 -399q277 0 433 113q155 113 155 312q0 148 -87 246q-72 80 -208 128q-71 25 -254 67q-169 38 -222 62q-54 24 -80 55.5t-26 79.5q0 173 291 173q132 0 206.5 -49t104.5 -157l254 44q-63 217 -193 298q-122 76 -370 76q-264 0 -404 -102
q-141 -104 -141 -293q0 -163 110 -262q57 -51 138 -83q94 -38 248 -73l165 -39q74 -18 109 -44t35 -67q0 -12 -3 -34q-13 -25 -26 -38t-37 -21q-40 -13 -194 -13q-135 0 -200 11q-57 10 -111 142z" />
    <glyph glyph-name="T" unicode="T" horiz-adv-x="1374" 
d="M817 1185l456 -20v244h-1172v-244l457 20l-48 -1185h357q-5 127 -12 295q-2 51 -6 152t-6 152q-1 31 -11 254.5t-15 331.5z" />
    <glyph glyph-name="U" unicode="U" horiz-adv-x="1690" 
d="M305 1409l-50 -887q0 -252 159 -397q156 -144 421 -144q277 0 439 148q166 152 166 409v871h-265v-698q0 -166 -90 -248q-87 -80 -252 -80q-152 0 -236 84.5t-95 242.5l50 699h-247z" />
    <glyph glyph-name="V" unicode="V" horiz-adv-x="1559" 
d="M968 0l505 1409h-269l-423 -871l-425 871h-269l505 -1409h376z" />
    <glyph glyph-name="W" unicode="W" horiz-adv-x="2243" 
d="M1663 0l466 1409h-266q-42 -131 -175 -438q-127 -289 -177 -442l-293 533h-175l-289 -533l-374 880h-265l465 -1409h358l183 658l174 -658h368z" />
    <glyph glyph-name="X" unicode="X" horiz-adv-x="1817" 
d="M1203 0h470l-620 729l492 680h-301l-346 -478l-338 478h-293q21 -29 62.5 -86.5t54.5 -76.5q150 -210 248 -349q90 -127 117 -166l-598 -731h456l294 482z" />
    <glyph glyph-name="Y" unicode="Y" horiz-adv-x="1500" 
d="M907 502l513 907h-285l-382 -595l-386 595h-285q117 -208 125 -222q43 -77 131 -231q25 -45 71 -127t59 -105q8 -14 125 -222l-97 -502h504z" />
    <glyph glyph-name="Z" unicode="Z" horiz-adv-x="1662" 
d="M1394 0v396h-673l629 810v203h-1024v-242h648l-717 -806v-361h1137z" />
    <glyph glyph-name="bracketleft" unicode="[" horiz-adv-x="1021" 
d="M294 -392h476l14 278q-48 2 -101 6q-54 4 -108 6q14 265 45 659t45 658l259 -11v250h-570z" />
    <glyph glyph-name="backslash" unicode="\" horiz-adv-x="708" 
d="M422 -18h261l-400 1462h-257z" />
    <glyph glyph-name="bracketright" unicode="]" horiz-adv-x="970" 
d="M141 -381l540 -19l64 1842l-483 17l-8 -240h163l-46 -1309l-220 8z" />
    <glyph glyph-name="asciicircum" unicode="^" horiz-adv-x="1214" 
d="M804 605h316l-388 771h-252l-385 -771h295l216 548z" />
    <glyph glyph-name="underscore" unicode="_" horiz-adv-x="1770" 
d="M294 -365h1183v226h-1183v-226z" />
    <glyph glyph-name="grave" unicode="`" horiz-adv-x="650" 
d="M384 1079h160v92l-223 295h-268v-108z" />
    <glyph glyph-name="a" unicode="a" horiz-adv-x="1400" 
d="M859 686l-207 -11q-226 -12 -340.5 -98.5t-114.5 -257.5q0 -159 86 -247q89 -91 256 -91q112 0 194.5 36.5t144.5 116.5q20 -74 69.5 -108.5t137.5 -34.5q81 0 165 22v252q-39 -9 -59 -12q-20 -4 -33 -4q-18 0 -28 9q-17 15 -22 59q-1 7 -5 45v363q0 185 -105 280.5
t-314 95.5q-394 0 -448 -343l184 -17q10 84 90 140q75 53 174 53q89 0 134 -62q41 -59 41 -165v-21zM831 542v-40q0 -58 -30 -89q-34 -38 -94 -66q-71 -33 -143 -33q-64 0 -103 15q-54 21 -66 65q1 101 95 137q28 11 149 11h192z" />
    <glyph glyph-name="b" unicode="b" horiz-adv-x="1283" 
d="M487 0l8 91q106 -110 292 -110q407 0 420 562q-12 287 -111 421q-101 137 -309 137q-165 0 -261 -84q0 -4 -1 -4v9l42 434h-243q-5 -86 -12.5 -231.5t-10.5 -205.5q-7 -135 -17 -327.5t-13 -256.5q-4 -80 -8.5 -178.5t-5.5 -115.5q-1 -45 -3 -72q-1 -22 -3 -45t-2 -24
h238zM951 429q-47 -63 -152 -63q-122 0 -177 68.5t-55 215.5q0 150 56 210q52 56 177 56q114 0 156 -50q46 -56 59 -214q-14 -156 -64 -223z" />
    <glyph glyph-name="c" unicode="c" horiz-adv-x="1242" 
d="M1101 203l-234 207q-25 -32 -47 -54q-20 -20 -33 -21q-16 -1 -46 -11q-29 -9 -74 -9q-101 0 -157 49q-67 59 -67 182q0 189 49 270q49 79 167 79q83 0 135 -46q33 -29 96 -132l163 138q-26 40 -34 55q-13 24 -27 45q-24 38 -66 73q-95 73 -263 73q-228 0 -348.5 -143.5
t-120.5 -415.5q0 -276 120 -418.5t351 -142.5q172 0 248 46q79 48 188 176z" />
    <glyph glyph-name="d" unicode="d" horiz-adv-x="1295" 
d="M761 0h228q1 7 1.5 23t0.5 24q0 39 1 61q1 11 1.5 34t0.5 34q0 46 1 68l43 1215h-241l-28 -460q-96 102 -283 102q-408 0 -418 -565q11 -284 109 -417q102 -138 309 -138q98 0 153 11q71 15 114 56q0 -10 3 -19q0 -3 2 -12.5t3 -16.5zM330 849q49 63 154 63
q123 0 177 -61q55 -62 55 -208q0 -156 -51 -215t-178 -59q-109 0 -155 52q-52 56 -62 214q9 143 60 214z" />
    <glyph glyph-name="e" unicode="e" horiz-adv-x="1357" 
d="M442 581h695v64q-22 225 -136.5 340.5t-317.5 115.5q-237 0 -363 -143.5t-126 -418.5q0 -274 126 -416t370 -142h118q26 3 91 7q45 3 85 9q86 13 151 52v337q-53 -23 -86 -32q-60 -15 -117 -15q-25 -1 -55 -6q-3 0 -11.5 -1t-18.5 -2l-20 -2q-34 -3 -97 -3q-74 0 -128 22
q-43 17 -84 51q-66 53 -76 183zM913 751h-450q21 73 73 119q59 51 144 51q93 0 153 -50q53 -44 80 -120z" />
    <glyph glyph-name="f" unicode="f" horiz-adv-x="841" 
d="M519 894h187v205h-196v65q0 85 85 85q30 0 111 -14v201q-80 19 -165 19q-143 0 -221 -69t-80 -197q0 -15 -2 -45q0 -7 -2 -22t-2 -23h-117v-205h107l-50 -894h375q-9 247 -14 446q-3 86 -8.5 240.5t-7.5 207.5z" />
    <glyph glyph-name="g" unicode="g" horiz-adv-x="1397" 
d="M290 -77v-330q47 -30 104 -39.5t137 -9.5q46 0 69 1t73 1q218 7 338 146q115 133 123 373q7 228 15 416q14 377 21 516q3 65 5 86h-223q-16 -26 -27 -103q-105 119 -281 119q-207 0 -316 -126q-116 -136 -123 -420q13 -289 117 -426q99 -134 303 -134q64 0 133 22
q75 24 104 64l35 49q-29 -79 -68 -141q-48 -78 -95 -96q-39 -12 -114 -12h-6q-103 0 -157 6q-100 11 -167 38zM877 626q0 -84 -30 -152q-33 -65 -72 -92q-47 -32 -130 -32q-131 0 -180.5 65.5t-49.5 223.5q0 149 60 212q53 57 172 57q102 0 166 -75q64 -77 64 -207z" />
    <glyph glyph-name="h" unicode="h" horiz-adv-x="1349" 
d="M606 1457h-312v-1457h336q-4 98 -26 317q-20 200 -20 317q0 123 54 192q56 71 160 71q102 0 135 -40q35 -43 35 -178l-45 -679h337l-39 711q-11 205 -97 297q-88 93 -269 93q-183 0 -285 -112q10 165 36 468z" />
    <glyph glyph-name="i" unicode="i" horiz-adv-x="840" 
d="M295 1185h270v272h-270v-272zM231 0h366l-40 1092h-286z" />
    <glyph glyph-name="j" unicode="j" horiz-adv-x="837" 
d="M388 1192h270v272h-270v-272zM577 -95l70 1187h-292l-73 -1058q-3 -46 -7 -67q-5 -27 -14 -35q-29 -29 -66 -29q-5 0 -19 2l-142 26v-296q109 -28 216 -28q124 0 202 72q77 72 125 226z" />
    <glyph glyph-name="k" unicode="k" horiz-adv-x="1223" 
d="M768 0h448l-512 556l491 527h-299l-373 -419v793h-229v-1457h263q-21 237 -36 364q-2 14 -5.5 43t-5.5 40q-4 24 -4 34q0 -1 1 -2t9 -15q18 -32 23 -41q28 -51 119 -219q27 -51 110 -204z" />
    <glyph glyph-name="l" unicode="l" horiz-adv-x="835" 
d="M274 2h442v235h-125l50 1150h-297z" />
    <glyph glyph-name="m" unicode="m" horiz-adv-x="2010" 
d="M809 0h300l29 621q25 169 65 224q36 52 130 52q151 0 151 -163q0 -27 -4 -55l-53 -679h330q-5 91 -7 126q-6 90 -9 137q-10 146 -14 264q-12 354 -85 461q-81 104 -250 104q-100 0 -171 -31.5t-128 -103.5q-38 71 -106.5 103t-176.5 32q-172 0 -265 -104q-1 53 -8 95
h-234q12 -85 12 -251l-49 -832h323l-33 610q2 142 52.5 214.5t142.5 72.5q81 0 113 -19q41 -26 41 -103q0 -24 -7 -78z" />
    <glyph glyph-name="n" unicode="n" horiz-adv-x="1440" 
d="M862 0h361l-55 703q-17 209 -97 298q-82 91 -263 91q-178 0 -280 -106l6 87h-232q-6 -54 -6 -84q0 -28 1 -41q1 -14 1 -40v-23q0 -5 -0.5 -12.5t-1 -18.5t-0.5 -20q0 -7 -1 -25t-1.5 -35.5t-1.5 -35.5q-1 -21 -3.5 -74t-3.5 -85q-3 -73 -13.5 -271.5t-15.5 -307.5h322
l-32 656q1 98 53 169q49 70 152 70q101 0 138 -33q40 -36 40 -139v-17q0 -12 -1 -19z" />
    <glyph glyph-name="o" unicode="o" horiz-adv-x="1376" 
d="M1175 542q0 282 -120.5 416t-365.5 134q-489 0 -489 -550q0 -274 122.5 -417.5t360.5 -143.5q242 0 367 139.5t125 421.5zM925 558q0 -133 -49 -166q-56 -37 -194 -37q-132 0 -182 39.5t-50 163.5q0 180 55 258t187 78q127 0 181 -77q52 -74 52 -259z" />
    <glyph glyph-name="p" unicode="p" horiz-adv-x="1328" 
d="M597 -397l-34 490q107 -112 283 -112q408 0 408 565q0 285 -101 419.5t-307 134.5q-166 0 -261 -83l28 61h-300l-50 -1475h334zM1026 374q-56 -37 -170 -37q-77 0 -119 7t-74.5 31.5t-44 71.5t-11.5 127q0 128 28 196q28 75 75 119q56 51 144 51q110 0 167 -92
q50 -80 63 -238q-12 -199 -58 -236z" />
    <glyph glyph-name="q" unicode="q" horiz-adv-x="1319" 
d="M794 1096l-16 -123q-53 70 -123.5 99t-172.5 29q-408 0 -408 -564q0 -281 99 -418.5t309 -137.5q96 0 161.5 24t116.5 79l-32 -480h300v1492h-234zM721 580q0 -139 -53 -189q-49 -48 -180 -48q-60 0 -94.5 8t-60.5 32t-36 68.5t-10 117.5q0 175 47.5 254.5t154.5 79.5
q121 0 176.5 -78.5t55.5 -244.5z" />
    <glyph glyph-name="r" unicode="r" horiz-adv-x="951" 
d="M253 0h368l-36 645q2 74 53 146q56 76 129 82q46 -2 100 -20l27 230q-62 18 -112 18q-127 -13 -210 -107v89h-279z" />
    <glyph glyph-name="s" unicode="s" horiz-adv-x="1250" 
d="M399 423l-238 -209q59 -113 162 -169q116 -64 302 -64q209 0 328 88q119 89 119 247q0 197 -186 278q-27 12 -47 19q-54 18 -152 46q-120 34 -142 41q-27 8 -36 12q-66 28 -66 74q0 102 184 102q82 0 154 -35l3 -2q70 -44 112 -77l126 178q-70 53 -144 96q-77 41 -251 41
q-209 0 -315.5 -80.5t-106.5 -238.5q0 -76 40 -136t110 -96q55 -28 213 -72l121 -32q63 -16 84 -44q13 -18 13 -54q0 -10 -3 -24q-5 -20 -24 -26t-44 -7q-38 -2 -81 -2q-114 13 -148 38q-24 18 -43 41q-28 33 -44 67z" />
    <glyph glyph-name="t" unicode="t" horiz-adv-x="800" 
d="M672 -9v364q-32 0 -88 2q-7 0 -20.5 0.5t-19.5 1.5q-22 0 -29 1l3 -1q-45 7 -58 27q-8 12 -13 71v4q-1 1 -1 4v420h216v214h-213v284h-200l-17 -284h-139v-214h127l-22 -634v-20q-1 -7 -1 -19q0 -125 65 -179q56 -48 177 -48q27 0 111 2q10 1 31 1t32 1q10 0 30 0.5
t29 1.5z" />
    <glyph glyph-name="u" unicode="u" horiz-adv-x="1484" 
d="M514 1092h-243v-718q0 -206 88 -300q86 -93 269 -93q164 0 273 98l-11 -79h304l50 1092h-290l-55 -497q-17 -153 -62 -213q-48 -66 -152 -66q-100 0 -136 47q-35 46 -35 175v554z" />
    <glyph glyph-name="v" unicode="v" horiz-adv-x="1260" 
d="M792 0l365 1092h-256l-272 -634l-262 634h-254l343 -1092h336z" />
    <glyph glyph-name="w" unicode="w" horiz-adv-x="1836" 
d="M1370 0l290 1083h-267q-36 -119 -102 -332q-10 -32 -47 -151.5t-57 -183.5l-197 267h-147q-191 -258 -198 -267l-198 667h-269l283 -1083h281l175 312l171 -312h282z" />
    <glyph glyph-name="x" unicode="x" horiz-adv-x="1536" 
d="M950 0h394l-437 549l376 534h-279l-238 -367l-221 367h-304q95 -144 186 -280q145 -217 188 -282l-408 -521h373l185 327z" />
    <glyph glyph-name="y" unicode="y" horiz-adv-x="1314" 
d="M284 -53v-329q100 -14 171 -14q89 0 166 44q76 45 131 125q60 87 122 250l406 1069h-216l-282 -530l-317 530h-242q14 -28 49.5 -103.5t56.5 -118.5q36 -77 110 -233q104 -218 217 -457l-9 -82q-12 -74 -82 -119q-68 -43 -165 -43q-50 0 -116 11z" />
    <glyph glyph-name="z" unicode="z" horiz-adv-x="1405" 
d="M272 0h856v288h-491l472 637v158h-806v-185h491l-522 -636v-262z" />
    <glyph glyph-name="braceleft" unicode="{" horiz-adv-x="924" 
d="M525 -382h176v226h-112q-52 0 -74 33.5t-22 104.5v321q0 147 -106 229q28 23 46 48q60 75 60 179v321q0 72 22 105t74 33h112v226h-176q-293 0 -293 -318v-326q0 -78 -47 -116.5t-147 -42.5v-220q101 -5 147.5 -43t46.5 -117v-324q0 -154 75 -236.5t218 -82.5z" />
    <glyph glyph-name="bar" unicode="|" horiz-adv-x="705" 
d="M265 657l227 -10v809h-227v-799zM504 443h-274v-851h218z" />
    <glyph glyph-name="braceright" unicode="}" horiz-adv-x="926" 
d="M337 -156h-110v-226h174q141 0 217 83t76 236v324q0 79 46.5 117.5t147.5 41.5v221q-101 4 -147.5 42.5t-46.5 116.5v326q0 318 -293 318h-174v-226h110q52 0 74.5 -33.5t22.5 -104.5v-321q0 -144 104 -226q-48 -40 -76 -100.5t-28 -129.5v-321q0 -71 -22.5 -104.5
t-74.5 -33.5z" />
    <glyph glyph-name="asciitilde" unicode="~" horiz-adv-x="1507" 
d="M241 730v-225q87 63 149.5 90t119.5 27q76 0 189 -40q64 -23 97 -33.5t86.5 -22t96.5 -11.5q84 0 149 22q60 20 131 71v235q-156 -126 -265 -126q-19 0 -46 6q-40 8 -100 26q-6 2 -11 3.5t-9 3.5l-4 1q-122 43 -188 58q-48 11 -112 11q-155 0 -283 -96z" />
    <glyph glyph-name="exclamdown" unicode="&#xa1;" horiz-adv-x="811" 
d="M573 1083h-284v-291h284v291zM307 726l-23 -1019h265v1019h-242z" />
    <glyph glyph-name="cent" unicode="&#xa2;" horiz-adv-x="1132" 
d="M1038 526l-271 94q-14 -102 -58.5 -153t-110.5 -51q-97 0 -144 79t-47 246q0 125 41 190q45 72 148 72q132 0 163 -180l278 21q-67 333 -325 386v146h-223v-145q-178 -32 -269.5 -172.5t-91.5 -377.5q0 -487 361 -551v-158h223v158q135 24 219 123t107 273z" />
    <glyph glyph-name="sterling" unicode="&#xa3;" horiz-adv-x="1369" 
d="M1213 348l-220 107q-29 -182 -161 -182h-347q92 106 92 285v24h380v195h-380v250q0 96 42.5 141t130.5 45q55 0 99.5 -36.5t64.5 -98.5l235 49q-42 133 -147 206q-106 74 -256 74q-202 0 -307 -103t-105 -303v-224h-173v-195h173v-41q0 -101 -39.5 -169.5t-123.5 -111.5
v-260h688q151 0 242.5 90t111.5 258z" />
    <glyph glyph-name="currency" unicode="&#xa4;" horiz-adv-x="1398" 
d="M223 1003l98 -98q-62 -106 -62 -230q0 -125 62 -231l-100 -99l147 -151l102 102q101 -63 231 -63q125 0 229 62l100 -99l146 151l-97 97q66 106 66 231q0 120 -65 230l95 94l-149 151l-96 -96q-103 64 -229 64q-125 0 -232 -66l-97 99zM543 518v-1q-66 66 -66 159
q0 94 68 160q67 65 156 65t156 -65q68 -68 68 -160q0 -91 -66 -157t-158 -66q-93 0 -158 65z" />
    <glyph glyph-name="yen" unicode="&#xa5;" horiz-adv-x="1390" 
d="M901 735l393 652h-273q-97 -167 -162 -280q-33 -57 -94 -162.5t-71 -121.5l-324 564h-274q70 -114 95 -156q36 -59 104 -172.5t97 -161.5q19 -32 53 -88.5t44 -73.5h-270v-191h355v-69h-355v-193h355v-282h240v282h357v193h-357v69h357v191h-270z" />
    <glyph glyph-name="brokenbar" unicode="&#xa6;" horiz-adv-x="811" 
d="M294 658h229v799h-229v-799zM294 -404h229v800h-229v-800z" />
    <glyph glyph-name="section" unicode="&#xa7;" horiz-adv-x="1307" 
d="M863 1118l225 27q-32 153 -142.5 232.5t-287.5 79.5q-207 0 -315 -81t-108 -230q0 -150 137 -233q-73 -39 -116 -109q-41 -67 -41 -142q0 -122 87 -200q90 -83 282 -128q173 -43 226 -75q62 -39 62 -102q0 -58 -58 -89.5t-166 -31.5q-127 0 -176 30q-53 32 -76 136
l-224 -43q42 -177 157 -250q107 -69 319 -69q207 0 329 90q119 88 119 242q0 81 -34.5 140t-109.5 105q53 32 86 73q64 82 64 186q0 163 -172 258q-66 35 -220 74q-138 33 -192 65q-59 33 -59 86q0 49 50.5 76t148.5 27q178 0 205 -144zM880 655q0 -62 -51 -98t-143 -40
q-117 31 -161 52q-86 41 -86 106q0 61 49.5 100t132.5 45q142 -34 203 -74q56 -39 56 -91z" />
    <glyph glyph-name="dieresis" unicode="&#xa8;" horiz-adv-x="1180" 
d="M294 1136h229v246h-229v-246zM661 1136h227v246h-227v-246z" />
    <glyph glyph-name="copyright" unicode="&#xa9;" horiz-adv-x="1768" 
d="M1594 696q0 194 -98 360q-95 161 -257 255q-165 96 -356 96q-196 0 -363 -100q-160 -97 -252 -259q-96 -165 -96 -352q0 -189 99 -357q95 -161 256 -256q166 -98 356 -98q201 0 368 102q157 96 251 260q92 164 92 349zM1434 704q0 -146 -74 -274q-68 -117 -201 -166
q-107 -39 -276 -39q-167 0 -271 38q-134 49 -203 167q-74 128 -74 274q0 226 167 390q76 75 175 116.5t206 41.5q152 0 280 -76q122 -74 197 -200q74 -128 74 -272zM1272 529l-181 54q-72 -152 -197 -152q-100 0 -156 69.5t-56 197.5q0 129 53 194.5t154 65.5
q125 0 188 -134l178 51q-119 255 -368 255q-195 0 -297.5 -111t-102.5 -321q0 -204 109 -321q108 -117 298 -117q123 0 212 62t166 207z" />
    <glyph glyph-name="ordfeminine" unicode="&#xaa;" horiz-adv-x="1112" 
d="M651 1111h-130q-170 -17 -246 -76q-81 -63 -81 -187q0 -113 69 -177t186 -64q150 0 230 89q44 -84 164 -84q41 0 114 21v176q-29 -10 -50 -15q-19 -6 -27 -6q-12 0 -17 15q-5 17 -5 49v287q0 270 -313 270q-133 0 -221 -75q-85 -75 -105 -208l215 -14q9 69 37 98.5
t76 29.5q56 0 80 -25t24 -82v-22zM651 953v-22q0 -59 -48 -102q-49 -44 -117 -44q-78 0 -78 75q0 45 29 65q30 21 123 25z" />
    <glyph glyph-name="guillemotleft" unicode="&#xab;" horiz-adv-x="1372" 
d="M446 122h213v80l-295 333l305 327v83h-207l-343 -364v-87zM882 118l213 -3v80l-297 332l307 327v83h-208l-344 -363v-88z" />
    <glyph glyph-name="logicalnot" unicode="&#xac;" horiz-adv-x="1352" 
d="M695 162h364v626h-1005v-331q59 6 183.5 20.5t189.5 21.5q128 14 191 21q27 3 90 9.5t96 10.5z" />
    <glyph glyph-name="registered" unicode="&#xae;" horiz-adv-x="1768" 
d="M1496 1056q98 -166 98 -360q0 -185 -92 -349q-94 -164 -251 -260q-167 -102 -368 -102q-190 0 -356 98q-161 95 -256 256q-99 168 -99 357q0 187 96 352q92 162 252 259q167 100 363 100q191 0 356 -96q162 -94 257 -255zM1057 611l191 -303q69 47 112 122q74 128 74 274
q0 144 -74 272q-75 126 -197 200q-128 76 -280 76q-107 0 -206 -41.5t-175 -116.5q-167 -164 -167 -390q0 -146 74 -274q60 -103 171 -155v843h323q149 0 229.5 -68t80.5 -190q0 -93 -41 -156t-115 -93zM772 746h133q56 0 85.5 29t29.5 83q0 46 -33.5 70t-92.5 24h-122v-206
zM772 269h-179q3 -2 10 -4t10 -4q105 -41 270 -41q164 0 274 41q4 2 10 4t10 4h-176l-140 313h-89v-313z" />
    <glyph glyph-name="macron" unicode="&#xaf;" horiz-adv-x="1747" 
d="M1454 1353v162h-1160v-162h1160z" />
    <glyph glyph-name="degree" unicode="&#xb0;" horiz-adv-x="957" 
d="M783 1104q0 128 -89 215.5t-216 87.5q-126 0 -214 -88q-91 -91 -91 -215q0 -125 91 -214t214 -89q127 0 216 91q89 89 89 212zM607 1104q0 -53 -37 -92q-38 -38 -92 -38t-90 38q-38 38 -38 92t37 92.5t91 38.5q55 0 92 -39t37 -92z" />
    <glyph glyph-name="plusminus" unicode="&#xb1;" horiz-adv-x="1242" 
d="M728 634h395v209h-395v367h-212v-367h-395v-209h395v-368h212v368zM121 0h1002v210h-1002v-210z" />
    <glyph glyph-name="twosuperior" unicode="&#xb2;" horiz-adv-x="1067" 
d="M208 525h634v179h-380l4 8q2 5 3 5q2 0 17 12q18 12 38 30q71 57 116 90q190 139 190 295q0 119 -80 187t-214 68q-140 0 -220 -70q-86 -74 -105 -226l200 -11q8 65 39 99t80 34q98 0 98 -90q0 -42 -38 -87.5t-119 -103.5q-206 -144 -263 -278v-141z" />
    <glyph glyph-name="threesuperior" unicode="&#xb3;" horiz-adv-x="993" 
d="M339 814l-202 -18q39 -283 339 -283q151 0 232.5 69t81.5 196q0 138 -111 195q92 63 92 186q0 108 -80 174q-82 66 -217 66t-218.5 -74.5t-99.5 -210.5l201 -18q5 62 35 95.5t79 33.5q47 0 72 -21.5t25 -61.5q0 -43 -32.5 -66.5t-90.5 -23.5h-90v-176h94q139 0 139 -91
q0 -100 -112 -100q-120 0 -137 129z" />
    <glyph glyph-name="acute" unicode="&#xb4;" horiz-adv-x="599" 
d="M93 1119h139l330 279v82h-248l-221 -293v-68z" />
    <glyph glyph-name="uni00B5" unicode="&#xb5;" horiz-adv-x="1341" 
d="M294 -396h242v412q65 -35 156 -35q161 0 261 122q41 -122 198 -122q55 0 143 28v197q-46 -12 -56 -14q-25 -5 -32 -5q-20 0 -27 24q-8 24 -8 74v798h-244v-524q0 -134 -58 -205t-166 -71q-85 0 -125.5 55t-40.5 166v579h-243v-1479z" />
    <glyph glyph-name="paragraph" unicode="&#xb6;" horiz-adv-x="1316" 
d="M979 1218h30v169h-509q-173 0 -278 -100q-104 -101 -104 -272q0 -157 88 -256q86 -97 219 -111l-47 -894h274v1464h91v-1464h342z" />
    <glyph glyph-name="periodcentered" unicode="&#xb7;" horiz-adv-x="838" 
d="M294 416h256v279h-256v-279z" />
    <glyph glyph-name="cedilla" unicode="&#xb8;" horiz-adv-x="724" 
d="M179 -230v-166q54 -8 121 -8q293 0 293 206q0 70 -40.5 115t-118.5 59l39 99h-183l-88 -251q74 8 108 8q86 0 86 -34q0 -38 -99 -38q-37 0 -118 10z" />
    <glyph glyph-name="onesuperior" unicode="&#xb9;" horiz-adv-x="919" 
d="M215 525h594v174h-201v688h-164l-220 -144v-203l188 127v-468h-197v-174z" />
    <glyph glyph-name="ordmasculine" unicode="&#xba;" horiz-adv-x="1119" 
d="M920 1008q0 401 -360 401q-179 0 -271 -102.5t-92 -298.5t91.5 -298.5t267.5 -102.5q180 0 272 103t92 298zM707 1008q0 -120 -35 -174.5t-117 -54.5q-74 0 -108 55.5t-34 173.5q0 121 34.5 174.5t114.5 53.5q81 0 114 -51q31 -49 31 -177z" />
    <glyph glyph-name="guillemotright" unicode="&#xbb;" horiz-adv-x="1369" 
d="M473 129l340 356v88l-326 378h-211v-81l294 -336l-308 -323v-82h211zM906 121l343 356v89l-329 378h-209v-81l294 -337l-308 -323v-82h209z" />
    <glyph glyph-name="onequarter" unicode="&#xbc;" horiz-adv-x="1758" 
d="M180 525h594v174h-201v688h-164l-220 -144v-203l188 127v-468h-197v-174zM695 0l864 1387h-223l-867 -1387h226zM1501 130h103v180h-103v517h-198l-377 -544v-153h378v-165h197v165zM1304 310h-151l151 219v-219z" />
    <glyph glyph-name="onehalf" unicode="&#xbd;" horiz-adv-x="1797" 
d="M60 525h594v174h-201v688h-164l-220 -144v-203l188 127v-468h-197v-174zM566 0l864 1387h-223l-867 -1387h226zM975 -40h634v179h-380l4 8q2 5 3 5q2 0 17 12q18 12 38 30q71 57 116 90q190 139 190 295q0 119 -80 187t-214 68q-140 0 -220 -70q-86 -74 -105 -226
l200 -11q8 65 39 99t80 34q98 0 98 -90q0 -42 -38 -87.5t-119 -103.5q-206 -144 -263 -278v-141z" />
    <glyph glyph-name="threequarters" unicode="&#xbe;" horiz-adv-x="1741" 
d="M260 814l-202 -18q39 -283 339 -283q151 0 232.5 69t81.5 196q0 138 -111 195q92 63 92 186q0 108 -80 174q-82 66 -217 66t-218.5 -74.5t-99.5 -210.5l201 -18q5 62 35 95.5t79 33.5q47 0 72 -21.5t25 -61.5q0 -43 -32.5 -66.5t-90.5 -23.5h-90v-176h94q139 0 139 -91
q0 -100 -112 -100q-121 0 -137 129zM580 3l864 1387h-223l-867 -1387h226zM1390 130h103v180h-103v517h-198l-377 -544v-153h378v-165h197v165zM1193 310h-151l151 219v-219z" />
    <glyph glyph-name="questiondown" unicode="&#xbf;" horiz-adv-x="1158" 
d="M762 1083h-286v-291h286v291zM382 522l-72 -52q-119 -86 -168 -167q-52 -84 -52 -202q0 -189 133 -302q132 -112 353 -112q220 0 347 111q133 116 164 362l-301 40q-2 -88 -47 -133q-52 -49 -143 -49q-89 0 -138 43t-49 117q0 60 45 101q48 42 112 86l55 38q30 27 54 60
q77 98 82 281h-270q-2 -149 -105 -222z" />
    <glyph glyph-name="Agrave" unicode="&#xc0;" horiz-adv-x="1394" 
d="M615 1506h160v92l-223 295h-268v-108zM1004 0h355l-566 1409h-256l-574 -1409h368l58 248h548zM457 581l208 535q20 -62 44 -117q59 -164 76 -208q47 -124 77 -210h-405z" />
    <glyph glyph-name="Aacute" unicode="&#xc1;" horiz-adv-x="1394" 
d="M433 1446h139l330 279v82h-248l-221 -293v-68zM1004 0h355l-566 1409h-256l-574 -1409h368l58 248h548zM457 581l208 535q20 -62 44 -117q59 -164 76 -208q47 -124 77 -210h-405z" />
    <glyph glyph-name="Acircumflex" unicode="&#xc2;" horiz-adv-x="1394" 
d="M946 1515l-228 276h-224l-239 -276v-69h146l203 148l194 -148h148v69zM1004 0h355l-566 1409h-256l-574 -1409h368l58 248h548zM457 581l208 535q20 -62 44 -117q59 -164 76 -208q47 -124 77 -210h-405z" />
    <glyph glyph-name="Atilde" unicode="&#xc3;" horiz-adv-x="1394" 
d="M316 1446h159q17 111 77 111q23 0 55 -17q51 -29 68 -38q98 -56 162 -56q101 0 150 62q59 74 80 262h-160q-15 -111 -76 -111q-21 0 -53 18q-18 9 -69 38q-100 55 -162 55q-73 0 -120 -36q-48 -36 -71 -90q-27 -67 -40 -198zM1004 0h355l-566 1409h-256l-574 -1409h368
l58 248h548zM457 581l208 535q20 -62 44 -117q59 -164 76 -208q47 -124 77 -210h-405z" />
    <glyph glyph-name="Adieresis" unicode="&#xc4;" horiz-adv-x="1394" 
d="M355 1520h229v246h-229v-246zM722 1520h227v246h-227v-246zM1004 0h355l-566 1409h-256l-574 -1409h368l58 248h548zM457 581l208 535q20 -62 44 -117q59 -164 76 -208q47 -124 77 -210h-405z" />
    <glyph glyph-name="Aring" unicode="&#xc5;" horiz-adv-x="1558" 
d="M1005 1722q0 107 -78 185q-79 77 -184 77q-107 0 -185 -76q-78 -78 -78 -186t78 -186q77 -77 185 -77q106 0 184 78q78 76 78 185zM830 1722q0 -38 -23.5 -64t-63.5 -26q-39 0 -64 25.5t-25 64.5q0 38 26 63t63 25q36 0 61 -25q26 -26 26 -63zM1086 0h355l-566 1409h-256
l-574 -1409h368l58 248h548zM539 581l208 535q20 -62 44 -117q59 -164 76 -208q47 -124 77 -210h-405z" />
    <glyph glyph-name="AE" unicode="&#xc6;" horiz-adv-x="2303" 
d="M1019 0h1012v291h-756v321h662v222h-662v352h718v223h-1205l-686 -1409h272q13 26 44.5 92t49.5 103q65 135 94 195h457v-390zM1019 1194v-587h-356l275 587h81z" />
    <glyph glyph-name="Ccedilla" unicode="&#xc7;" horiz-adv-x="1457" 
d="M681 -230v-166q54 -8 121 -8q293 0 293 206q0 70 -40.5 115t-118.5 59l5 12q64 8 107 21q76 24 206 119v467q-95 -131 -220 -171q-75 -24 -228 -24q-210 18 -304 84q-54 37 -77 78q-29 46 -46 149q2 236 103 363q104 132 306 132q81 0 172 -27q100 -33 296 -130v246
q-100 76 -195 106q-97 29 -227 29h-25q-9 -1 -25 -1q-317 -1 -502 -196q-183 -192 -183 -522t176 -525q179 -198 484 -204l-55 -158q74 8 108 8q86 0 86 -34q0 -38 -99 -38q-37 0 -118 10z" />
    <glyph glyph-name="Egrave" unicode="&#xc8;" horiz-adv-x="1138" 
d="M544 1476h160v92l-223 295h-268v-108zM97 0h986v432h-729v181h613v221h-613v353h689v222h-946v-1409z" />
    <glyph glyph-name="Eacute" unicode="&#xc9;" horiz-adv-x="1138" 
d="M250 1446h139l330 279v82h-248l-221 -293v-68zM96 0h986v432h-729v181h613v221h-613v353h689v222h-946v-1409z" />
    <glyph glyph-name="Ecircumflex" unicode="&#xca;" horiz-adv-x="1138" 
d="M864 1557l-228 276h-224l-239 -276v-69h146l203 148l194 -148h148v69zM96 0h986v432h-729v181h613v221h-613v353h689v222h-946v-1409z" />
    <glyph glyph-name="Edieresis" unicode="&#xcb;" horiz-adv-x="1138" 
d="M284 1463h229v246h-229v-246zM651 1463h227v246h-227v-246zM96 0h986v432h-729v181h613v221h-613v353h689v222h-946v-1409z" />
    <glyph glyph-name="Igrave" unicode="&#xcc;" horiz-adv-x="552" 
d="M245 1486h160v92l-223 295h-268v-108zM82 0h425l-50 1409h-325z" />
    <glyph glyph-name="Iacute" unicode="&#xcd;" horiz-adv-x="552" 
d="M148 1516h139l330 279v82h-248l-221 -293v-68zM88 0h425l-50 1409h-325z" />
    <glyph glyph-name="Icircumflex" unicode="&#xce;" horiz-adv-x="629" 
d="M632 1575l-228 276h-224l-239 -276v-69h146l203 148l194 -148h148v69zM89 0h425l-50 1409h-325z" />
    <glyph glyph-name="Idieresis" unicode="&#xcf;" horiz-adv-x="552" 
d="M-94 1535h229v246h-229v-246zM273 1535h227v246h-227v-246zM-17 0h425l-50 1409h-325z" />
    <glyph glyph-name="Eth" unicode="&#xd0;" horiz-adv-x="1413" 
d="M142 0h535q313 0 499 194q189 195 189 524q0 330 -196 511q-195 180 -548 180h-479v-1409zM397 1189h219q217 0 340.5 -79.5t146.5 -233.5h-706v313zM657 402h-260v248h684q-45 -118 -155 -183t-269 -65z" />
    <glyph glyph-name="Ntilde" unicode="&#xd1;" horiz-adv-x="1384" 
d="M316 1486h159q17 111 77 111q23 0 55 -17q51 -29 68 -38q98 -56 162 -56q101 0 150 62q59 74 80 262h-160q-15 -111 -76 -111q-21 0 -53 18q-18 9 -69 38q-100 55 -162 55q-73 0 -120 -36q-48 -36 -71 -90q-27 -67 -40 -198zM916 0h429v1409h-286v-890l-621 890h-358
v-1409h374q-14 250 -36 497t-36 501z" />
    <glyph glyph-name="Ograve" unicode="&#xd2;" horiz-adv-x="1598" 
d="M653 1477h160v92l-223 295h-268v-108zM1468 711q0 331 -184 524q-186 194 -503 194q-334 0 -521 -189q-190 -192 -190 -529q0 -333 182 -530q184 -200 504 -200q329 0 521 195q191 196 191 535zM1208 763q0 -107 -27 -179t-84.5 -113.5t-136 -59t-192.5 -17.5
q-213 0 -329 82q-110 76 -110 287q0 212 115 329q114 114 326 114q208 0 324 -118q114 -117 114 -325z" />
    <glyph glyph-name="Oacute" unicode="&#xd3;" horiz-adv-x="1598" 
d="M561 1446h139l330 279v82h-248l-221 -293v-68zM1467 711q0 331 -184 524q-186 194 -503 194q-334 0 -521 -189q-190 -192 -190 -529q0 -333 182 -530q184 -200 504 -200q329 0 521 195q191 196 191 535zM1207 763q0 -107 -27 -179t-84.5 -113.5t-136 -59t-192.5 -17.5
q-213 0 -329 82q-110 76 -110 287q0 212 115 329q114 114 326 114q208 0 324 -118q114 -117 114 -325z" />
    <glyph glyph-name="Ocircumflex" unicode="&#xd4;" horiz-adv-x="1598" 
d="M1074 1515l-228 276h-224l-239 -276v-69h146l203 148l194 -148h148v69zM1467 711q0 331 -184 524q-186 194 -503 194q-334 0 -521 -189q-190 -192 -190 -529q0 -333 182 -530q184 -200 504 -200q329 0 521 195q191 196 191 535zM1207 763q0 -107 -27 -179t-84.5 -113.5
t-136 -59t-192.5 -17.5q-213 0 -329 82q-110 76 -110 287q0 212 115 329q114 114 326 114q208 0 324 -118q114 -117 114 -325z" />
    <glyph glyph-name="Otilde" unicode="&#xd5;" horiz-adv-x="1598" 
d="M444 1446h159q17 111 77 111q23 0 55 -17q51 -29 68 -38q98 -56 162 -56q101 0 150 62q59 74 80 262h-160q-15 -111 -76 -111q-21 0 -53 18q-18 9 -69 38q-100 55 -162 55q-73 0 -120 -36q-48 -36 -71 -90q-27 -67 -40 -198zM1467 711q0 331 -184 524q-186 194 -503 194
q-334 0 -521 -189q-190 -192 -190 -529q0 -333 182 -530q184 -200 504 -200q329 0 521 195q191 196 191 535zM1207 763q0 -107 -27 -179t-84.5 -113.5t-136 -59t-192.5 -17.5q-213 0 -329 82q-110 76 -110 287q0 212 115 329q114 114 326 114q208 0 324 -118
q114 -117 114 -325z" />
    <glyph glyph-name="Odieresis" unicode="&#xd6;" horiz-adv-x="1598" 
d="M450 1465h229v246h-229v-246zM817 1465h227v246h-227v-246zM1467 711q0 331 -184 524q-186 194 -503 194q-334 0 -521 -189q-190 -192 -190 -529q0 -333 182 -530q184 -200 504 -200q329 0 521 195q191 196 191 535zM1207 763q0 -107 -27 -179t-84.5 -113.5t-136 -59
t-192.5 -17.5q-213 0 -329 82q-110 76 -110 287q0 212 115 329q114 114 326 114q208 0 324 -118q114 -117 114 -325z" />
    <glyph glyph-name="multiply" unicode="&#xd7;" horiz-adv-x="1372" 
d="M211 345l147 -151l332 332l330 -330l146 151l-328 328l327 324l-150 150l-162 -162q-56 -56 -84 -83l-81 -81l-326 328l-149 -148l328 -328z" />
    <glyph glyph-name="Oslash" unicode="&#xd8;" horiz-adv-x="1598" 
d="M401 -30h277l4 14q36 -3 73 -3q329 0 521 195q191 196 191 535q0 246 -107 423q-104 172 -300 247l28 102h-273l-15 -55q-7 0 -10 1h-10q-334 0 -521 -189q-190 -192 -190 -529q0 -234 91.5 -404t262.5 -255zM739 1205l-212 -775q-46 16 -89 46q-110 76 -110 287
q0 205 107 320t304 122zM793 394l206 762q208 -106 208 -393q0 -106 -26.5 -178t-82 -113t-128.5 -58.5t-177 -19.5z" />
    <glyph glyph-name="Ugrave" unicode="&#xd9;" horiz-adv-x="1383" 
d="M676 1406h160v92l-223 295h-268v-108zM123 1409l-50 -887q0 -252 159 -397q156 -144 421 -144q277 0 439 148q166 152 166 409v871h-265v-698q0 -166 -90 -248q-87 -80 -252 -80q-152 0 -236 84.5t-95 242.5l50 699h-247z" />
    <glyph glyph-name="Uacute" unicode="&#xda;" horiz-adv-x="1383" 
d="M443 1446h139l330 279v82h-248l-221 -293v-68zM123 1409l-50 -887q0 -252 159 -397q156 -144 421 -144q277 0 439 148q166 152 166 409v871h-265v-698q0 -166 -90 -248q-87 -80 -252 -80q-152 0 -236 84.5t-95 242.5l50 699h-247z" />
    <glyph glyph-name="Ucircumflex" unicode="&#xdb;" horiz-adv-x="1383" 
d="M1008 1515l-228 276h-224l-239 -276v-69h146l203 148l194 -148h148v69zM123 1409l-50 -887q0 -252 159 -397q156 -144 421 -144q277 0 439 148q166 152 166 409v871h-265v-698q0 -166 -90 -248q-87 -80 -252 -80q-152 0 -236 84.5t-95 242.5l50 699h-247z" />
    <glyph glyph-name="Udieresis" unicode="&#xdc;" horiz-adv-x="1383" 
d="M377 1466h229v246h-229v-246zM744 1466h227v246h-227v-246zM123 1409l-50 -887q0 -252 159 -397q156 -144 421 -144q277 0 439 148q166 152 166 409v871h-265v-698q0 -166 -90 -248q-87 -80 -252 -80q-152 0 -236 84.5t-95 242.5l50 699h-247z" />
    <glyph glyph-name="Yacute" unicode="&#xdd;" horiz-adv-x="1476" 
d="M556 1446h139l330 279v82h-248l-221 -293v-68zM843 502l513 907h-285l-382 -595l-386 595h-285q117 -208 125 -222q43 -77 131 -231q25 -45 71 -127t59 -105q8 -14 125 -222l-97 -502h504z" />
    <glyph glyph-name="Thorn" unicode="&#xde;" horiz-adv-x="1411" 
d="M551 281h354q229 0 364 127q132 124 132 325q0 205 -134 322q-136 116 -374 116h-342v238h-257v-1409h257v281zM551 960h320q135 0 204 -60t69 -170q0 -114 -69 -177t-196 -63h-328v470z" />
    <glyph glyph-name="germandbls" unicode="&#xdf;" horiz-adv-x="1453" 
d="M627 312v-272q135 -59 300 -59q176 0 274 87q97 86 97 244q0 192 -189 320q-6 4 -14 10q-12 7 -14 8q-54 35 -87 63q-39 33 -39 61q0 19 15 37q12 16 78 75q117 107 117 257q0 143 -117 228.5t-307 85.5q-472 0 -472 -463v-994h242v989q0 134 55.5 198t174.5 64
q85 0 135 -32q54 -34 54 -89q0 -67 -90 -140q-61 -50 -87 -92q-30 -50 -30 -114q0 -89 48 -161q43 -65 145 -135q148 -51 148 -152q0 -56 -36 -86t-104 -30q-69 0 -129 18q-84 25 -168 74z" />
    <glyph glyph-name="agrave" unicode="&#xe0;" 
d="M517 1140h160v92l-223 295h-268v-108zM735 686l-207 -11q-226 -12 -340.5 -98.5t-114.5 -257.5q0 -159 86 -247q89 -91 256 -91q112 0 194.5 36.5t144.5 116.5q20 -74 69.5 -108.5t137.5 -34.5q81 0 165 22v252q-39 -9 -59 -12q-20 -4 -33 -4q-18 0 -28 9q-17 15 -22 59
q-1 7 -5 45v363q0 185 -105 280.5t-314 95.5q-394 0 -448 -343l184 -17q10 84 90 140q75 53 174 53q89 0 134 -62q41 -59 41 -165v-21zM707 542v-40q0 -58 -30 -89q-34 -38 -94 -66q-71 -33 -143 -33q-64 0 -103 15q-54 21 -66 65q1 101 95 137q28 11 149 11h192z" />
    <glyph glyph-name="aacute" unicode="&#xe1;" 
d="M303 1119h139l330 279v82h-248l-221 -293v-68zM735 686l-207 -11q-226 -12 -340.5 -98.5t-114.5 -257.5q0 -159 86 -247q89 -91 256 -91q112 0 194.5 36.5t144.5 116.5q20 -74 69.5 -108.5t137.5 -34.5q81 0 165 22v252q-39 -9 -59 -12q-20 -4 -33 -4q-18 0 -28 9
q-17 15 -22 59q-1 7 -5 45v363q0 185 -105 280.5t-314 95.5q-394 0 -448 -343l184 -17q10 84 90 140q75 53 174 53q89 0 134 -62q41 -59 41 -165v-21zM707 542v-40q0 -58 -30 -89q-34 -38 -94 -66q-71 -33 -143 -33q-64 0 -103 15q-54 21 -66 65q1 101 95 137q28 11 149 11
h192z" />
    <glyph glyph-name="acircumflex" unicode="&#xe2;" 
d="M894 1188l-228 276h-224l-239 -276v-69h146l203 148l194 -148h148v69zM735 686l-207 -11q-226 -12 -340.5 -98.5t-114.5 -257.5q0 -159 86 -247q89 -91 256 -91q112 0 194.5 36.5t144.5 116.5q20 -74 69.5 -108.5t137.5 -34.5q81 0 165 22v252q-39 -9 -59 -12
q-20 -4 -33 -4q-18 0 -28 9q-17 15 -22 59q-1 7 -5 45v363q0 185 -105 280.5t-314 95.5q-394 0 -448 -343l184 -17q10 84 90 140q75 53 174 53q89 0 134 -62q41 -59 41 -165v-21zM707 542v-40q0 -58 -30 -89q-34 -38 -94 -66q-71 -33 -143 -33q-64 0 -103 15q-54 21 -66 65
q1 101 95 137q28 11 149 11h192z" />
    <glyph glyph-name="atilde" unicode="&#xe3;" 
d="M213 1119h159q17 111 77 111q23 0 55 -17q51 -29 68 -38q98 -56 162 -56q101 0 150 62q59 74 80 262h-160q-15 -111 -76 -111q-22 0 -53 18q-18 9 -69 38q-100 55 -162 55q-74 0 -120 -36q-48 -36 -71 -90q-27 -67 -40 -198zM735 686l-207 -11q-226 -12 -340.5 -98.5
t-114.5 -257.5q0 -159 86 -247q89 -91 256 -91q112 0 194.5 36.5t144.5 116.5q20 -74 69.5 -108.5t137.5 -34.5q81 0 165 22v252q-39 -9 -59 -12q-20 -4 -33 -4q-18 0 -28 9q-17 15 -22 59q-1 7 -5 45v363q0 185 -105 280.5t-314 95.5q-394 0 -448 -343l184 -17
q10 84 90 140q75 53 174 53q89 0 134 -62q41 -59 41 -165v-21zM707 542v-40q0 -58 -30 -89q-34 -38 -94 -66q-71 -33 -143 -33q-64 0 -103 15q-54 21 -66 65q1 101 95 137q28 11 149 11h192z" />
    <glyph glyph-name="adieresis" unicode="&#xe4;" 
d="M274 1158h229v246h-229v-246zM641 1158h227v246h-227v-246zM735 686l-207 -11q-226 -12 -340.5 -98.5t-114.5 -257.5q0 -159 86 -247q89 -91 256 -91q112 0 194.5 36.5t144.5 116.5q20 -74 69.5 -108.5t137.5 -34.5q81 0 165 22v252q-39 -9 -59 -12q-20 -4 -33 -4
q-18 0 -28 9q-17 15 -22 59q-1 7 -5 45v363q0 185 -105 280.5t-314 95.5q-394 0 -448 -343l184 -17q10 84 90 140q75 53 174 53q89 0 134 -62q41 -59 41 -165v-21zM707 542v-40q0 -58 -30 -89q-34 -38 -94 -66q-71 -33 -143 -33q-64 0 -103 15q-54 21 -66 65q1 101 95 137
q28 11 149 11h192z" />
    <glyph glyph-name="aring" unicode="&#xe5;" 
d="M831 1421q0 107 -78 185q-79 77 -184 77q-107 0 -185 -76q-78 -78 -78 -186t78 -186q77 -77 185 -77q106 0 184 78q78 76 78 185zM656 1421q0 -38 -23.5 -64t-63.5 -26q-39 0 -64 25.5t-25 64.5q0 38 26 63t63 25q36 0 61 -25q26 -26 26 -63zM735 686l-207 -11
q-226 -12 -340.5 -98.5t-114.5 -257.5q0 -159 86 -247q89 -91 256 -91q112 0 194.5 36.5t144.5 116.5q20 -74 69.5 -108.5t137.5 -34.5q81 0 165 22v252q-39 -9 -59 -12q-20 -4 -33 -4q-18 0 -28 9q-17 15 -22 59q-1 7 -5 45v363q0 185 -105 280.5t-314 95.5
q-394 0 -448 -343l184 -17q10 84 90 140q75 53 174 53q89 0 134 -62q41 -59 41 -165v-21zM707 542v-40q0 -58 -30 -89q-34 -38 -94 -66q-71 -33 -143 -33q-64 0 -103 15q-54 21 -66 65q1 101 95 137q28 11 149 11h192z" />
    <glyph glyph-name="ae" unicode="&#xe6;" horiz-adv-x="2073" 
d="M1144 469h710v59q0 573 -481 573q-203 0 -321 -111q-113 111 -327 111q-403 0 -458 -343l252 -22q16 105 59 137q35 26 143 26q96 0 136 -43q43 -46 43 -149v-21h-187q-255 -20 -369 -103q-115 -84 -115 -264q0 -160 88 -247q93 -91 263 -91q132 0 230 48t171 153
q120 -201 398 -201q345 0 459 300l-219 64q-25 -74 -85 -117q-63 -46 -155 -46q-109 0 -168.5 72.5t-66.5 214.5zM1602 672h-453q13 112 70 171.5t151 59.5q105 0 160 -52q56 -54 72 -179zM900 498v-46q0 -114 -79 -191q-79 -79 -202 -79q-69 0 -106 35t-37 99q0 82 45 117
q48 39 167 39q64 0 89 -3z" />
    <glyph glyph-name="ccedilla" unicode="&#xe7;" horiz-adv-x="1083" 
d="M346 -230v-166q54 -8 121 -8q293 0 293 206q0 70 -40.5 115t-118.5 59l3 7q119 7 180 44q79 48 188 176l-234 207q-25 -32 -47 -54q-19 -20 -33 -21q-16 -1 -46 -11q-28 -9 -74 -9q-101 0 -157 49q-67 59 -67 182q0 189 49 270q49 79 167 79q83 0 135 -46q33 -29 96 -132
l163 138q-26 40 -34 55q-14 24 -27 45q-24 38 -66 73q-95 73 -263 73q-228 0 -348.5 -143.5t-120.5 -415.5q0 -240 92 -380t270 -172l-58 -166q74 8 108 8q86 0 86 -34q0 -38 -99 -38q-37 0 -118 10z" />
    <glyph glyph-name="egrave" unicode="&#xe8;" horiz-adv-x="1161" 
d="M585 1159h160v92l-223 295h-268v-108zM314 581h695v64q-22 225 -136.5 340.5t-317.5 115.5q-237 0 -363 -143.5t-126 -418.5q0 -274 126 -416t370 -142h118q26 3 91 7q45 3 85 9q86 13 151 52v337q-53 -23 -86 -32q-60 -15 -117 -15q-25 -1 -55 -6q-3 0 -11.5 -1
t-18.5 -2l-20 -2q-34 -3 -97 -3q-74 0 -128 22q-43 17 -84 51q-66 53 -76 183zM785 751h-450q21 73 73 119q59 51 144 51q93 0 153 -50q53 -44 80 -120z" />
    <glyph glyph-name="eacute" unicode="&#xe9;" horiz-adv-x="1161" 
d="M346 1119h139l330 279v82h-248l-221 -293v-68zM314 581h695v64q-22 225 -136.5 340.5t-317.5 115.5q-237 0 -363 -143.5t-126 -418.5q0 -274 126 -416t370 -142h118q26 3 91 7q45 3 85 9q86 13 151 52v337q-53 -23 -86 -32q-60 -15 -117 -15q-25 -1 -55 -6q-3 0 -11.5 -1
t-18.5 -2l-20 -2q-34 -3 -97 -3q-74 0 -128 22q-43 17 -84 51q-66 53 -76 183zM785 751h-450q21 73 73 119q59 51 144 51q93 0 153 -50q53 -44 80 -120z" />
    <glyph glyph-name="ecircumflex" unicode="&#xea;" horiz-adv-x="1161" 
d="M854 1188l-228 276h-224l-239 -276v-69h146l203 148l194 -148h148v69zM314 581h695v64q-22 225 -136.5 340.5t-317.5 115.5q-237 0 -363 -143.5t-126 -418.5q0 -274 126 -416t370 -142h118q26 3 91 7q45 3 85 9q86 13 151 52v337q-53 -23 -86 -32q-60 -15 -117 -15
q-25 -1 -55 -6q-3 0 -11.5 -1t-18.5 -2l-20 -2q-34 -3 -97 -3q-74 0 -128 22q-43 17 -84 51q-66 53 -76 183zM785 751h-450q21 73 73 119q59 51 144 51q93 0 153 -50q53 -44 80 -120z" />
    <glyph glyph-name="edieresis" unicode="&#xeb;" horiz-adv-x="1161" 
d="M257 1159h229v246h-229v-246zM624 1159h227v246h-227v-246zM314 581h695v64q-22 225 -136.5 340.5t-317.5 115.5q-237 0 -363 -143.5t-126 -418.5q0 -274 126 -416t370 -142h118q26 3 91 7q45 3 85 9q86 13 151 52v337q-53 -23 -86 -32q-60 -15 -117 -15q-25 -1 -55 -6
q-3 0 -11.5 -1t-18.5 -2l-20 -2q-34 -3 -97 -3q-74 0 -128 22q-43 17 -84 51q-66 53 -76 183zM785 751h-450q21 73 73 119q59 51 144 51q93 0 153 -50q53 -44 80 -120z" />
    <glyph glyph-name="igrave" unicode="&#xec;" horiz-adv-x="702" 
d="M374 1145h160v92l-223 295h-268v-108zM229 0h402l-54 1083h-286z" />
    <glyph glyph-name="iacute" unicode="&#xed;" horiz-adv-x="778" 
d="M157 1197h139l330 279v82h-248l-221 -293v-68zM109 0h402l-54 1083h-286z" />
    <glyph glyph-name="icircumflex" unicode="&#xee;" horiz-adv-x="862" 
d="M722 1195l-228 276h-224l-239 -276v-69h146l203 148l194 -148h148v69zM210 1h402l-54 1083h-286z" />
    <glyph glyph-name="idieresis" unicode="&#xef;" horiz-adv-x="757" 
d="M49 1135h229v246h-229v-246zM416 1135h227v246h-227v-246zM144 -1h402l-54 1083h-286z" />
    <glyph glyph-name="eth" unicode="&#xf0;" horiz-adv-x="1318" 
d="M314 1021l310 137q72 -72 141 -187q-57 16 -131 16q-242 0 -366.5 -127.5t-124.5 -374.5q0 -245 125 -374.5t360 -129.5q500 0 500 531v6q0 430 -292 728l168 72v187l-318 -137q-74 52 -155 89h-220l-16 -61q107 -57 185 -114l-166 -73v-188zM877 485q0 -159 -60.5 -232
t-190.5 -73q-118 0 -175 74t-57 231q0 159 58.5 231t185.5 72q124 0 183 -71q56 -70 56 -232z" />
    <glyph glyph-name="ntilde" unicode="&#xf1;" horiz-adv-x="1144" 
d="M129 1119h159q17 111 77 111q23 0 55 -17q51 -29 68 -38q98 -56 162 -56q101 0 150 62q59 74 80 262h-160q-15 -111 -76 -111q-22 0 -53 18q-18 9 -69 38q-100 55 -162 55q-74 0 -120 -36q-48 -36 -71 -90q-27 -67 -40 -198zM1034 0h-361l66 687q1 7 1 19v17
q0 103 -40 139q-37 33 -138 33q-103 0 -152 -70q-52 -71 -53 -169l32 -656h-322q5 109 15.5 307.5t13.5 271.5q1 32 3.5 85t3.5 74q1 18 1.5 35.5t1.5 35.5t1 25q0 9 0.5 20t1 18.5t0.5 12.5v23q0 26 -1 40q-1 13 -1 41q0 30 6 84h232l-6 -87q102 106 280 106q181 0 263 -91
q80 -89 97 -298z" />
    <glyph glyph-name="ograve" unicode="&#xf2;" horiz-adv-x="1167" 
d="M466 1127h160v92l-223 295h-268v-108zM1024 542q0 282 -120.5 416t-365.5 134q-489 0 -489 -550q0 -274 122.5 -417.5t360.5 -143.5q242 0 367 139.5t125 421.5zM774 558q0 -133 -49 -166q-55 -37 -194 -37q-132 0 -182 39.5t-50 163.5q0 180 55 258t187 78
q127 0 181 -77q52 -74 52 -259z" />
    <glyph glyph-name="oacute" unicode="&#xf3;" horiz-adv-x="1167" 
d="M403 1119h139l330 279v82h-248l-221 -293v-68zM1024 542q0 282 -120.5 416t-365.5 134q-489 0 -489 -550q0 -274 122.5 -417.5t360.5 -143.5q242 0 367 139.5t125 421.5zM774 558q0 -133 -49 -166q-55 -37 -194 -37q-132 0 -182 39.5t-50 163.5q0 180 55 258t187 78
q127 0 181 -77q52 -74 52 -259z" />
    <glyph glyph-name="ocircumflex" unicode="&#xf4;" horiz-adv-x="1167" 
d="M885 1188l-228 276h-224l-239 -276v-69h146l203 148l194 -148h148v69zM1024 542q0 282 -120.5 416t-365.5 134q-489 0 -489 -550q0 -274 122.5 -417.5t360.5 -143.5q242 0 367 139.5t125 421.5zM774 558q0 -133 -49 -166q-55 -37 -194 -37q-132 0 -182 39.5t-50 163.5
q0 180 55 258t187 78q127 0 181 -77q52 -74 52 -259z" />
    <glyph glyph-name="otilde" unicode="&#xf5;" horiz-adv-x="1167" 
d="M142 1161h159q17 111 77 111q23 0 55 -17q51 -29 68 -38q98 -56 162 -56q101 0 150 62q59 74 80 262h-160q-15 -111 -76 -111q-21 0 -53 18q-18 9 -69 38q-100 55 -162 55q-73 0 -120 -36q-48 -36 -71 -90q-27 -67 -40 -198zM1024 542q0 282 -120.5 416t-365.5 134
q-489 0 -489 -550q0 -274 122.5 -417.5t360.5 -143.5q242 0 367 139.5t125 421.5zM774 558q0 -133 -49 -166q-55 -37 -194 -37q-132 0 -182 39.5t-50 163.5q0 180 55 258t187 78q127 0 181 -77q52 -74 52 -259z" />
    <glyph glyph-name="odieresis" unicode="&#xf6;" horiz-adv-x="1167" 
d="M226 1157h229v246h-229v-246zM593 1157h227v246h-227v-246zM1024 542q0 282 -120.5 416t-365.5 134q-489 0 -489 -550q0 -274 122.5 -417.5t360.5 -143.5q242 0 367 139.5t125 421.5zM774 558q0 -133 -49 -166q-55 -37 -194 -37q-132 0 -182 39.5t-50 163.5q0 180 55 258
t187 78q127 0 181 -77q52 -74 52 -259z" />
    <glyph glyph-name="divide" unicode="&#xf7;" horiz-adv-x="1049" 
d="M409 893h231v245h-231v-245zM24 566h1002v211h-1002v-211zM409 208h231v245h-231v-245z" />
    <glyph glyph-name="oslash" unicode="&#xf8;" horiz-adv-x="1224" 
d="M247 -42h277l6 24h15q5 -1 15 -1q242 0 367 139.5t125 421.5q0 388 -234 501l116 428h-273l-104 -379q-480 -6 -480 -550q0 -349 197 -484zM501 888l-133 -487q-41 41 -41 157q0 156 40 233q41 79 134 97zM632 358l123 452q47 -78 47 -252q0 -65 -10.5 -104.5t-36 -59
t-50.5 -26t-73 -10.5z" />
    <glyph glyph-name="ugrave" unicode="&#xf9;" horiz-adv-x="1074" 
d="M457 1102h160v92l-223 295h-268v-108zM288 1092h-243v-718q0 -206 88 -300q86 -93 269 -93q164 0 273 98l-11 -79h304l50 1092h-290l-55 -497q-17 -153 -62 -213q-48 -66 -152 -66q-100 0 -136 47q-35 46 -35 175v554z" />
    <glyph glyph-name="uacute" unicode="&#xfa;" horiz-adv-x="1074" 
d="M243 1160h139l330 279v82h-248l-221 -293v-68zM288 1092h-243v-718q0 -206 88 -300q86 -93 269 -93q164 0 273 98l-11 -79h304l50 1092h-290l-55 -497q-17 -153 -62 -213q-48 -66 -152 -66q-100 0 -136 47q-35 46 -35 175v554z" />
    <glyph glyph-name="ucircumflex" unicode="&#xfb;" horiz-adv-x="1074" 
d="M850 1243l-228 276h-224l-239 -276v-69h146l203 148l194 -148h148v69zM288 1092h-243v-718q0 -206 88 -300q86 -93 269 -93q164 0 273 98l-11 -79h304l50 1092h-290l-55 -497q-17 -153 -62 -213q-48 -66 -152 -66q-100 0 -136 47q-35 46 -35 175v554z" />
    <glyph glyph-name="udieresis" unicode="&#xfc;" horiz-adv-x="1074" 
d="M165 1216h229v246h-229v-246zM532 1216h227v246h-227v-246zM288 1092h-243v-718q0 -206 88 -300q86 -93 269 -93q164 0 273 98l-11 -79h304l50 1092h-290l-55 -497q-17 -153 -62 -213q-48 -66 -152 -66q-100 0 -136 47q-35 46 -35 175v554z" />
    <glyph glyph-name="yacute" unicode="&#xfd;" horiz-adv-x="1215" 
d="M458 1119h139l330 279v82h-248l-221 -293v-68zM189 -53v-329q100 -14 171 -14q89 0 166 44q76 45 131 125q60 87 122 250l406 1069h-216l-282 -530l-317 530h-242q14 -28 49.5 -103.5t56.5 -118.5q36 -77 110 -233q104 -218 217 -457l-9 -82q-12 -74 -82 -119
q-68 -43 -165 -43q-50 0 -116 11z" />
    <glyph glyph-name="thorn" unicode="&#xfe;" horiz-adv-x="1232" 
d="M294 1457v-1853h243v472q98 -95 276 -95q409 0 409 565q0 285 -101 419.5t-308 134.5q-184 0 -276 -98v455h-243zM542 513v15q2 188 55.5 278t173.5 90q108 0 154 -81q46 -80 46 -273q0 -195 -46 -278q-46 -84 -156 -84q-119 0 -173 81.5t-54 251.5z" />
    <glyph glyph-name="ydieresis" unicode="&#xff;" horiz-adv-x="1215" 
d="M336 1136h229v246h-229v-246zM703 1136h227v246h-227v-246zM189 -53v-329q100 -14 171 -14q89 0 166 44q76 45 131 125q60 87 122 250l406 1069h-216l-282 -530l-317 530h-242q14 -28 49.5 -103.5t56.5 -118.5q36 -77 110 -233q104 -218 217 -457l-9 -82
q-12 -74 -82 -119q-68 -43 -165 -43q-50 0 -116 11z" />
    <glyph glyph-name="dotlessi" unicode="&#x131;" horiz-adv-x="812" 
d="M199 0h402l-54 1083h-286z" />
    <glyph glyph-name="OE" unicode="&#x152;" horiz-adv-x="2310" 
d="M1111 0h939v335h-798v277h703v222h-703v352h759v223h-899q-93 10 -204 10q-322 0 -508 -189q-187 -190 -187 -519q0 -333 186 -525q186 -195 507 -195q150 0 205 9zM995 1195v-869q-30 -2 -33 -2q-13 0 -21 1h-35q-88 0 -153 10t-120 36t-89 69.5t-52.5 111t-18.5 159.5
q0 236 110.5 360.5t324.5 124.5h42h21q15 0 24 -1z" />
    <glyph glyph-name="oe" unicode="&#x153;" horiz-adv-x="2164" 
d="M1225 523h718v59q0 519 -478 519q-230 0 -359 -141q-122 141 -372 141q-245 0 -371.5 -140.5t-126.5 -418.5q0 -272 127 -416q125 -145 366 -145t372 148q128 -148 370 -148q345 0 459 299l-224 81q-63 -68 -92 -82q-37 -18 -136 -18q-121 14 -186 80q-57 60 -67 182z
M977 582q0 -167 -58 -244q-59 -78 -192 -78q-241 0 -241 322q0 162 61 241.5t191 79.5q126 0 182.5 -77.5t56.5 -243.5zM1687 740h-451q27 68 78 110q63 53 148 53q91 0 150 -48q54 -45 75 -115z" />
    <glyph glyph-name="circumflex" unicode="&#x2c6;" horiz-adv-x="972" 
d="M829 1188l-228 276h-224l-239 -276v-69h146l203 148l194 -148h148v69z" />
    <glyph glyph-name="ring" unicode="&#x2da;" horiz-adv-x="870" 
d="M698 1351q0 107 -78 185q-79 77 -184 77q-107 0 -185 -76q-78 -78 -78 -186t78 -186q77 -77 185 -77q106 0 184 78q78 76 78 185zM523 1351q0 -38 -23.5 -64t-63.5 -26q-39 0 -64 25.5t-25 64.5q0 38 26 63t63 25q36 0 61 -25q26 -26 26 -63z" />
    <glyph glyph-name="tilde" unicode="&#x2dc;" horiz-adv-x="1190" 
d="M222 1119h159q17 111 77 111q23 0 55 -17q51 -29 68 -38q98 -56 162 -56q101 0 150 62q59 74 80 262h-160q-15 -111 -76 -111q-21 0 -53 18q-18 9 -69 38q-100 55 -162 55q-73 0 -120 -36q-48 -36 -71 -90q-27 -67 -40 -198z" />
    <glyph glyph-name="endash" unicode="&#x2013;" horiz-adv-x="1722" 
d="M294 420h1135v202h-1135v-202z" />
    <glyph glyph-name="emdash" unicode="&#x2014;" horiz-adv-x="2570" 
d="M294 420h1983v202h-1983v-202z" />
    <glyph glyph-name="quoteleft" unicode="&#x2018;" horiz-adv-x="675" 
d="M220 887h257v256h-81q12 88 120 244h-204q-48 -75 -71 -153q-21 -74 -21 -174v-173z" />
    <glyph glyph-name="quoteright" unicode="&#x2019;" horiz-adv-x="678" 
d="M457 1215v172h-256v-258h79q-14 -89 -120 -242h207q54 83 72 154q18 69 18 174z" />
    <glyph glyph-name="quotesinglbase" unicode="&#x201a;" horiz-adv-x="678" 
d="M456 85v171h-256v-256h80q-12 -88 -120 -244h206q54 86 72 153q18 68 18 176z" />
    <glyph glyph-name="quotedblleft" unicode="&#x201c;" horiz-adv-x="1084" 
d="M257 887h256v256h-80q12 87 119 244h-204q-91 -141 -91 -327v-173zM566 887h256v256h-80q10 87 119 244h-205q-90 -145 -90 -327v-173z" />
    <glyph glyph-name="quotedblright" unicode="&#x201d;" horiz-adv-x="1085" 
d="M523 1215v172h-257v-256h81q-12 -88 -120 -244h206q54 83 72 154q18 69 18 174zM831 1215v172h-255v-256h80q-12 -87 -119 -244h204q50 80 71 160q19 72 19 168z" />
    <glyph glyph-name="quotedblbase" unicode="&#x201e;" horiz-adv-x="1086" 
d="M523 85v171h-257v-256h81q-12 -88 -120 -244h206q54 86 72 153q18 68 18 176zM831 85v171h-255v-256h80q-12 -87 -119 -244h204q52 87 71 158q19 72 19 171z" />
    <glyph glyph-name="bullet" unicode="&#x2022;" horiz-adv-x="955" 
d="M785 668q0 122 -92 212q-92 89 -217 89q-124 0 -212.5 -87t-88.5 -214q0 -125 90 -217q88 -90 211 -90q129 0 220 93q89 91 89 214z" />
    <glyph glyph-name="guilsinglleft" unicode="&#x2039;" horiz-adv-x="856" 
d="M373 131h210v79l-301 327l299 332v81h-209l-334 -368v-87z" />
    <glyph glyph-name="guilsinglright" unicode="&#x203a;" horiz-adv-x="855" 
d="M482 131l336 364v87l-335 368h-208v-81q73 -83 150 -165q25 -27 75 -83t75 -83l-302 -328v-79h209z" />
    <glyph glyph-name="fraction" unicode="&#x2044;" horiz-adv-x="1094" 
d="M228 0l864 1387h-223l-867 -1387h226z" />
    <glyph glyph-name="foursuperior" unicode="&#x2074;" horiz-adv-x="859" 
d="M606 690h103v180h-103v517h-198l-377 -544v-153h378v-165h197v165zM409 870h-151l151 219v-219z" />
    <glyph glyph-name="Euro" unicode="&#x20ac;" horiz-adv-x="1383" 
d="M778 294h-13q-55 0 -89 8t-62 31q-38 30 -54 51q-28 35 -38 84h359l60 194h-437q-1 5 -1 11q-1 2 -1 5q0 4 1 6v14v43h377l61 193h-423q22 137 82 199.5t168 62.5q82 0 130.5 -46.5t61.5 -132.5l249 17q-34 180 -146.5 276.5t-292.5 96.5q-214 0 -337 -116.5t-160 -356.5
h-115l-60 -193h159v-43q0 -12 1 -17q1 -6 1 -19h-102l-59 -194h176q71 -487 499 -487q362 0 438 357l-299 70v-51q0 -21 -35 -39q-44 -24 -99 -24z" />
    <glyph glyph-name="trademark" unicode="&#x2122;" horiz-adv-x="1245" 
d="M436 1273l100 -6v114h-319v-108h91v-265h128v265zM830 1008h123v373h-123l-65 -146l-64 146h-142v-373h143l-6 176l71 -159l63 161v-178z" />
    <glyph glyph-name="product" unicode="&#x220f;" horiz-adv-x="1707" 
 />
    <glyph glyph-name="approxequal" unicode="&#x2248;" horiz-adv-x="1212" 
d="M53 957v-225q87 63 149.5 90t119.5 27q76 0 189 -40q64 -23 97 -33.5t86.5 -22t96.5 -11.5q84 0 149 22q60 20 131 71v235q-156 -126 -265 -126q-19 0 -46 6q-40 8 -100 26q-6 2 -11 3.5t-9 2.5l-4 2q-122 43 -188 58q-48 11 -112 11q-156 0 -283 -96zM53 600v-225
q87 63 149.5 90t119.5 27q76 0 189 -40q64 -23 97 -33.5t86.5 -22t96.5 -11.5q84 0 149 22q60 20 131 71v235q-156 -126 -265 -126q-19 0 -46 6q-40 8 -100 26q-6 2 -11 3.5t-9 3.5l-4 1q-122 43 -188 58q-48 11 -112 11q-156 0 -283 -96z" />
    <glyph glyph-name="notequal" unicode="&#x2260;" horiz-adv-x="1188" 
d="M212 -45h277l96 354h523v244h-457l58 216h399v244h-333l124 455h-273l-125 -455h-397v-244h330l-59 -216h-271v-244h205z" />
    <glyph glyph-name="NULL" horiz-adv-x="0" 
 />
    </font>
</defs>
</svg>
